<svg width="772" height="772" viewBox="0 0 772 772" fill="none" xmlns="http://www.w3.org/2000/svg">
<g clip-path="url(#clip0_73_10)">
<g clip-path="url(#clip1_73_10)">
<path fill-rule="evenodd" clip-rule="evenodd" d="M772 386C772 599.182 599.182 772 386 772C172.818 772 0 599.182 0 386C0 172.818 172.818 0 386 0C599.182 0 772 172.818 772 386ZM386 752C588.136 752 752 588.136 752 386C752 183.864 588.136 20 386 20C183.864 20 20 183.864 20 386C20 588.136 183.864 752 386 752Z" fill="white"/>
<circle cx="386" cy="386" r="376" fill="#0123FF" stroke="white" stroke-width="20"/>
</g>
<path d="M531 576C531 587.046 466.306 596 386.5 596C306.695 596 242 587.046 242 576C242 564.954 306.695 556 386.5 556C466.306 556 531 564.954 531 576Z" fill="#001BC7"/>
<g clip-path="url(#clip2_73_10)">
<rect x="262.023" y="377.059" width="27.6548" height="118.226" rx="13.8274" fill="white" stroke="black" stroke-width="3"/>
<rect x="483.573" y="377.059" width="27.6548" height="118.226" rx="13.8274" fill="white" stroke="black" stroke-width="3"/>
<mask id="path-6-inside-1_73_10" fill="white">
<path fill-rule="evenodd" clip-rule="evenodd" d="M369.208 381.829H338.554V529.331C335.005 528.351 331.267 527.828 327.406 527.828C304.32 527.828 285.604 546.543 285.604 569.63C285.604 569.753 285.605 569.877 285.606 570H369.207C369.207 569.979 369.207 569.959 369.207 569.938H369.208V569.656C369.208 569.647 369.208 569.638 369.208 569.63C369.208 569.621 369.208 569.613 369.208 569.604V381.829Z"/>
</mask>
<path fill-rule="evenodd" clip-rule="evenodd" d="M369.208 381.829H338.554V529.331C335.005 528.351 331.267 527.828 327.406 527.828C304.32 527.828 285.604 546.543 285.604 569.63C285.604 569.753 285.605 569.877 285.606 570H369.207C369.207 569.979 369.207 569.959 369.207 569.938H369.208V569.656C369.208 569.647 369.208 569.638 369.208 569.63C369.208 569.621 369.208 569.613 369.208 569.604V381.829Z" fill="white"/>
<path d="M338.554 381.829V378.829H335.554V381.829H338.554ZM369.208 381.829H372.208V378.829H369.208V381.829ZM338.554 529.331L337.755 532.223L341.554 533.271V529.331H338.554ZM285.606 570L282.606 570.026L282.632 573H285.606V570ZM369.207 570V573H372.181L372.207 570.026L369.207 570ZM369.207 569.938V566.938H366.228L366.207 569.917L369.207 569.938ZM369.208 569.938V572.938H372.208V569.938H369.208ZM338.554 384.829H369.208V378.829H338.554V384.829ZM341.554 529.331V381.829H335.554V529.331H341.554ZM339.352 526.439C335.545 525.388 331.539 524.828 327.406 524.828V530.828C330.994 530.828 334.464 531.314 337.755 532.223L339.352 526.439ZM327.406 524.828C302.663 524.828 282.604 544.887 282.604 569.63H288.604C288.604 548.2 305.977 530.828 327.406 530.828V524.828ZM282.604 569.63C282.604 569.762 282.605 569.894 282.606 570.026L288.606 569.974C288.605 569.859 288.604 569.745 288.604 569.63H282.604ZM285.606 573H369.207V567H285.606V573ZM372.207 570.026C372.207 570.004 372.207 569.982 372.207 569.959L366.207 569.917C366.207 569.936 366.207 569.954 366.207 569.974L372.207 570.026ZM369.208 566.938H369.207V572.938H369.208V566.938ZM366.208 569.656V569.938H372.208V569.656H366.208ZM372.208 569.656C372.208 569.652 372.208 569.648 372.208 569.644C372.208 569.64 372.208 569.635 372.208 569.63H366.208C366.208 569.633 366.208 569.637 366.208 569.641C366.208 569.646 366.208 569.65 366.208 569.656H372.208ZM372.208 569.63C372.208 569.625 372.208 569.62 372.208 569.616C372.208 569.611 372.208 569.608 372.208 569.604H366.208C366.208 569.609 366.208 569.614 366.208 569.619C366.208 569.623 366.208 569.626 366.208 569.63H372.208ZM366.208 381.829V569.604H372.208V381.829H366.208Z" fill="black" mask="url(#path-6-inside-1_73_10)"/>
<mask id="path-8-inside-2_73_10" fill="white">
<path fill-rule="evenodd" clip-rule="evenodd" d="M434.698 381.829H404.043V529.331C400.494 528.351 396.756 527.828 392.896 527.828C369.809 527.828 351.094 546.543 351.094 569.63C351.094 569.753 351.095 569.877 351.096 570H434.696C434.697 569.979 434.697 569.959 434.697 569.938H434.698V569.656C434.698 569.647 434.698 569.638 434.698 569.63C434.698 569.621 434.698 569.613 434.698 569.604V381.829Z"/>
</mask>
<path fill-rule="evenodd" clip-rule="evenodd" d="M434.698 381.829H404.043V529.331C400.494 528.351 396.756 527.828 392.896 527.828C369.809 527.828 351.094 546.543 351.094 569.63C351.094 569.753 351.095 569.877 351.096 570H434.696C434.697 569.979 434.697 569.959 434.697 569.938H434.698V569.656C434.698 569.647 434.698 569.638 434.698 569.63C434.698 569.621 434.698 569.613 434.698 569.604V381.829Z" fill="white"/>
<path d="M404.043 381.829V378.829H401.043V381.829H404.043ZM434.698 381.829H437.698V378.829H434.698V381.829ZM404.043 529.331L403.245 532.223L407.043 533.271V529.331H404.043ZM351.096 570L348.096 570.026L348.122 573H351.096V570ZM434.696 570V573H437.671L437.696 570.026L434.696 570ZM434.697 569.938V566.938H431.718L431.697 569.917L434.697 569.938ZM434.698 569.938V572.938H437.698V569.938H434.698ZM404.043 384.829H434.698V378.829H404.043V384.829ZM407.043 529.331V381.829H401.043V529.331H407.043ZM404.841 526.439C401.035 525.388 397.029 524.828 392.896 524.828V530.828C396.484 530.828 399.954 531.314 403.245 532.223L404.841 526.439ZM392.896 524.828C368.153 524.828 348.094 544.887 348.094 569.63H354.094C354.094 548.2 371.466 530.828 392.896 530.828V524.828ZM348.094 569.63C348.094 569.762 348.095 569.894 348.096 570.026L354.096 569.974C354.095 569.859 354.094 569.745 354.094 569.63H348.094ZM351.096 573H434.696V567H351.096V573ZM437.696 570.026C437.696 570.004 437.697 569.982 437.697 569.959L431.697 569.917C431.697 569.936 431.697 569.954 431.697 569.974L437.696 570.026ZM434.698 566.938H434.697V572.938H434.698V566.938ZM431.698 569.656V569.938H437.698V569.656H431.698ZM437.698 569.656C437.698 569.652 437.698 569.648 437.698 569.644C437.698 569.64 437.698 569.635 437.698 569.63H431.698C431.698 569.633 431.698 569.637 431.698 569.641C431.698 569.646 431.698 569.65 431.698 569.656H437.698ZM437.698 569.63C437.698 569.625 437.698 569.62 437.698 569.616C437.698 569.611 437.698 569.608 437.698 569.604H431.698C431.698 569.609 431.698 569.614 431.698 569.619C431.698 569.623 431.698 569.626 431.698 569.63H437.698ZM431.698 381.829V569.604H437.698V381.829H431.698Z" fill="black" mask="url(#path-8-inside-2_73_10)"/>
<g clip-path="url(#clip3_73_10)">
<rect x="202" y="261.3" width="368.554" height="163.028" rx="81.5138" fill="#04EE6A"/>
<rect x="434" y="262" width="162" height="95" rx="40.802" transform="rotate(90 434 262)" stroke="black" stroke-width="2"/>
<rect x="472" y="256" width="173" height="167" rx="80.5138" transform="rotate(90 472 256)" stroke="black" stroke-width="2"/>
<rect x="508" y="262" width="161" height="239" rx="78.4237" transform="rotate(90 508 262)" stroke="black" stroke-width="2"/>
<rect x="542" y="262" width="161" height="308" rx="80.5" transform="rotate(90 542 262)" stroke="black" stroke-width="2"/>
<rect x="569.554" y="391.977" width="366.554" height="98.3247" rx="49.1623" transform="rotate(-180 569.554 391.977)" stroke="black" stroke-width="2"/>
<rect x="203.5" y="262.8" width="365.554" height="160.028" rx="80.0138" stroke="black" stroke-width="3"/>
<line x1="370.905" y1="263.391" x2="370.905" y2="424.328" stroke="black" stroke-width="2"/>
<line x1="400.863" y1="263.391" x2="400.863" y2="424.328" stroke="black" stroke-width="2"/>
<line x1="568.464" y1="329.88" x2="204.091" y2="329.88" stroke="black" stroke-width="2"/>
<line x1="568.464" y1="359.838" x2="204.091" y2="359.838" stroke="black" stroke-width="2"/>
</g>
<g clip-path="url(#clip4_73_10)">
<path d="M340.537 261.649C340.537 279.803 336.219 296.165 329.316 307.937C322.392 319.745 313.045 326.684 303.022 326.684C292.999 326.684 283.652 319.745 276.728 307.937C269.825 296.165 265.507 279.803 265.507 261.649C265.507 243.495 269.825 227.133 276.728 215.36C283.652 203.552 292.999 196.614 303.022 196.614C313.045 196.614 322.392 203.552 329.316 215.36C336.219 227.133 340.537 243.495 340.537 261.649Z" fill="white" stroke="black" stroke-width="3"/>
<path fill-rule="evenodd" clip-rule="evenodd" d="M303.021 303.799C315.719 303.799 326.012 284.928 326.012 261.649C326.012 238.37 315.719 219.499 303.021 219.499C293.415 219.499 285.184 230.3 281.746 245.641L293.301 265.655H280.133C281.233 287.055 291.061 303.799 303.021 303.799Z" fill="#000B1F"/>
<mask id="path-23-inside-3_73_10" fill="white">
<path fill-rule="evenodd" clip-rule="evenodd" d="M336.523 295.422C329.736 315.03 317.219 328.184 302.901 328.184C288.62 328.184 276.132 315.099 269.332 295.576C278.429 288.101 290.185 283.595 303.022 283.595C315.771 283.595 327.453 288.039 336.523 295.422Z"/>
</mask>
<path fill-rule="evenodd" clip-rule="evenodd" d="M336.523 295.422C329.736 315.03 317.219 328.184 302.901 328.184C288.62 328.184 276.132 315.099 269.332 295.576C278.429 288.101 290.185 283.595 303.022 283.595C315.771 283.595 327.453 288.039 336.523 295.422Z" fill="#FFAEAA"/>
<path d="M336.523 295.422L339.358 296.403L340.045 294.42L338.417 293.095L336.523 295.422ZM269.332 295.576L267.428 293.258L265.811 294.587L266.499 296.563L269.332 295.576ZM333.688 294.441C327.027 313.687 315.231 325.184 302.901 325.184V331.184C319.208 331.184 332.446 316.374 339.358 296.403L333.688 294.441ZM302.901 325.184C290.604 325.184 278.838 313.748 272.165 294.589L266.499 296.563C273.425 316.449 286.637 331.184 302.901 331.184V325.184ZM271.237 297.894C279.81 290.848 290.897 286.595 303.022 286.595V280.595C289.473 280.595 277.047 285.353 267.428 293.258L271.237 297.894ZM303.022 286.595C315.064 286.595 326.081 290.79 334.629 297.749L338.417 293.095C328.825 285.288 316.478 280.595 303.022 280.595V286.595Z" fill="black" mask="url(#path-23-inside-3_73_10)"/>
</g>
<g clip-path="url(#clip5_73_10)">
<path d="M406.724 261.649C406.724 279.803 402.406 296.165 395.502 307.937C388.578 319.745 379.231 326.684 369.208 326.684C359.186 326.684 349.839 319.745 342.914 307.937C336.011 296.165 331.693 279.803 331.693 261.649C331.693 243.495 336.011 227.133 342.914 215.36C349.839 203.552 359.186 196.614 369.208 196.614C379.231 196.614 388.578 203.552 395.502 215.36C402.406 227.133 406.724 243.495 406.724 261.649Z" fill="white" stroke="black" stroke-width="3"/>
<path fill-rule="evenodd" clip-rule="evenodd" d="M369.208 303.799C381.905 303.799 392.199 284.928 392.199 261.649C392.199 238.37 381.905 219.499 369.208 219.499C359.601 219.499 351.371 230.3 347.933 245.641L359.488 265.655H346.319C347.42 287.055 357.247 303.799 369.208 303.799Z" fill="#000B1F"/>
<mask id="path-27-inside-4_73_10" fill="white">
<path fill-rule="evenodd" clip-rule="evenodd" d="M402.71 295.422C395.923 315.03 383.406 328.184 369.087 328.184C354.807 328.184 342.318 315.099 335.519 295.576C344.615 288.101 356.371 283.595 369.208 283.595C381.957 283.595 393.64 288.039 402.71 295.422Z"/>
</mask>
<path fill-rule="evenodd" clip-rule="evenodd" d="M402.71 295.422C395.923 315.03 383.406 328.184 369.087 328.184C354.807 328.184 342.318 315.099 335.519 295.576C344.615 288.101 356.371 283.595 369.208 283.595C381.957 283.595 393.64 288.039 402.71 295.422Z" fill="#FFAEAA"/>
<path d="M402.71 295.422L405.545 296.403L406.231 294.42L404.604 293.095L402.71 295.422ZM335.519 295.576L333.614 293.258L331.997 294.587L332.686 296.563L335.519 295.576ZM399.875 294.441C393.213 313.687 381.417 325.184 369.087 325.184V331.184C385.394 331.184 398.632 316.374 405.545 296.403L399.875 294.441ZM369.087 325.184C356.79 325.184 345.024 313.748 338.352 294.589L332.686 296.563C339.612 316.449 352.823 331.184 369.087 331.184V325.184ZM337.423 297.894C345.997 290.848 357.083 286.595 369.208 286.595V280.595C355.659 280.595 343.234 285.353 333.614 293.258L337.423 297.894ZM369.208 286.595C381.25 286.595 392.267 290.79 400.816 297.749L404.604 293.095C395.012 285.288 382.664 280.595 369.208 280.595V286.595Z" fill="black" mask="url(#path-27-inside-4_73_10)"/>
</g>
<rect x="288.386" y="178.837" width="47.1623" height="14.4175" rx="7.20874" transform="rotate(15 288.386 178.837)" fill="#04EE6A" stroke="black" stroke-width="3"/>
<rect x="-1.06066" y="1.83712" width="47.1623" height="14.4175" rx="7.20874" transform="matrix(-0.965926 0.258819 0.258819 0.965926 381.659 177.337)" fill="#04EE6A" stroke="black" stroke-width="3"/>
</g>
<path d="M127.095 389.196C126.221 391.935 124.396 394.269 121.951 395.777C119.209 397.117 116.153 397.683 113.114 397.414C112.343 397.407 111.574 397.34 110.813 397.213L110.671 399.985L126.847 401.584L126.143 417.608L104.794 416.662L105.568 399.189C112.321 396.9 115.975 390.608 116.435 380.246C116.729 377.131 116.446 373.987 115.599 370.974C114.898 369.009 113.775 368.009 112.284 367.924C111.74 367.874 111.192 367.97 110.697 368.202C110.202 368.435 109.778 368.795 109.468 369.246C108.621 370.624 108.007 372.133 107.653 373.712L102.85 393.978C102.058 397.66 100.892 401.251 99.3717 404.696C98.0063 407.606 95.9064 410.108 93.2794 411.956C90.1986 413.95 86.5305 414.831 82.8806 414.456C76.3239 414.173 71.5584 411.655 68.6618 406.994C65.7651 402.333 64.4506 395.931 64.816 387.875C65.1497 380.463 66.5333 375.236 68.9667 372.193C71.409 369.122 75.1935 367.743 80.4112 367.979C81.301 367.997 82.1887 368.071 83.069 368.203L83.1874 365.414L67.1937 363.91L67.9008 347.782L89.2506 348.727L88.4962 365.822C85.2584 366.959 82.5411 369.23 80.8457 372.216C78.7931 375.873 77.6897 379.986 77.6366 384.181C77.3848 386.594 77.6348 389.034 78.3709 391.346C78.6045 392.01 79.0324 392.589 79.5989 393.008C80.1655 393.426 80.8445 393.664 81.5478 393.691C82.1503 393.737 82.7544 393.624 83.2988 393.361C83.8432 393.099 84.3085 392.697 84.6476 392.196C85.5952 390.63 86.2386 388.898 86.5438 387.092L91.0728 367.184C91.8896 363.71 93.0166 360.317 94.4403 357.046C95.7158 354.149 97.7511 351.652 100.33 349.82C103.446 347.82 107.146 346.933 110.83 347.303C117.558 347.572 122.41 350.194 125.386 355.167C128.29 360.119 129.634 366.953 129.255 375.928C129.19 380.297 128.459 384.632 127.088 388.78L127.095 389.196Z" fill="white"/>
<path d="M124.329 317.554C124.555 316.912 124.393 316.564 123.817 316.348L93.1725 305.788L90.2505 314.228C90.1424 314.45 90.1235 314.705 90.1975 314.94C90.2715 315.176 90.4328 315.374 90.6483 315.494L100.888 320.037L95.7319 334.928L71.4487 326.475L96.2014 254.607L120.586 263.043L115.43 277.934L104.573 275.18C104.037 275.082 103.663 275.331 103.443 276.013L100.565 284.467L131.159 295.097C131.756 295.31 132.1 295.128 132.306 294.49L135.68 284.768L148.745 289.299L133.967 331.983L120.901 327.452L124.329 317.554Z" fill="white"/>
<path d="M155.488 261.068C147.629 262.834 139.427 260.534 130.759 254.188C122.092 247.843 117.398 240.754 116.795 232.755C116.193 224.756 119.347 215.84 126.546 205.981C133.745 196.122 141.052 190.285 148.924 188.476C156.797 186.666 164.918 188.98 173.582 195.305C182.246 201.63 186.926 208.763 187.657 216.783C188.388 224.802 185.193 233.849 177.977 243.607C170.761 253.364 163.279 259.273 155.417 261.018L155.488 261.068ZM169.335 224.411C168.222 220.973 165.184 217.46 160.328 213.896C155.471 210.331 151.265 208.678 147.724 208.642C144.183 208.607 141.005 210.634 138.178 214.519C135.351 218.404 134.339 222.195 135.33 225.653C136.321 229.111 139.269 232.577 144.145 236.138C149.022 239.699 153.224 241.457 156.873 241.391C160.523 241.326 163.764 239.308 166.649 235.268C169.533 231.228 170.299 227.707 169.187 224.269L169.335 224.411Z" fill="white"/>
<path d="M201.625 192.293C202.125 191.848 202.154 191.459 201.739 190.993L180.645 167.446C180.235 166.999 179.852 166.991 179.351 167.436L174.17 172.036L164.952 161.663L199.814 130.664C206.815 124.393 212.985 120.905 218.323 120.199C223.63 119.508 228.6 121.827 233.134 126.842C237.667 131.857 239.266 137.066 237.918 142.177C236.57 147.287 232.363 152.975 225.332 159.296L213.249 170.057L218.512 175.946C218.927 176.413 219.311 176.421 219.811 175.976L226.832 169.701L236.05 180.074L205.566 207.227L196.348 196.854L201.625 192.293ZM215.684 153.228C217.649 151.737 219.085 149.657 219.786 147.291C219.955 146.296 219.877 145.276 219.56 144.318C219.243 143.36 218.696 142.495 217.967 141.798C217.394 141.007 216.622 140.383 215.73 139.988C214.838 139.593 213.857 139.442 212.887 139.549C210.518 140.124 208.358 141.355 206.657 143.103L196.973 151.729L206.061 161.923L215.744 153.297L215.684 153.228Z" fill="white"/>
<path d="M290.758 137.441C291.426 137.33 291.659 136.979 291.514 136.358L284.762 105.521C284.661 104.913 284.294 104.704 283.612 104.859L276.833 106.361L273.877 92.8404L311.991 84.4184L314.957 97.9998L308.073 99.4989C307.405 99.61 307.176 99.9813 307.317 100.582L309.309 109.683L333.689 104.337L331.676 95.2395C331.575 94.6317 331.208 94.4222 330.547 94.5738L323.666 96.0931L320.72 82.6333L358.834 74.2113L361.79 87.7319L354.906 89.231C354.238 89.3421 354.009 89.7133 354.15 90.3144L360.905 121.171C361.006 121.779 361.391 121.965 362.052 121.814L368.936 120.314L371.892 133.835L333.778 142.257L330.802 128.74L337.682 127.22C338.37 127.106 338.583 126.758 338.462 126.154L336.22 115.929L311.837 121.255L314.079 131.48C314.183 132.108 314.548 132.297 315.229 132.142L322.113 130.643L325.069 144.164L286.955 152.586L284.002 139.085L290.758 137.441Z" fill="white"/>
<path d="M382.897 111.85L385.541 88.8614C385.605 88.2469 385.386 87.9294 384.668 87.8615L377.609 87.0578L379.192 73.3233L417.976 77.8029L416.412 91.534L409.424 90.781C408.743 90.6861 408.432 90.9459 408.365 91.5401L405.846 113.904C405.366 118.148 406.185 121.197 408.344 123.045C411.452 125.247 415.127 126.507 418.93 126.677C422.28 127.332 425.751 126.886 428.826 125.406C431.056 124.056 432.466 121.281 432.946 117.038L435.465 94.6735C435.529 94.059 435.31 93.7415 434.591 93.6736L427.576 92.7585L429.244 79.1557L463.171 83.0691L461.567 96.6819L454.45 95.7836C453.769 95.6888 453.459 95.9486 453.391 96.5428L450.751 119.552C449.751 128.046 446.239 133.94 440.141 137.161C434.042 140.383 425.472 141.371 414.402 140.089C403.333 138.807 394.689 135.852 389.401 131.318C384.113 126.784 381.898 120.345 382.897 111.85Z" fill="white"/>
<path d="M469.289 134.371C469.898 134.658 470.27 134.534 470.545 133.969L483.744 105.298C483.999 104.737 483.831 104.353 483.221 104.067L476.826 101.165L482.607 88.5973L521.891 106.716L516.839 139.375L519.414 140.575L541.753 115.821L579.634 133.197L573.853 145.764L567.35 142.759C566.741 142.473 566.349 142.601 566.095 143.162L552.899 171.853C552.645 172.414 552.809 172.777 553.418 173.063L559.916 176.048L554.134 188.616L516.718 171.348L522.5 158.78L530.777 162.593C531.386 162.88 531.782 162.772 532.059 162.311L546.514 133.237L543.939 132.038L510.674 164.603L496.656 158.186L500.515 112.098L497.944 110.918L485.263 140.8C484.989 141.365 485.153 141.729 485.786 142.031L493.503 145.589L487.721 158.156L457.063 144.005L462.845 131.438L469.289 134.371Z" fill="white"/>
<path d="M611.23 262.546L586.834 231.191L597.718 222.678L603.385 229.848L606.97 223.239L590.225 201.805L582.901 203.671L588.507 210.847L577.623 219.36L557.061 193.047L567.945 184.534L571.205 188.691C571.376 188.966 571.629 189.182 571.928 189.307C572.227 189.433 572.558 189.461 572.875 189.39L624.618 180.491L639.744 199.857L618.669 248.058C618.51 248.341 618.444 248.666 618.48 248.989C618.517 249.311 618.654 249.614 618.873 249.854L622.112 254.013L611.23 262.546ZM621.019 196.424L619.207 194.108L601.158 198.805L612.249 213.007L621.019 196.424Z" fill="white"/>
<path d="M627.684 271.037C627.901 271.694 628.253 271.883 628.83 271.694L658.673 261.633C659.269 261.422 659.416 261.075 659.198 260.417L656.968 253.743L670.06 249.329L683.154 288.127L648.792 321.92L649.411 323.773L676.54 314.551C677.136 314.34 677.283 313.993 677.066 313.335L674.194 304.79L687.305 300.374L697.894 332.053L684.803 336.466L682.55 329.773C682.335 329.136 681.981 328.928 681.406 329.136L637.636 343.89L628.336 315.994L661.374 279.022L660.755 277.169L633.875 286.218C633.279 286.429 633.132 286.776 633.35 287.434L637.181 298.849L624.069 303.264L612.404 268.771L625.515 264.355L627.684 271.037Z" fill="white"/>
<path d="M642.483 380.635C643.25 377.818 645.003 375.371 647.422 373.739C650.115 372.282 653.158 371.595 656.216 371.753C656.985 371.73 657.754 371.773 658.516 371.881L658.549 369.031L642.331 368.001L642.5 351.642L663.852 351.845L663.681 369.669C657.006 372.255 653.577 378.777 653.469 389.373C653.287 392.55 653.679 395.735 654.627 398.773C655.417 400.76 656.542 401.745 658.047 401.744C658.596 401.783 659.146 401.669 659.635 401.414C660.123 401.159 660.531 400.773 660.813 400.3C661.606 398.842 662.149 397.262 662.422 395.625L666.589 374.794C667.268 371.09 668.297 367.46 669.662 363.952C670.927 360.965 672.939 358.354 675.503 356.371C678.502 354.239 682.141 353.202 685.813 353.433C692.374 353.5 697.223 355.899 700.269 360.535C703.315 365.172 704.869 371.645 704.799 379.865C704.727 387.424 703.514 392.783 701.187 396C698.86 399.217 695.11 400.715 689.871 400.685C688.987 400.704 688.102 400.666 687.222 400.57L687.187 403.401L703.231 404.345L703.079 420.867L681.726 420.664L681.892 403.212C685.1 401.925 687.736 399.523 689.317 396.447C691.243 392.596 692.196 388.331 692.093 384.025C692.257 381.558 691.913 379.084 691.08 376.756C690.839 376.089 690.397 375.512 689.815 375.107C689.233 374.701 688.54 374.486 687.831 374.491C687.227 374.466 686.629 374.604 686.098 374.891C685.567 375.179 685.123 375.605 684.815 376.125C683.911 377.755 683.322 379.541 683.078 381.389L679.243 401.817C678.517 405.394 677.477 408.899 676.134 412.291C674.948 415.242 673 417.823 670.489 419.771C667.465 421.916 663.794 422.949 660.096 422.696C653.351 422.647 648.408 420.134 645.274 415.216C642.139 410.299 640.594 403.289 640.683 394.201C640.583 389.737 641.159 385.284 642.394 380.994L642.483 380.635Z" fill="white"/>
<path d="M637.591 553.88L639.095 550.423C639.229 550.201 639.289 549.942 639.264 549.683C639.24 549.425 639.134 549.181 638.961 548.988L611.027 521.966L616.554 509.304L646.352 511.155L624.779 490.488L630.41 477.579L669.055 480.104C669.315 480.1 669.566 480.012 669.772 479.854C669.978 479.696 670.128 479.476 670.199 479.226L671.704 475.77L681.687 480.147L671.592 503.23L661.613 498.873L663.569 494.383L641.528 491.408L640.705 493.335L657.682 507.876L659.747 503.16L669.75 507.534L657.709 535.167L647.726 530.79L649.882 525.872L627.861 522.768L627.017 524.699L643.994 539.239L645.914 534.902L655.873 539.262L647.604 558.189L637.591 553.88Z" fill="#25FD1E"/>
<path d="M607.883 548.202C607.573 548.587 607.58 548.878 608.045 549.175L627.177 565.044C627.244 565.114 627.327 565.167 627.419 565.198C627.512 565.229 627.61 565.236 627.706 565.22C627.801 565.205 627.892 565.165 627.969 565.106C628.046 565.047 628.108 564.97 628.148 564.882L631.353 561.018L639.744 567.95L621.976 589.415L613.606 582.479L616.807 578.595C616.877 578.528 616.93 578.444 616.961 578.352C616.992 578.26 617 578.162 616.984 578.066C616.968 577.97 616.929 577.879 616.87 577.802C616.811 577.724 616.734 577.663 616.645 577.622L611.003 572.96L599.733 586.723L605.378 591.406C605.445 591.476 605.528 591.529 605.621 591.56C605.713 591.591 605.811 591.599 605.907 591.583C606.003 591.567 606.093 591.528 606.17 591.469C606.248 591.41 606.309 591.333 606.35 591.244L609.554 587.38L617.945 594.312L600.177 615.777L591.807 608.842L595.012 604.977C595.082 604.91 595.135 604.827 595.166 604.735C595.197 604.642 595.204 604.544 595.188 604.448C595.172 604.352 595.133 604.262 595.074 604.184C595.015 604.107 594.938 604.045 594.85 604.005L575.718 588.136C575.651 588.066 575.568 588.013 575.476 587.982C575.384 587.951 575.285 587.943 575.19 587.959C575.094 587.975 575.003 588.014 574.926 588.073C574.849 588.132 574.787 588.209 574.747 588.298L571.542 592.162L563.172 585.226L580.922 563.785L589.293 570.721L586.091 574.605C586.021 574.672 585.968 574.756 585.937 574.848C585.907 574.94 585.899 575.038 585.915 575.134C585.931 575.23 585.97 575.321 586.029 575.398C586.088 575.475 586.165 575.537 586.253 575.578L592.587 580.77L603.928 567.058L597.594 561.865C597.525 561.799 597.442 561.75 597.35 561.722C597.259 561.694 597.163 561.687 597.068 561.703C596.974 561.718 596.885 561.756 596.807 561.812C596.73 561.868 596.667 561.942 596.623 562.027L593.422 565.911L585.051 558.975L602.681 537.429L611.051 544.365L607.883 548.202Z" fill="#25FD1E"/>
<path d="M559.052 594.344C565.093 595.025 570.607 598.668 575.706 605.44C580.805 612.212 582.888 618.487 581.882 624.442C580.876 630.398 576.845 636.044 569.792 641.403C562.738 646.761 556.232 649.155 550.184 648.558C544.137 647.96 538.67 644.227 533.578 637.495C528.486 630.763 526.396 624.448 527.375 618.456C528.354 612.463 532.358 606.779 539.411 601.421C546.465 596.063 553.022 593.723 559.042 594.408L559.052 594.344ZM542.097 617.443C542.661 621.089 544.245 624.5 546.666 627.281C548.649 630.354 551.489 632.777 554.834 634.251C556.218 634.647 557.68 634.683 559.081 634.355C560.482 634.027 561.777 633.346 562.842 632.377C564.084 631.589 565.112 630.505 565.835 629.223C566.558 627.94 566.953 626.498 566.984 625.026C566.521 621.429 564.981 618.056 562.567 615.35C560.562 612.268 557.693 609.848 554.318 608.394C552.891 607.999 551.387 607.971 549.946 608.313C548.505 608.654 547.173 609.354 546.075 610.348C544.848 611.134 543.845 612.223 543.163 613.511C542.481 614.8 542.143 616.242 542.182 617.7L542.097 617.443Z" fill="#25FD1E"/>
<path d="M517.295 631.376C517.184 631.406 517.081 631.463 516.997 631.541C516.912 631.619 516.847 631.717 516.808 631.826C516.769 631.934 516.757 632.051 516.772 632.165C516.788 632.28 516.83 632.388 516.897 632.483L527.238 654.769C527.27 654.88 527.327 654.982 527.405 655.067C527.483 655.152 527.58 655.217 527.688 655.258C527.796 655.299 527.912 655.314 528.026 655.301C528.141 655.289 528.251 655.251 528.348 655.188L532.787 653.117L537.362 662.996L512.132 674.73L507.556 664.851L511.979 662.804C512.09 662.774 512.192 662.717 512.277 662.639C512.362 662.56 512.426 662.463 512.465 662.354C512.504 662.246 512.517 662.129 512.501 662.015C512.486 661.9 512.443 661.791 512.377 661.697L502.032 639.39C501.998 639.282 501.939 639.182 501.86 639.1C501.781 639.018 501.685 638.955 501.577 638.916C501.47 638.878 501.356 638.864 501.243 638.877C501.13 638.89 501.021 638.929 500.926 638.991L487.41 645.258C486.833 645.541 486.705 645.896 486.938 646.419L490.869 656.675L480.483 661.505L470.924 640.921L517.098 619.437L521.673 629.315L517.295 631.376Z" fill="#25FD1E"/>
<path d="M465.782 653.894C465.296 653.975 465.155 654.248 465.252 654.711L470.683 678.98C470.764 679.466 471.057 679.605 471.519 679.507L476.43 678.399L478.803 689.039L429.461 700.099L425.018 680.267L436.587 677.677L439.196 686.112C439.264 686.517 439.54 686.68 440.003 686.582L454.837 683.24L453.01 675.007L440.135 677.878L438.342 669.848L451.193 666.96L449.255 658.309C449.174 657.823 448.897 657.661 448.418 657.782L433.24 661.181C433.154 661.193 433.071 661.222 432.996 661.266C432.922 661.311 432.857 661.371 432.806 661.442C432.756 661.513 432.72 661.593 432.702 661.679C432.684 661.764 432.683 661.852 432.7 661.937L434.281 672.189L422.772 674.769L418.009 653.512L468.313 642.23L470.706 652.867L465.782 653.894Z" fill="#25FD1E"/>
<path d="M386.668 666.638C386.575 666.613 386.478 666.61 386.385 666.631C386.292 666.651 386.204 666.694 386.131 666.755C386.057 666.816 386 666.894 385.963 666.982C385.926 667.071 385.911 667.167 385.919 667.262L383.797 692.017C383.773 692.111 383.771 692.209 383.792 692.303C383.813 692.398 383.855 692.486 383.916 692.561C383.977 692.636 384.055 692.695 384.143 692.735C384.232 692.774 384.328 692.792 384.425 692.787L389.447 693.222L388.406 704.097L359.424 701.526L347.307 666.189L345.914 666.067L343.955 688.546C343.93 688.64 343.929 688.738 343.949 688.833C343.97 688.927 344.012 689.015 344.073 689.09C344.135 689.165 344.212 689.225 344.301 689.264C344.389 689.303 344.485 689.321 344.582 689.316L350.916 689.887L349.973 700.725L326.334 698.64L327.296 687.799L332.298 688.237C332.784 688.281 333.006 688.119 333.044 687.592L336.239 651.291L357.154 653.121L371.561 688.472L372.954 688.595L374.907 666.325C374.951 665.839 374.789 665.616 374.263 665.578L365.814 664.797L366.776 653.956L392.568 656.225L391.609 667.086L386.668 666.638Z" fill="#25FD1E"/>
<path d="M272.202 630.649L299.012 639.785L295.489 650.115L289.358 648.012L289.643 653.857L308.011 660.129L311.722 655.681L305.594 653.598L309.096 643.271L331.73 650.937L328.224 661.243L324.653 660.026C324.434 659.935 324.191 659.917 323.961 659.974C323.731 660.031 323.525 660.16 323.374 660.343L294.88 689.089L278.314 683.516L273.219 643.264C273.212 643.024 273.126 642.794 272.975 642.608C272.824 642.423 272.616 642.292 272.383 642.237L268.643 640.881L272.202 630.649ZM290.949 677.334L292.932 678.003L302.303 666.95L290.121 662.73L290.949 677.334Z" fill="#25FD1E"/>
<path d="M255.713 632.413C255.294 632.15 255.018 632.237 254.741 632.575L241.76 654.556L247.331 657.793C247.481 657.9 247.668 657.943 247.85 657.913C248.032 657.883 248.195 657.782 248.302 657.631L253.342 650.422L263.197 656.278L252.857 673.759L205.419 645.755L215.759 628.274L225.61 634.11L221.727 642.022C221.688 642.112 221.667 642.209 221.666 642.307C221.664 642.404 221.682 642.501 221.719 642.592C221.755 642.683 221.809 642.766 221.878 642.835C221.946 642.905 222.028 642.961 222.118 642.998L227.689 646.236L240.671 624.255C240.737 624.186 240.786 624.102 240.814 624.011C240.842 623.92 240.848 623.823 240.833 623.729C240.817 623.634 240.78 623.545 240.724 623.467C240.667 623.39 240.594 623.327 240.509 623.283L234.047 619.569L239.678 610.158L267.899 626.909L262.326 636.164L255.713 632.413Z" fill="#25FD1E"/>
<path d="M211.865 612.994L199.292 626.183C199.21 626.236 199.143 626.309 199.098 626.395C199.052 626.481 199.029 626.578 199.03 626.675C199.032 626.773 199.058 626.868 199.107 626.953C199.156 627.037 199.225 627.108 199.309 627.158L202.958 630.716L195.412 638.488L175.282 619.246L182.821 611.433L186.47 614.99C186.527 615.068 186.601 615.131 186.686 615.173C186.772 615.216 186.866 615.238 186.962 615.236C187.058 615.234 187.152 615.21 187.236 615.164C187.32 615.118 187.392 615.053 187.445 614.974L199.683 602.153C201.997 599.686 203.057 597.428 202.72 595.402C202.018 592.742 200.496 590.373 198.37 588.63C196.736 586.794 194.512 585.588 192.083 585.22C190.834 585.31 189.618 585.665 188.516 586.261C187.414 586.857 186.451 587.681 185.691 588.677L173.453 601.498C173.376 601.557 173.313 601.633 173.271 601.721C173.229 601.808 173.208 601.904 173.21 602.001C173.212 602.099 173.237 602.194 173.282 602.279C173.328 602.365 173.394 602.439 173.473 602.494L177.122 606.052L169.546 613.641L151.935 596.791L159.444 588.921L163.133 592.471C163.192 592.549 163.268 592.611 163.356 592.654C163.443 592.696 163.539 592.717 163.636 592.715C163.733 592.713 163.828 592.688 163.914 592.642C163.999 592.597 164.073 592.531 164.128 592.452L176.701 579.263C181.369 574.322 186.2 572.228 191.245 572.804C196.291 573.381 201.704 576.416 207.447 581.936C213.19 587.455 216.714 592.886 217.584 597.989C218.453 603.091 216.459 608.107 211.865 612.994Z" fill="#25FD1E"/>
<path d="M142.347 516.269C143.673 515.25 145.208 514.536 146.841 514.178C148.475 513.82 150.167 513.827 151.798 514.197C154.658 515.012 157.43 517.549 160.151 521.781C162.053 524.384 163.149 527.489 163.3 530.71C163.147 533.568 162.158 536.317 160.456 538.616L153.399 548.951C153.249 549.169 153.172 549.429 153.178 549.693C153.185 549.958 153.275 550.213 153.436 550.424L156.106 554.601L163.321 549.966C163.414 549.931 163.495 549.873 163.56 549.798C163.624 549.723 163.669 549.634 163.69 549.537C163.711 549.441 163.708 549.341 163.68 549.246C163.653 549.151 163.603 549.064 163.534 548.994L161.059 545.116L170.21 539.242L185.014 562.348L175.863 568.222L173.081 564C173.041 563.911 172.982 563.833 172.907 563.771C172.832 563.71 172.744 563.667 172.649 563.646C172.554 563.625 172.456 563.627 172.362 563.652C172.268 563.676 172.182 563.722 172.109 563.787L151.223 577.13C151.134 577.169 151.056 577.228 150.995 577.303C150.933 577.379 150.89 577.467 150.87 577.562C150.849 577.657 150.851 577.755 150.875 577.849C150.9 577.943 150.946 578.029 151.01 578.102L153.792 582.324L144.533 588.299L121.856 552.866C119.314 549.439 118.035 545.238 118.235 540.976C118.512 539.137 119.212 537.388 120.28 535.866C121.348 534.344 122.754 533.092 124.388 532.207C128.149 529.811 131.471 529.155 134.466 530.28C137.461 531.406 140.581 534.406 143.72 539.276L146.155 543.036L151.043 535.664C152.058 534.017 152.328 532.764 151.765 531.879C151.624 531.604 151.422 531.365 151.175 531.179C150.928 530.993 150.642 530.865 150.339 530.805C149.631 530.798 148.939 531.016 148.362 531.425L143.667 534.455L134.98 520.867L142.347 516.269ZM142.235 546.478C140.239 543.353 137.905 542.701 135.196 544.421C134.595 544.737 134.069 545.18 133.656 545.72C133.243 546.26 132.952 546.883 132.804 547.547C132.721 549.041 133.173 550.516 134.079 551.707L141.754 563.714L149.869 558.616L142.195 546.609L142.235 546.478Z" fill="#25FD1E"/>
<path d="M138.962 506.921C138.945 506.825 138.905 506.734 138.846 506.655C138.787 506.577 138.71 506.515 138.621 506.472C138.533 506.43 138.436 506.409 138.338 506.412C138.24 506.415 138.144 506.441 138.058 506.489L114.629 514.675C114.144 514.756 114.036 515.107 114.198 515.58L115.84 520.324L105.579 523.905L88.8932 476.107L108.116 469.391L112.061 480.602L103.979 484.154C103.574 484.221 103.466 484.572 103.625 485.025L108.638 499.411L116.618 496.626L112.256 484.151L120.122 481.427L124.461 493.885L132.836 490.971C132.93 490.955 133.018 490.916 133.094 490.858C133.17 490.801 133.231 490.725 133.272 490.639C133.312 490.552 133.332 490.458 133.328 490.362C133.324 490.267 133.298 490.173 133.251 490.09L128.119 475.37C128.052 474.965 127.721 474.853 127.296 474.924L117.353 477.661L113.422 466.53L134.041 459.332L151.026 508.058L140.746 511.642L138.962 506.921Z" fill="#25FD1E"/>
</g>
<defs>
<clipPath id="clip0_73_10">
<rect width="772" height="772" fill="white"/>
</clipPath>
<clipPath id="clip1_73_10">
<rect width="772" height="772" fill="white"/>
</clipPath>
<clipPath id="clip2_73_10">
<rect width="368.554" height="393" fill="white" transform="translate(202 177)"/>
</clipPath>
<clipPath id="clip3_73_10">
<rect width="368.554" height="163.028" fill="white" transform="translate(202 261.3)"/>
</clipPath>
<clipPath id="clip4_73_10">
<rect width="78.0303" height="133.07" fill="white" transform="translate(264.007 195.114)"/>
</clipPath>
<clipPath id="clip5_73_10">
<rect width="78.0303" height="133.07" fill="white" transform="translate(330.193 195.114)"/>
</clipPath>
</defs>
</svg>
