<svg width="2308" height="259" viewBox="0 0 2308 259" fill="none" xmlns="http://www.w3.org/2000/svg">
<g clip-path="url(#clip0_71_195)">
<rect width="2308" height="259" fill="white"/>
<rect x="455" width="1791" height="259" fill="#6201FF"/>
<path fill-rule="evenodd" clip-rule="evenodd" d="M1689 131C1654.93 131 1629.7 120.767 1612.96 104.036C1596.23 87.305 1586 62.0687 1586 28C1586 62.0687 1575.77 87.305 1559.04 104.036C1542.31 120.767 1517.07 131 1483 131C1517.07 131 1542.31 141.233 1559.04 157.964C1575.77 174.695 1586 199.931 1586 234C1586 199.931 1596.23 174.695 1612.96 157.964C1629.7 141.233 1654.93 131 1689 131Z" fill="#F723FB"/>
<path d="M1378.94 167.399L1379.2 168H1379.86H1407.98H1408.65L1408.91 167.384L1428.62 120.036L1448.15 167.381L1448.4 168H1449.07H1477.2H1477.86L1478.12 167.399L1508.07 98.6635L1508.68 97.264H1507.15H1481.81H1481.13L1480.88 97.8973L1462.27 145.115L1443.38 97.8926L1443.13 97.264H1442.45H1414.7H1414.02L1413.77 97.8973L1395.12 145.231L1376.27 97.8942L1376.02 97.264H1375.34H1349.9H1348.38L1348.99 98.6635L1378.94 167.399ZM1510.93 167V168H1511.93H1585.37H1586.37V167V151.448V150.448H1585.37H1537.21V139.68H1580.57H1581.57V138.68V125.336V124.336H1580.57H1537.21V114.816H1584.41H1585.41V113.816V98.264V97.264H1584.41H1511.93H1510.93V98.264V167ZM1591.08 167V168H1592.08H1658.9H1659.9V167V148.664V147.664H1658.9H1618.14V98.264V97.264H1617.14H1592.08H1591.08V98.264V167ZM1758.8 141.775L1759.02 140.759L1758 140.576L1734.96 136.448L1734.03 136.282L1733.81 137.197C1731.95 144.892 1723.54 150.064 1711.36 150.064C1703.62 150.064 1697.42 148.294 1693.17 145.248C1688.96 142.224 1686.63 137.913 1686.63 132.632C1686.63 127.306 1688.74 122.989 1692.46 119.982C1696.21 116.958 1701.68 115.2 1708.48 115.2C1718.12 115.2 1725.47 119.583 1727.59 126.217L1727.87 127.077L1728.75 126.89L1751.5 122.09L1752.57 121.865L1752.25 120.82C1747.46 105.148 1730.01 95.536 1707.81 95.536C1693.21 95.536 1681.17 99.0749 1672.75 105.509C1664.3 111.965 1659.57 121.284 1659.57 132.632C1659.57 144.334 1664.6 153.661 1673.57 160.027C1682.49 166.367 1695.25 169.728 1710.69 169.728C1736.12 169.728 1755 159.073 1758.8 141.775ZM1870.08 167V168H1871.08H1894.7H1895.7V167V127.638L1916.27 167.459L1916.55 168H1917.16H1938.57H1939.19L1939.46 167.446L1959.27 127.756V167V168H1960.27H1983.88H1984.88V167V98.264V97.264H1983.88H1951.05H1950.43L1950.16 97.8139L1927.43 142.899L1904.42 97.8095L1904.14 97.264H1903.53H1871.08H1870.08V98.264V167ZM1992.52 167V168H1993.52H2066.96H2067.96V167V151.448V150.448H2066.96H2018.81V139.68H2062.16H2063.16V138.68V125.336V124.336H2062.16H2018.81V114.816H2066H2067V113.816V98.264V97.264H2066H1993.52H1992.52V98.264V167ZM1812.78 170.4C1828.05 170.4 1840.88 166.693 1849.91 160.104C1858.97 153.497 1864.18 144.013 1864.18 132.632C1864.18 121.251 1858.97 111.767 1849.91 105.16C1840.88 98.571 1828.05 94.864 1812.78 94.864C1797.56 94.864 1784.76 98.5713 1775.74 105.16C1766.69 111.767 1761.48 121.251 1761.48 132.632C1761.48 144.013 1766.69 153.497 1775.74 160.104C1784.76 166.693 1797.56 170.4 1812.78 170.4ZM1812.78 150.736C1805.41 150.736 1799.32 148.856 1795.11 145.67C1790.92 142.501 1788.54 138.015 1788.54 132.632C1788.54 127.25 1790.92 122.763 1795.11 119.594C1799.32 116.408 1805.41 114.528 1812.78 114.528C1820.16 114.528 1826.27 116.408 1830.51 119.595C1834.72 122.766 1837.13 127.253 1837.13 132.632C1837.13 138.011 1834.72 142.498 1830.51 145.669C1826.27 148.856 1820.16 150.736 1812.78 150.736ZM2083.56 169.056C2091.26 169.056 2097.14 164.238 2097.14 157.304C2097.14 150.269 2091.25 145.552 2083.56 145.552C2079.72 145.552 2076.35 146.717 2073.94 148.793C2071.51 150.879 2070.08 153.844 2070.08 157.304C2070.08 164.228 2075.86 169.056 2083.56 169.056Z" fill="#B5FD1D" stroke="black" stroke-width="2"/>
<path d="M1899.9 203H1901.9V187.856H1907.56V186.08H1894.24V187.856H1899.9V203Z" fill="#FCB8FF"/>
<path d="M1916.55 203.6C1922.07 203.6 1925.67 200 1925.67 194.552C1925.67 189.08 1922.07 185.48 1916.55 185.48C1911.05 185.48 1907.45 189.08 1907.45 194.552C1907.45 200 1911.05 203.6 1916.55 203.6ZM1916.55 201.824C1912.25 201.824 1909.44 198.92 1909.44 194.552C1909.44 190.16 1912.25 187.256 1916.55 187.256C1920.84 187.256 1923.65 190.16 1923.65 194.552C1923.65 198.92 1920.84 201.824 1916.55 201.824Z" fill="#FCB8FF"/>
<path d="M1934.49 203H1936.48V188.984H1936.53L1942.5 203H1944.61L1950.59 188.96H1950.64V203H1952.63V186.08H1949.75L1943.58 200.816H1943.56L1937.37 186.08H1934.49V203Z" fill="#FCB8FF"/>
<path d="M1954.31 203H1956.45L1958.01 198.944H1966.17L1967.7 203H1969.81L1963.29 186.08H1960.89L1954.31 203ZM1958.58 197.168L1962.06 188.048H1962.11L1965.57 197.168H1958.58Z" fill="#FCB8FF"/>
<path d="M1971.49 203H1973.49V196.544L1975.69 194.216L1981.17 203H1983.52L1976.99 192.8L1983.09 186.08H1980.64L1973.51 193.952H1973.49V186.08H1971.49V203Z" fill="#FCB8FF"/>
<path d="M1985.21 203H1997.01V201.224H1987.15V195.128H1995.81V193.4H1987.15V187.856H1996.77V186.08H1985.21V203Z" fill="#FCB8FF"/>
<path d="M2011.3 203.48C2012.47 203.48 2013.48 202.832 2014.18 201.872L2013.17 200.696C2012.79 201.368 2012.23 201.8 2011.68 201.8C2011.15 201.8 2010.82 201.392 2010.67 200.816L2009.83 197.768C2009.55 196.76 2008.97 195.944 2008.06 195.488V195.464C2010.89 195.08 2012.64 193.28 2012.64 190.928C2012.64 188.096 2010.15 186.08 2006.64 186.08H1999.06V203H2001.05V195.848H2005.32C2006.47 195.848 2007.46 196.712 2007.82 197.96L2008.85 201.512C2009.19 202.664 2009.95 203.48 2011.3 203.48ZM2001.05 194.072V187.856H2006.64C2008.99 187.856 2010.65 189.152 2010.65 190.976C2010.65 192.8 2008.99 194.072 2006.64 194.072H2001.05Z" fill="#FCB8FF"/>
<path d="M2015.01 194.984H2023.89V193.304H2015.01V194.984Z" fill="#FCB8FF"/>
<path d="M2026.53 203H2037.18V201.224H2028.52V186.08H2026.53V203Z" fill="#FCB8FF"/>
<path d="M2037.65 203H2039.79L2041.35 198.944H2049.51L2051.05 203H2053.16L2046.63 186.08H2044.23L2037.65 203ZM2041.93 197.168L2045.41 188.048H2045.45L2048.91 197.168H2041.93Z" fill="#FCB8FF"/>
<path d="M2054.84 203H2062.61C2066.29 203 2068.4 201.272 2068.4 198.272C2068.4 196.136 2067.25 194.696 2065.21 194.264V194.24C2066.89 193.784 2067.87 192.488 2067.87 190.64C2067.87 187.736 2065.95 186.08 2062.59 186.08H2054.84V203ZM2056.83 193.4V187.856H2062.35C2064.61 187.856 2065.9 188.888 2065.9 190.64C2065.9 192.392 2064.61 193.4 2062.35 193.4H2056.83ZM2056.83 201.224V195.176H2062.35C2064.92 195.176 2066.43 196.28 2066.43 198.176C2066.43 200.12 2064.92 201.224 2062.35 201.224H2056.83Z" fill="#FCB8FF"/>
<path d="M1357.8 80.6C1361.62 80.6 1364.09 78.344 1364.09 75.248C1364.09 72.944 1362.46 71.408 1359.19 70.688L1356.46 70.064C1354.32 69.584 1353.41 68.768 1353.41 67.328C1353.41 65.576 1354.87 64.256 1357.18 64.256C1359.34 64.256 1360.94 65.672 1361.18 67.736L1363.08 67.256C1362.6 64.424 1360.25 62.48 1357.15 62.48C1353.7 62.48 1351.42 64.616 1351.42 67.664C1351.42 69.92 1352.83 71.288 1355.83 71.984L1358.57 72.608C1361.04 73.184 1362.1 74.072 1362.1 75.56C1362.1 77.408 1360.46 78.824 1357.8 78.824C1354.85 78.824 1352.62 76.952 1352.45 74.312L1350.48 74.672C1350.86 78.152 1353.89 80.6 1357.8 80.6Z" fill="#FCB8FF"/>
<path d="M1369.71 80H1371.7V64.856H1377.36V63.08H1364.04V64.856H1369.71V80Z" fill="#FCB8FF"/>
<path d="M1391.29 80.48C1392.47 80.48 1393.47 79.832 1394.17 78.872L1393.16 77.696C1392.78 78.368 1392.23 78.8 1391.67 78.8C1391.15 78.8 1390.81 78.392 1390.67 77.816L1389.83 74.768C1389.54 73.76 1388.96 72.944 1388.05 72.488V72.464C1390.88 72.08 1392.63 70.28 1392.63 67.928C1392.63 65.096 1390.14 63.08 1386.63 63.08H1379.05V80H1381.04V72.848H1385.31C1386.47 72.848 1387.45 73.712 1387.81 74.96L1388.84 78.512C1389.18 79.664 1389.95 80.48 1391.29 80.48ZM1381.04 71.072V64.856H1386.63C1388.99 64.856 1390.64 66.152 1390.64 67.976C1390.64 69.8 1388.99 71.072 1386.63 71.072H1381.04Z" fill="#FCB8FF"/>
<path d="M1394.89 80H1397.02L1398.58 75.944H1406.74L1408.28 80H1410.39L1403.86 63.08H1401.46L1394.89 80ZM1399.16 74.168L1402.64 65.048H1402.69L1406.14 74.168H1399.16Z" fill="#FCB8FF"/>
<path d="M1412.07 80H1414.06V65.672H1414.11L1422.8 80H1425.46V63.08H1423.45V77.432H1423.4L1414.74 63.08H1412.07V80Z" fill="#FCB8FF"/>
<path d="M1436.55 80.6C1439.57 80.6 1442.07 79.136 1443.53 76.736H1443.55L1443.75 80H1445.43V70.664H1433.98V72.44H1443.39C1443.39 76.088 1440.43 78.824 1436.71 78.824C1432.66 78.824 1429.73 75.752 1429.73 71.552C1429.73 67.28 1432.51 64.256 1436.4 64.256C1438.92 64.256 1441.13 65.888 1441.92 68.192L1443.77 67.592C1442.76 64.616 1439.79 62.48 1436.43 62.48C1431.39 62.48 1427.74 66.296 1427.74 71.552C1427.74 76.784 1431.43 80.6 1436.55 80.6Z" fill="#FCB8FF"/>
<path d="M1447.82 80H1459.62V78.224H1449.76V72.128H1458.42V70.4H1449.76V64.856H1459.38V63.08H1447.82V80Z" fill="#FCB8FF"/>
<path d="M1473.91 80.48C1475.08 80.48 1476.09 79.832 1476.79 78.872L1475.78 77.696C1475.39 78.368 1474.84 78.8 1474.29 78.8C1473.76 78.8 1473.43 78.392 1473.28 77.816L1472.44 74.768C1472.15 73.76 1471.58 72.944 1470.67 72.488V72.464C1473.5 72.08 1475.25 70.28 1475.25 67.928C1475.25 65.096 1472.75 63.08 1469.25 63.08H1461.67V80H1463.66V72.848H1467.93C1469.08 72.848 1470.07 73.712 1470.43 74.96L1471.46 78.512C1471.79 79.664 1472.56 80.48 1473.91 80.48ZM1463.66 71.072V64.856H1469.25C1471.6 64.856 1473.26 66.152 1473.26 67.976C1473.26 69.8 1471.6 71.072 1469.25 71.072H1463.66Z" fill="#FCB8FF"/>
<path d="M1484.6 80.6C1488.41 80.6 1490.88 78.344 1490.88 75.248C1490.88 72.944 1489.25 71.408 1485.99 70.688L1483.25 70.064C1481.12 69.584 1480.2 68.768 1480.2 67.328C1480.2 65.576 1481.67 64.256 1483.97 64.256C1486.13 64.256 1487.74 65.672 1487.98 67.736L1489.88 67.256C1489.4 64.424 1487.04 62.48 1483.95 62.48C1480.49 62.48 1478.21 64.616 1478.21 67.664C1478.21 69.92 1479.63 71.288 1482.63 71.984L1485.36 72.608C1487.84 73.184 1488.89 74.072 1488.89 75.56C1488.89 77.408 1487.26 78.824 1484.6 78.824C1481.64 78.824 1479.41 76.952 1479.24 74.312L1477.28 74.672C1477.66 78.152 1480.68 80.6 1484.6 80.6Z" fill="#FCB8FF"/>
<path d="M772.359 130.706C787.548 130.706 798.521 124.353 800.716 114.362L786.855 111.878C785.642 116.903 780.214 120.079 772.764 120.079C763.292 120.079 757.286 115.748 757.286 108.991C757.286 102.234 762.657 97.9024 771.031 97.9024C776.979 97.9024 781.715 100.617 783.101 104.948L796.789 102.061C794.016 92.9934 783.852 87.2759 770.627 87.2759C753.243 87.2759 742.213 95.7078 742.213 108.991C742.213 122.678 753.936 130.706 772.359 130.706Z" fill="#FCB8FF"/>
<path d="M849.72 130.821C853.532 130.821 858.036 129.435 860.289 127.472L857.748 121.408C857.055 122.216 855.669 122.736 854.687 122.736C853.07 122.736 852.088 122.043 851.337 121.003L848.392 116.556C847.41 115.055 846.139 113.958 844.753 113.438V113.38C852.319 111.936 856.708 107.605 856.708 101.425C856.708 93.1089 850.355 88.3155 839.267 88.3155H804.5V129.666H819.573V115.921H828.409C831.124 115.921 833.665 117.076 835.397 119.502L837.996 123.833C840.364 127.241 843.483 130.821 849.72 130.821ZM819.573 107.432V97.2093H834.762C839.094 97.2093 841.635 99.1152 841.635 102.349C841.635 105.526 839.094 107.432 834.762 107.432H819.573Z" fill="#FCB8FF"/>
<path d="M863.155 129.666H907.335V120.31H877.766V112.629H904.448V104.602H877.766V97.6713H906.758V88.3155H863.155V129.666Z" fill="#FCB8FF"/>
<path d="M908.546 129.666H924.139L927.315 122.447H947.933L951.167 129.666H966.818L946.662 88.3155H929.163L908.546 129.666ZM930.261 113.958L937.653 97.6136H937.769L945.045 113.958H930.261Z" fill="#FCB8FF"/>
<path d="M978.023 129.666H993.096V98.9419H1009.21V88.3155H961.91V98.9419H978.023V129.666Z" fill="#FCB8FF"/>
<path d="M1012.61 129.666H1056.79V120.31H1027.22V112.629H1053.9V104.602H1027.22V97.6713H1056.21V88.3155H1012.61V129.666Z" fill="#FCB8FF"/>
<path d="M1060.83 129.666H1090.23C1106.28 129.666 1115.24 122.274 1115.24 108.991C1115.24 95.7078 1106.28 88.3155 1090.23 88.3155H1060.83V129.666ZM1075.5 119.444V98.4799H1088.15C1096.12 98.4799 1100.62 102.292 1100.62 108.991C1100.62 115.69 1096.12 119.444 1088.15 119.444H1075.5Z" fill="#FCB8FF"/>
<path d="M1133.42 129.666H1169.63C1179.56 129.666 1185.4 125.393 1185.4 118.289C1185.4 113.611 1182.45 109.973 1177.6 108.702V108.587C1181.76 107.143 1184.24 103.851 1184.24 99.6927C1184.24 92.5314 1178.35 88.3155 1168.47 88.3155H1133.42V129.666ZM1148.49 105.006V96.5741H1163.51C1167.03 96.5741 1169.17 98.1334 1169.17 100.79C1169.17 103.447 1167.03 105.006 1163.51 105.006H1148.49ZM1148.43 121.408V112.398H1164.32C1168.01 112.398 1170.32 114.131 1170.32 116.961C1170.32 119.675 1168.01 121.408 1164.32 121.408H1148.43Z" fill="#FCB8FF"/>
<path d="M1204.55 129.666H1219.62V115.575L1239.43 88.3155H1223.37L1212.17 105.757H1212.11L1200.33 88.3155H1184.45L1204.55 115.575V129.666Z" fill="#FCB8FF"/>
<path d="M743.194 191.666H757.401V165.735H757.517L770.915 191.666H783.794L796.731 165.735H796.846V191.666H811.053V150.315H791.302L777.153 178.383H777.037L762.715 150.315H743.194V191.666Z" fill="#FCB8FF"/>
<path d="M814.021 191.666H829.615L832.791 184.447H853.409L856.643 191.666H872.294L852.138 150.315H834.639L814.021 191.666ZM835.736 175.958L843.129 159.614H843.244L850.521 175.958H835.736Z" fill="#FCB8FF"/>
<path d="M875.224 191.666H890.297V181.155L896.535 175.9L908.836 191.666H927.144L906.93 167.179L927.028 150.315H908.085L890.413 165.447H890.297V150.315H875.224V191.666Z" fill="#FCB8FF"/>
<path d="M930.044 191.666H974.224V182.31H944.655V174.629H971.337V166.602H944.655V159.671H973.647V150.315H930.044V191.666Z" fill="#FCB8FF"/>
<path d="M1023.48 192.821C1027.3 192.821 1031.8 191.435 1034.05 189.472L1031.51 183.408C1030.82 184.216 1029.43 184.736 1028.45 184.736C1026.83 184.736 1025.85 184.043 1025.1 183.003L1022.16 178.556C1021.17 177.055 1019.9 175.958 1018.52 175.438V175.38C1026.08 173.936 1030.47 169.605 1030.47 163.425C1030.47 155.109 1024.12 150.315 1013.03 150.315H978.265V191.666H993.338V177.921H1002.17C1004.89 177.921 1007.43 179.076 1009.16 181.502L1011.76 185.833C1014.13 189.241 1017.25 192.821 1023.48 192.821ZM993.338 169.432V159.209H1008.53C1012.86 159.209 1015.4 161.115 1015.4 164.349C1015.4 167.526 1012.86 169.432 1008.53 169.432H993.338Z" fill="#FCB8FF"/>
<path d="M1036.92 191.666H1077.12V180.635H1051.99V150.315H1036.92V191.666Z" fill="#FCB8FF"/>
<path d="M1078.08 191.666H1093.67L1096.85 184.447H1117.47L1120.7 191.666H1136.35L1116.2 150.315H1098.7L1078.08 191.666ZM1099.8 175.958L1107.19 159.614H1107.3L1114.58 175.958H1099.8Z" fill="#FCB8FF"/>
<path d="M1139.28 191.666H1175.49C1185.43 191.666 1191.26 187.393 1191.26 180.289C1191.26 175.611 1188.32 171.973 1183.46 170.702V170.587C1187.62 169.143 1190.11 165.851 1190.11 161.693C1190.11 154.531 1184.21 150.315 1174.34 150.315H1139.28V191.666ZM1154.36 167.006V158.574H1169.37C1172.9 158.574 1175.03 160.133 1175.03 162.79C1175.03 165.447 1172.9 167.006 1169.37 167.006H1154.36ZM1154.3 183.408V174.398H1170.18C1173.88 174.398 1176.19 176.131 1176.19 178.961C1176.19 181.675 1173.88 183.408 1170.18 183.408H1154.3Z" fill="#FCB8FF"/>
<path d="M1270.33 204.06C1269.67 206.532 1267.36 208.742 1263 210.532C1258.68 212.31 1252.59 213.565 1244.88 214.277C1229.46 215.698 1207.83 214.928 1181.52 212.106C1128.92 206.464 1057.83 192.647 980.712 171.984C903.598 151.322 835.119 127.74 786.746 106.327C762.551 95.6161 743.437 85.4701 730.793 76.5285C724.466 72.0535 719.821 67.9231 716.966 64.2219C714.092 60.4956 713.193 57.4244 713.856 54.9521C714.518 52.4797 716.832 50.2692 721.184 48.4793C725.507 46.7015 731.595 45.4467 739.312 44.7351C754.733 43.3132 776.359 44.0838 802.668 46.9059C855.267 52.5479 926.363 66.3648 1003.48 87.0273C1080.59 107.69 1149.07 131.272 1197.44 152.685C1221.64 163.396 1240.75 173.542 1253.39 182.483C1259.72 186.958 1264.37 191.089 1267.22 194.79C1270.1 198.516 1270.99 201.587 1270.33 204.06Z" stroke="#B5FD1D" stroke-width="2.40635"/>
<path d="M1012.61 129.666H1056.79V120.31H1027.22V112.629H1053.9V104.602H1027.22V97.6714H1056.21V88.3155H1012.61V129.666Z" fill="#FCB8FF"/>
<path d="M1060.83 129.666H1090.23C1106.28 129.666 1115.24 122.274 1115.24 108.991C1115.24 95.7078 1106.28 88.3155 1090.23 88.3155H1060.83V129.666ZM1075.5 119.444V98.4799H1088.15C1096.12 98.4799 1100.62 102.292 1100.62 108.991C1100.62 115.69 1096.12 119.444 1088.15 119.444H1075.5Z" fill="#FCB8FF"/>
<path d="M1133.42 129.666H1169.63C1179.56 129.666 1185.4 125.393 1185.4 118.289C1185.4 113.611 1182.45 109.973 1177.6 108.702V108.587C1181.76 107.143 1184.24 103.851 1184.24 99.6927C1184.24 92.5314 1178.35 88.3155 1168.47 88.3155H1133.42V129.666ZM1148.49 105.006V96.5741H1163.51C1167.03 96.5741 1169.17 98.1334 1169.17 100.79C1169.17 103.447 1167.03 105.006 1163.51 105.006H1148.49ZM1148.43 121.408V112.398H1164.32C1168.01 112.398 1170.32 114.131 1170.32 116.961C1170.32 119.675 1168.01 121.408 1164.32 121.408H1148.43Z" fill="#FCB8FF"/>
<path d="M1204.55 129.666H1219.62V115.575L1239.43 88.3155H1223.37L1212.17 105.757H1212.11L1200.33 88.3155H1184.45L1204.55 115.575V129.666Z" fill="#FCB8FF"/>
<path fill-rule="evenodd" clip-rule="evenodd" d="M1250.45 170.295C1237.72 170.295 1228.28 166.47 1222.03 160.216C1215.78 153.962 1211.95 144.528 1211.95 131.793C1211.95 144.528 1208.13 153.962 1201.87 160.216C1195.62 166.47 1186.19 170.295 1173.45 170.295C1186.19 170.295 1195.62 174.12 1201.87 180.374C1208.13 186.628 1211.95 196.062 1211.95 208.797C1211.95 196.062 1215.78 186.628 1222.03 180.374C1228.28 174.12 1237.72 170.295 1250.45 170.295Z" fill="#F723FB"/>
<path d="M2157 113L2159.86 119.327L2165.5 115.278L2164.81 122.186L2171.72 121.5L2167.67 127.14L2174 130L2167.67 132.86L2171.72 138.5L2164.81 137.814L2165.5 144.722L2159.86 140.673L2157 147L2154.14 140.673L2148.5 144.722L2149.19 137.814L2142.28 138.5L2146.33 132.86L2140 130L2146.33 127.14L2142.28 121.5L2149.19 122.186L2148.5 115.278L2154.14 119.327L2157 113Z" fill="#FCB8FF"/>
<path d="M616 94L622.056 107.397L634 98.8231L632.546 113.454L647.177 112L638.603 123.944L652 130L638.603 136.056L647.177 148L632.546 146.546L634 161.177L622.056 152.603L616 166L609.944 152.603L598 161.177L599.454 146.546L584.823 148L593.397 136.056L580 130L593.397 123.944L584.823 112L599.454 113.454L598 98.8231L609.944 107.397L616 94Z" fill="#FCB8FF"/>
<g clip-path="url(#clip1_71_195)">
<rect x="25" width="259" height="259" fill="white"/>
<g clip-path="url(#clip2_71_195)">
<path d="M152.539 30.5042L155.148 30.3582L154.435 17.6237L151.48 17.7891L148.73 23.9275L148.694 23.9296L145.24 18.1383L142.303 18.3026L143.015 31.0371L145.624 30.8911L145.15 22.4076L145.204 22.4045L146.284 24.3573L148.961 28.7096L151.19 24.0644L152.017 22.1514L152.071 22.1483L152.539 30.5042Z" fill="black"/>
<path d="M167.754 31.2477L164.561 18.2214L161.135 17.9673L156 30.376L158.807 30.5841L159.942 27.6267L164.188 27.9416L164.875 31.0342L167.754 31.2477ZM163.688 25.5409L160.772 25.3246L162.534 20.5997L162.625 20.6064L163.688 25.5409Z" fill="black"/>
<path d="M176.682 33.0207L179.889 33.6657L176.784 25.3806L182.028 21.086L178.946 20.4663L175.424 23.4297L173.164 25.4913L173.057 25.4697L174.253 19.5223L171.53 18.9746L169.015 31.4786L171.738 32.0263L172.437 28.5509L174.463 26.9083L176.682 33.0207Z" fill="black"/>
<path d="M189.101 36.7089L189.862 34.3625L184.248 32.5407L185.1 29.9162L189.914 31.4786L190.67 29.1496L185.856 27.5872L186.662 25.1018L192.276 26.9236L193.037 24.5773L184.782 21.8981L180.845 34.0297L189.101 36.7089Z" fill="black"/>
<path d="M195.172 34.2021L196.987 35.0217L197.094 40.2025L199.909 41.4732L199.688 35.8798C201.344 35.986 202.607 35.0527 203.314 33.4873C204.314 31.2723 203.625 29.1568 201.477 28.1869L195.964 25.6981L190.716 37.3227L193.247 38.4656L195.172 34.2021ZM196.135 32.0704L197.503 29.0393L200.168 30.2424C200.917 30.5807 201.203 31.1909 200.865 31.9404L200.534 32.6732C200.195 33.4226 199.549 33.6118 198.799 33.2734L196.135 32.0704Z" fill="black"/>
<path d="M211.539 48.6305L212.877 46.5583L208.794 43.9212L214.376 35.2794L212.043 33.7725L205.123 44.4864L211.539 48.6305Z" fill="black"/>
<path d="M221.121 56.2286L225.901 43.6976L223.227 41.5405L211.948 48.8281L214.138 50.595L216.754 48.808L220.067 51.4813L218.874 54.4158L221.121 56.2286ZM221.021 49.2223L218.746 47.3864L222.881 44.5013L222.952 44.5586L221.021 49.2223Z" fill="black"/>
<path d="M221.889 57.0518L226.621 61.881C227.938 63.2253 230.084 63.0921 231.52 61.6854C233.086 60.1508 232.497 58.4004 231.653 57.539L231.731 57.4622C232.678 58.3506 233.955 58.6091 235.351 57.2407C236.761 55.8596 236.805 54.051 235.334 52.55L230.999 48.1255L221.889 57.0518ZM227.592 55.3526L229.83 57.6367C230.341 58.1588 230.361 58.7792 229.839 59.2907L229.395 59.7255C228.873 60.2371 228.253 60.2049 227.741 59.6828L225.503 57.3987L227.592 55.3526ZM231.272 51.7463L233.203 53.7171C233.715 54.2392 233.709 54.8593 233.187 55.3709L232.795 55.7545C232.273 56.2661 231.653 56.2597 231.141 55.7377L229.21 53.7668L231.272 51.7463Z" fill="black"/>
<path d="M245.881 86.0944L243.067 80.7612L245.824 81.9924C247.953 82.9349 249.866 83.7024 251.806 82.6791C253.761 81.6474 254.458 79.4825 253.17 77.0421C251.934 74.6987 249.934 74.0803 248.102 74.4064L248.411 76.9499C249.387 76.7242 250.387 76.8577 250.95 77.9243C251.334 78.6516 251.298 79.6414 250.441 80.0933L250.215 80.2127C249.262 80.7158 248.401 80.612 246.653 79.9227L241.846 78.0169L239.632 79.1851L243.844 87.1688L245.881 86.0944Z" fill="black"/>
<path d="M245.833 92.5764C247.082 95.678 249.924 96.2275 253.788 94.6707C257.652 93.1139 259.319 90.7481 258.07 87.6464C256.82 84.5447 253.979 83.9953 250.115 85.5521C246.25 87.1089 244.583 89.4747 245.833 92.5764ZM247.985 91.7092C247.439 90.3533 248.312 89.4892 250.109 88.7655L252.346 87.8641C254.143 87.1404 255.371 87.1577 255.917 88.5136C256.464 89.8695 255.59 90.7336 253.794 91.4573L251.556 92.3587C249.76 93.0824 248.531 93.0651 247.985 91.7092Z" fill="black"/>
<path d="M252.815 106.047L251.174 100.245L253.614 102.023C255.5 103.389 257.212 104.538 259.322 103.941C261.449 103.34 262.582 101.367 261.831 98.7121C261.11 96.1626 259.283 95.1411 257.423 95.0784L257.195 97.6305C258.197 97.6131 259.147 97.9519 259.475 99.1124C259.699 99.9037 259.458 100.864 258.526 101.128L258.28 101.198C257.242 101.491 256.422 101.21 254.857 100.172L250.552 97.3064L248.143 97.9877L250.6 106.674L252.815 106.047Z" fill="black"/>
<path d="M252.556 117.762L254.737 117.393L254.285 114.726L264.681 112.967L263.98 108.823L259.507 106.485L258.448 108.444L262.232 110.435L262.26 110.597L253.828 112.024L253.255 108.637L251.075 109.006L252.556 117.762Z" fill="black"/>
<path d="M260.398 131.778L257.398 133.69L258.619 135.616L261.462 133.372L262.397 136.736L264.495 136.066L263.227 132.86L266.695 133.096L266.743 130.74L263.269 130.832L264.668 127.681L262.6 126.925L261.526 130.248L258.779 127.87L257.461 129.743L260.398 131.778Z" fill="black"/>
<path d="M250.635 151.403L250.139 153.969L262.661 156.39L263.223 153.483L257.943 149.317L257.95 149.281L264.41 147.348L264.968 144.459L252.446 142.038L251.949 144.604L260.292 146.217L260.281 146.27L258.124 146.84L253.249 148.372L257.209 151.669L258.862 152.938L258.852 152.992L250.635 151.403Z" fill="black"/>
<path d="M247.703 160.655C246.624 163.859 248.06 166.694 252.164 168.077C256.268 169.459 259.127 168.07 260.206 164.866C261.285 161.662 259.849 158.826 255.745 157.444C251.641 156.062 248.782 157.451 247.703 160.655ZM250.041 161.442C250.572 159.866 251.983 159.281 253.906 159.929L255.706 160.535C257.629 161.183 258.399 162.503 257.868 164.079C257.337 165.654 255.926 166.239 254.003 165.592L252.202 164.985C250.28 164.338 249.51 163.018 250.041 161.442Z" fill="black"/>
<path d="M251.026 179.754L253.259 180.802L257.373 172.034L255.14 170.987L253.673 174.113L244.36 169.743L243.18 172.258L252.493 176.628L251.026 179.754Z" fill="black"/>
<path d="M238.152 181.417L240.064 182.528L240.89 181.105L248.095 185.291L247.269 186.713L249.181 187.823L252.228 182.577L250.316 181.467L249.49 182.889L242.285 178.704L243.111 177.282L241.199 176.171L238.152 181.417Z" fill="black"/>
<path d="M234.052 187.008C232.066 189.744 232.59 192.879 236.094 195.423C239.599 197.968 242.742 197.495 244.728 194.759C246.714 192.024 246.19 188.889 242.686 186.344C239.181 183.8 236.038 184.273 234.052 187.008ZM236.048 188.458C237.025 187.112 238.547 186.975 240.188 188.167L241.726 189.283C243.368 190.475 243.709 191.964 242.732 193.31C241.755 194.656 240.233 194.792 238.591 193.601L237.054 192.484C235.412 191.293 235.071 189.803 236.048 188.458Z" fill="black"/>
<path d="M224.932 198.183L222.86 200.399L232.177 209.109L233.962 207.2L227.688 201.335L227.726 201.295L230.43 202.148L237.219 203.716L239.29 201.5L229.973 192.79L228.189 194.699L234.462 200.564L234.425 200.604L231.72 199.751L224.932 198.183Z" fill="black"/>
<path d="M218.247 204.536L214.432 207.459C211.748 209.515 211.279 212.568 213.857 215.933C216.435 219.298 219.505 219.64 222.188 217.584L226.003 214.661L218.247 204.536ZM217.542 208.184L222.298 214.392L220.688 215.625C219.383 216.626 218.026 216.537 216.792 214.927L215.592 213.36C214.359 211.75 214.626 210.417 215.932 209.417L217.542 208.184Z" fill="black"/>
<path d="M201.104 216.183L202.369 218.301L207.437 215.276L208.851 217.645L204.505 220.239L205.76 222.342L210.106 219.747L211.445 221.991L206.378 225.016L207.642 227.135L215.095 222.686L208.557 211.734L201.104 216.183Z" fill="black"/>
<path d="M195.587 218.559C192.695 219.88 191.773 222.17 192.791 224.397C193.702 226.392 195.335 226.931 197.886 226.227L199.116 225.886C200.149 225.595 200.701 225.704 201.066 226.502C201.385 227.2 201.034 227.883 199.903 228.399C198.707 228.946 197.754 228.839 196.909 228.442L196.005 230.904C197.431 231.518 199.027 231.492 200.772 230.695C203.497 229.449 204.465 227.259 203.516 225.181C202.627 223.237 200.967 222.549 198.379 223.35L197.164 223.725C196.016 224.069 195.537 223.725 195.248 223.093C194.861 222.246 195.209 221.424 196.439 220.862C197.569 220.345 198.771 220.338 199.955 220.862L200.849 218.424C199.351 217.783 197.615 217.632 195.587 218.559Z" fill="black"/>
<path d="M184.379 223.167L185.11 225.253L186.662 224.709L189.418 232.573L187.866 233.117L188.597 235.203L194.322 233.197L193.591 231.11L192.039 231.654L189.283 223.791L190.835 223.247L190.104 221.16L184.379 223.167Z" fill="black"/>
<path d="M174.925 225.649L172.651 226.198L174.321 233.107L179.205 231.927L178.66 229.671L176.351 230.229L176.201 229.608C175.909 228.4 176.838 227.499 178.188 227.173C179.857 226.769 181.173 227.466 181.67 229.527L182.151 231.516C182.649 233.576 181.797 234.797 180.128 235.201C178.689 235.548 177.736 234.951 177.132 234.082L175.234 235.876C176.617 237.553 178.505 238.131 180.707 237.599C184.064 236.787 185.766 233.951 184.758 229.777C183.753 225.621 180.983 223.959 178.141 224.646C176.276 225.097 175.367 226.313 175.49 227.599L175.401 227.62L174.925 225.649Z" fill="black"/>
<path d="M162.655 227.438L159.639 227.759L160.987 240.442L163.586 240.166L162.678 231.626L162.732 231.62L164.22 234.034L168.328 239.661L171.344 239.341L169.996 226.658L167.397 226.934L168.306 235.474L168.251 235.48L166.763 233.066L162.655 227.438Z" fill="black"/>
<path d="M149.07 234.958L147.251 231.901L145.288 233.063L147.445 235.973L144.054 236.805L144.659 238.922L147.902 237.753L147.56 241.212L149.914 241.332L149.928 237.857L153.035 239.352L153.853 237.308L150.565 236.133L153.026 233.46L151.194 232.085L149.07 234.958Z" fill="black"/>
<path d="M124.111 223.151L124.915 236.539L128.239 237.404L135.517 226.118L132.794 225.41L131.146 228.115L127.026 227.043L126.905 223.878L124.111 223.151ZM127.087 229.495L129.916 230.231L127.336 234.563L127.247 234.54L127.087 229.495Z" fill="black"/>
<path d="M112.384 218.398L111.418 220.668L115.891 222.57L111.865 232.037L114.421 233.124L119.412 221.387L112.384 218.398Z" fill="black"/>
<path d="M105.572 214.808L104.532 216.759L105.983 217.532L102.063 224.885L100.612 224.112L99.5717 226.063L104.925 228.917L105.965 226.966L104.514 226.192L108.434 218.839L109.885 219.613L110.925 217.662L105.572 214.808Z" fill="black"/>
<path d="M91.241 217.898L89.8951 219.966L98.0112 225.25L99.3571 223.182L96.4629 221.298L102.076 212.677L99.7482 211.161L94.1353 219.783L91.241 217.898Z" fill="black"/>
<path d="M82.5429 211.008L80.9939 212.928L88.5312 219.009L90.0802 217.089L87.3924 214.921L93.8521 206.914L91.6904 205.17L85.2307 213.177L82.5429 211.008Z" fill="black"/>
<path d="M82.4404 196.59L80.7103 198.348L84.1749 201.757L76.9596 209.09L78.9395 211.038L87.8849 201.947L82.4404 196.59Z" fill="black"/>
<path d="M75.9474 188.936L74.0518 190.515L77.8286 195.05L75.7083 196.816L72.4693 192.927L70.5877 194.493L73.8267 198.383L71.8187 200.055L68.0419 195.52L66.1463 197.098L71.7004 203.768L81.5016 195.606L75.9474 188.936Z" fill="black"/>
<path d="M70.8173 181.394L66.8635 183.754L65.1963 180.961C63.9787 178.921 61.7829 178.487 59.7119 179.724C57.6408 180.96 56.9811 183.099 58.1987 185.138L61.2896 190.316L72.241 183.778L70.8173 181.394ZM61.9369 186.695L60.4383 184.184C60.0168 183.478 60.1311 182.814 60.8372 182.393L61.5275 181.981C62.2336 181.559 62.8724 181.774 63.2939 182.48L64.7925 184.99L61.9369 186.695Z" fill="black"/>
<path d="M61.1438 173.445L60.3297 171.627L63.6878 167.68L62.4255 164.862L58.8793 169.193C57.7108 168.015 56.1464 167.874 54.5788 168.576C52.3608 169.57 51.4723 171.609 52.4358 173.761L54.908 179.281L66.5483 174.068L65.4131 171.533L61.1438 173.445ZM59.0092 174.401L55.974 175.76L54.779 173.092C54.4429 172.341 54.634 171.695 55.3845 171.359L56.1183 171.03C56.8687 170.694 57.4781 170.982 57.8142 171.732L59.0092 174.401Z" fill="black"/>
<path d="M60.5154 158.279C59.5206 155.049 56.6991 153.585 52.5602 154.859C48.4213 156.134 46.9118 158.931 47.9066 162.162C48.9014 165.392 51.7229 166.856 55.8618 165.582C60.0007 164.307 61.5102 161.51 60.5154 158.279ZM58.1578 159.005C58.6471 160.594 57.8426 161.894 55.9042 162.491L54.0879 163.05C52.1495 163.647 50.7535 163.025 50.2642 161.436C49.7749 159.847 50.5793 158.547 52.5178 157.95L54.334 157.391C56.2725 156.794 57.6685 157.416 58.1578 159.005Z" fill="black"/>
<path d="M56.8595 143.186L56.4603 140.881L49.4565 142.095L50.314 147.046L52.6006 146.65L52.1952 144.309L52.8254 144.2C54.0497 143.988 54.8881 144.974 55.1251 146.342C55.4182 148.035 54.6362 149.301 52.5477 149.663L50.5311 150.012C48.4426 150.374 47.2801 149.444 46.987 147.752C46.7344 146.293 47.3925 145.382 48.2993 144.836L46.6342 142.824C44.8699 144.094 44.1696 145.94 44.5563 148.173C45.1457 151.576 47.8644 153.46 52.0955 152.727C56.3086 151.998 58.1483 149.342 57.6493 146.462C57.3219 144.571 56.168 143.584 54.8765 143.622L54.8609 143.532L56.8595 143.186Z" fill="black"/>
<path d="M51.4568 136.633L51.3531 134.644L55.9086 132.174L55.7479 129.09L50.8782 131.851C50.2134 130.33 48.8049 129.635 47.0896 129.724C44.6626 129.851 43.0982 131.433 43.2209 133.787L43.5356 139.827L56.2728 139.163L56.1283 136.389L51.4568 136.633ZM49.121 136.755L45.7999 136.928L45.6477 134.008C45.6049 133.187 46.0163 132.653 46.8374 132.61L47.6403 132.568C48.4615 132.526 48.9261 133.014 48.9689 133.835L49.121 136.755Z" fill="black"/>
<path d="M56.3496 118.45L53.8876 118.296L53.5182 124.186L50.7644 124.013L51.0812 118.962L48.6374 118.809L48.3206 123.86L45.7127 123.697L46.0822 117.806L43.6202 117.652L43.0769 126.314L55.8063 127.113L56.3496 118.45Z" fill="black"/>
<path d="M57.4038 113.102C57.937 109.967 56.562 107.917 54.1481 107.506C51.9864 107.139 50.6221 108.185 49.7696 110.691L49.36 111.9C49.0202 112.918 48.6193 113.313 47.7546 113.166C46.998 113.037 46.6308 112.363 46.8391 111.138C47.0598 109.841 47.684 109.113 48.4877 108.638L46.9597 106.506C45.6502 107.34 44.7746 108.674 44.4528 110.565C43.9503 113.519 45.2173 115.551 47.469 115.934C49.5767 116.293 51.079 115.307 51.8717 112.717L52.2452 111.501C52.6065 110.358 53.1599 110.156 53.8445 110.272C54.7632 110.428 55.2473 111.178 55.0206 112.511C54.8122 113.736 54.142 114.734 53.0433 115.418L54.5563 117.529C55.929 116.651 57.03 115.299 57.4038 113.102Z" fill="black"/>
<path d="M59.671 102.848C60.5398 99.7897 59.3944 97.6028 57.039 96.9337C54.9297 96.3346 53.4603 97.2279 52.342 99.6266L51.8041 100.785C51.3563 101.759 50.9151 102.109 50.0714 101.869C49.3331 101.659 49.0409 100.949 49.3804 99.7542C49.7399 98.4886 50.4392 97.8324 51.2895 97.4471L50.0009 95.1625C48.6089 95.8498 47.5942 97.0813 47.07 98.9269C46.2511 101.81 47.2911 103.967 49.4883 104.591C51.5448 105.175 53.1449 104.357 54.2128 101.868L54.7156 100.7C55.1983 99.6022 55.7703 99.4607 56.4383 99.6505C57.3347 99.9051 57.735 100.703 57.3656 102.003C57.0261 103.199 56.2519 104.118 55.0856 104.68L56.3616 106.942C57.8213 106.217 59.0619 104.993 59.671 102.848Z" fill="black"/>
<path d="M66.7318 83.9901L64.491 82.9587L62.023 88.32L59.5166 87.1663L61.6331 82.5685L59.4089 81.5446L57.2924 86.1424L54.9188 85.0498L57.3867 79.6885L55.1459 78.657L51.5166 86.5414L63.1025 91.8745L66.7318 83.9901Z" fill="black"/>
<path d="M70.6417 77.2675L61.8424 67.1456L60.4408 69.4798L64.7105 74.2602L67.6427 77.1505L67.6145 77.1975L63.6663 75.9991L57.4401 74.4771L55.9915 76.8896L69.0425 79.9306L70.6417 77.2675Z" fill="black"/>
<path d="M78.6236 66.0336L76.6594 64.5412L73.0886 69.2405L70.8917 67.5712L73.954 63.5411L72.0044 62.0597L68.9421 66.0898L66.8616 64.5088L70.4324 59.8095L68.4683 58.317L63.217 65.2278L73.3723 72.9444L78.6236 66.0336Z" fill="black"/>
<path d="M78.4356 59.2519L79.8116 57.8119L84.7337 59.4319L86.8672 57.1992L81.5179 55.5502C82.1682 54.0233 81.7076 52.5216 80.4658 51.3349C78.7087 49.6559 76.4845 49.6031 74.856 51.3073L70.6775 55.6801L79.8987 64.4917L81.8176 62.4836L78.4356 59.2519ZM76.7446 57.636L74.3402 55.3384L76.36 53.2247C76.9281 52.6302 77.5987 52.5632 78.1931 53.1313L78.7744 53.6868C79.3689 54.2549 79.3325 54.9278 78.7644 55.5222L76.7446 57.636Z" fill="black"/>
<path d="M92.3362 52.5846L89.1323 48.7372L87.5305 39.9889L85.2136 41.9182L86.4422 47.5056L86.4142 47.529L81.0573 45.3793L78.6702 47.3671L86.9957 50.5402L90.1878 54.3736L92.3362 52.5846Z" fill="black"/>
<path d="M96.529 49.1997L100.56 46.5837C103.396 44.7435 104.102 41.7365 101.794 38.1804C99.4868 34.6243 96.4529 34.0444 93.6172 35.8846L89.5859 38.5007L96.529 49.1997ZM97.516 45.6185L93.2587 39.0581L94.9601 37.9539C96.3396 37.0587 97.6854 37.2527 98.7895 38.9542L99.8638 40.6096C100.968 42.311 100.597 43.6191 99.2174 44.5144L97.516 45.6185Z" fill="black"/>
<path d="M116.639 37.905L107.342 28.2379L104.251 29.7366L106.034 43.0468L108.566 41.8192L108.064 38.6912L111.895 36.8337L114.041 39.1646L116.639 37.905ZM110.259 35.0077L107.628 36.2831L106.782 31.3121L106.864 31.2723L110.259 35.0077Z" fill="black"/>
<path d="M123.338 35.5876L121.701 30.8563L123.293 22.1063L120.444 23.0925L119.619 28.7536L119.585 28.7656L115.333 24.8618L112.397 25.8779L119.065 31.7881L120.696 36.5021L123.338 35.5876Z" fill="black"/>
<path d="M130.091 33.8296C131.153 33.5598 131.496 32.8317 131.29 32.017L131.2 31.6628C130.993 30.8481 130.344 30.3719 129.281 30.6417C128.219 30.9115 127.876 31.6396 128.083 32.4543L128.172 32.8085C128.379 33.6232 129.028 34.0994 130.091 33.8296Z" fill="black"/>
<path d="M235.921 69.6873C235.591 69.231 235.358 68.7429 235.224 68.223C235.096 67.7104 235.071 67.1955 235.15 66.6783C235.234 66.1685 235.425 65.6762 235.725 65.2012C236.024 64.7263 236.44 64.296 236.973 63.9101C237.498 63.5293 238.034 63.2707 238.578 63.1342C239.13 62.9928 239.661 62.9615 240.171 63.0404C240.687 63.1266 241.169 63.3108 241.616 63.5929C242.068 63.8823 242.459 64.2552 242.79 64.7114C243.12 65.1676 243.35 65.6521 243.479 66.1647C243.613 66.6846 243.638 67.1995 243.554 67.7093C243.475 68.2265 243.282 68.725 242.976 69.205C242.677 69.6799 242.264 70.1077 241.738 70.4886C241.206 70.8744 240.667 71.1356 240.123 71.272C239.578 71.4084 239.048 71.4335 238.532 71.3473C238.021 71.2684 237.54 71.0842 237.087 70.7948C236.64 70.5127 236.252 70.1435 235.921 69.6873ZM236.336 69.3866C236.624 69.784 236.96 70.1018 237.343 70.3401C237.739 70.5807 238.15 70.7322 238.574 70.7946C239.005 70.8644 239.436 70.849 239.87 70.7483C240.31 70.6425 240.724 70.4494 241.111 70.1688L241.63 69.7929C242.017 69.5123 242.326 69.1818 242.557 68.8015C242.795 68.4162 242.947 68.0082 243.015 67.5776C243.088 67.1544 243.069 66.7198 242.957 66.2737C242.857 65.83 242.663 65.4094 242.375 65.0121C242.087 64.6147 241.745 64.2957 241.349 64.0551C240.966 63.8168 240.559 63.6628 240.129 63.593C239.704 63.5306 239.271 63.5522 238.831 63.6579C238.398 63.7587 237.987 63.9493 237.6 64.2299L237.081 64.6058C236.694 64.8864 236.381 65.2193 236.144 65.6047C235.913 65.985 235.761 66.3868 235.688 66.81C235.62 67.2406 235.636 67.6778 235.736 68.1215C235.848 68.5675 236.048 68.9893 236.336 69.3866ZM237.605 68.5178C237.248 68.0247 237.124 67.5257 237.233 67.0206C237.341 66.5154 237.676 66.06 238.236 65.6541C238.796 65.2482 239.333 65.0723 239.847 65.1264C240.366 65.1879 240.805 65.4652 241.162 65.9582C241.402 66.2893 241.527 66.608 241.538 66.9143C241.554 67.2279 241.486 67.5189 241.332 67.7873L240.821 67.5182C240.928 67.3169 240.979 67.1114 240.975 66.9014C240.97 66.6914 240.891 66.4798 240.736 66.2664C240.502 65.9426 240.218 65.7614 239.884 65.7227C239.562 65.6864 239.225 65.7961 238.872 66.0516L238.426 66.3748C238.066 66.6354 237.85 66.9266 237.778 67.2486C237.717 67.5728 237.804 67.8969 238.039 68.2206C238.209 68.4561 238.4 68.6098 238.61 68.6818C238.821 68.7538 239.047 68.775 239.289 68.7454L239.349 69.3081C239.047 69.3581 238.741 69.3217 238.431 69.1988C238.126 69.0833 237.851 68.8562 237.605 68.5178Z" fill="black"/>
</g>
<path d="M154.495 152.279L181.266 192.484L207.046 175.36L175.813 137.388L221.176 123.738L211.508 95.4455L168.376 113.563L170.607 66.4083H138.63L140.861 113.563L97.7293 95.4455L88.0618 123.738L133.425 137.388L101.943 175.36L127.723 192.732L154.495 152.279Z" fill="#B5FD1D"/>
<path d="M179.018 127.428L180.65 126.815L177.661 118.851L175.812 119.545L175.284 124L175.261 124.008L171.91 121.009L170.073 121.699L173.062 129.663L174.694 129.051L172.702 123.745L172.736 123.732L173.812 124.76L176.383 126.998L176.877 123.597L177.022 122.215L177.057 122.202L179.018 127.428Z" fill="black"/>
<path d="M189.349 123.551L183.769 116.558L181.624 117.363L181.989 126.313L183.746 125.653L183.606 123.545L186.264 122.547L187.546 124.227L189.349 123.551ZM185.29 121.234L183.464 121.919L183.208 118.565L183.265 118.544L185.29 121.234Z" fill="black"/>
<path d="M195.562 121.218L197.605 120.452L192.924 116.858L194.376 112.577L192.413 113.314L191.466 116.234L190.914 118.198L190.846 118.224L189.424 114.436L187.689 115.087L190.679 123.051L192.413 122.4L191.582 120.187L192.15 118.542L195.562 121.218Z" fill="black"/>
<path d="M204.272 117.949L203.694 116.409L200.008 117.792L199.362 116.069L202.522 114.883L201.948 113.354L198.788 114.54L198.175 112.909L201.861 111.525L201.283 109.985L195.863 112.019L198.852 119.984L204.272 117.949Z" fill="black"/>
<path d="M206.649 113.725L207.893 113.258L210.382 115.656L212.31 114.933L209.573 112.393C210.406 111.664 210.564 110.628 210.162 109.555C209.592 108.038 208.271 107.362 206.799 107.914L203.022 109.332L206.011 117.297L207.746 116.646L206.649 113.725ZM206.101 112.264L205.322 110.187L207.147 109.502C207.661 109.309 208.083 109.463 208.276 109.977L208.464 110.479C208.657 110.992 208.44 111.386 207.927 111.579L206.101 112.264Z" fill="black"/>
</g>
<path d="M322 237.192L322 241L401.959 241L401.959 237.192L322 237.192Z" fill="black"/>
<path d="M322 233.385L322 235.289L401.959 235.289L401.959 233.385L322 233.385Z" fill="black"/>
<path d="M322 228.308L322 230.212L401.959 230.212L401.959 228.308L322 228.308Z" fill="black"/>
<path d="M322 218.789L322 220.693L401.959 220.693L401.959 218.789L322 218.789Z" fill="black"/>
<path d="M322 211.649L322 217.519L402.225 217.519L402.225 211.649L322 211.649Z" fill="black"/>
<path d="M322 205.779L322 209.693L402.225 209.693L402.225 205.779L322 205.779Z" fill="black"/>
<path d="M322 198.931L322 200.888L402.225 200.888L402.225 198.931L322 198.931Z" fill="black"/>
<path d="M322 195.017L322 196.974L402.225 196.974L402.225 195.017L322 195.017Z" fill="black"/>
<path d="M322 186.212L322 189.147L402.225 189.147L402.225 186.212L322 186.212Z" fill="black"/>
<path d="M322 178.528L322 180.366L402.225 180.366L402.225 178.528L322 178.528Z" fill="black"/>
<path d="M322 173.016L322 176.691L402.225 176.691L402.225 173.016L322 173.016Z" fill="black"/>
<path d="M322 161.992L322 167.504L402.225 167.504L402.225 161.992L322 161.992Z" fill="black"/>
<path d="M322 158.317L322 160.155L402.225 160.155L402.225 158.317L322 158.317Z" fill="black"/>
<path d="M322 149.131L322 152.805L402.225 152.805L402.225 149.131L322 149.131Z" fill="black"/>
<path d="M322 145.455L322 147.293L402.225 147.293L402.225 145.455L322 145.455Z" fill="black"/>
<path d="M322 136.268L322 139.943L402.225 139.943L402.225 136.268L322 136.268Z" fill="black"/>
<path d="M322 128.919L322 130.756L402.225 130.756L402.225 128.919L322 128.919Z" fill="black"/>
<path d="M322 121.569L322 127.082L402.225 127.082L402.225 121.569L322 121.569Z" fill="black"/>
<path d="M322 117.894L322 119.732L402.225 119.732L402.225 117.894L322 117.894Z" fill="black"/>
<path d="M322 108.708L322 112.382L402.225 112.382L402.225 108.708L322 108.708Z" fill="black"/>
<path d="M322 101.358L322 106.87L402.225 106.87L402.225 101.358L322 101.358Z" fill="black"/>
<path d="M322 97.6827L322 99.5201L402.225 99.5201L402.225 97.6827L322 97.6827Z" fill="black"/>
<path d="M322 94.0089L322 95.8463L402.225 95.8463L402.225 94.0089L322 94.0089Z" fill="black"/>
<path d="M322 84.8221L322 88.4969L402.225 88.4969L402.225 84.8221L322 84.8221Z" fill="black"/>
<path d="M322 77.4719L322 79.3093L402.225 79.3093L402.225 77.4719L322 77.4719Z" fill="black"/>
<path d="M322 70.1222L322 71.9595L402.225 71.9595L402.225 70.1221L322 70.1222Z" fill="black"/>
<path d="M322 64.61L322 68.2848L402.225 68.2848L402.225 64.61L322 64.61Z" fill="black"/>
<path d="M322 57.2603L322 59.0977L402.225 59.0977L402.225 57.2603L322 57.2603Z" fill="black"/>
<path d="M322 48.074L322 49.9114L402.225 49.9114L402.225 48.074L322 48.074Z" fill="black"/>
<path d="M322 42.5611L322 46.2358L402.225 46.2358L402.225 42.5611L322 42.5611Z" fill="black"/>
<path d="M322 35.2117L322 38.8864L402.225 38.8864L402.225 35.2117L322 35.2117Z" fill="black"/>
<path d="M322 24.1871L322 29.6993L402.225 29.6993L402.225 24.1871L322 24.1871Z" fill="black"/>
<path d="M322 20.5121L322 22.3495L402.225 22.3495L402.225 20.5121L322 20.5121Z" fill="black"/>
<path d="M322 15L322 18.6748L402.225 18.6748L402.225 15L322 15Z" fill="black"/>
</g>
<defs>
<clipPath id="clip0_71_195">
<rect width="2308" height="259" fill="white"/>
</clipPath>
<clipPath id="clip1_71_195">
<rect width="259" height="259" fill="white" transform="translate(25)"/>
</clipPath>
<clipPath id="clip2_71_195">
<rect width="259.389" height="259.242" fill="white" transform="translate(24.7773 -0.24176)"/>
</clipPath>
</defs>
</svg>
