<svg width="758" height="929" viewBox="0 0 758 929" fill="none" xmlns="http://www.w3.org/2000/svg">
<g clip-path="url(#clip0_62_865)">
<g clip-path="url(#clip1_62_865)">
<path d="M0 69.4147C0 31.078 31.078 0 69.4147 0H688.362C726.699 0 757.777 31.078 757.777 69.4147V859.585C757.777 897.922 726.699 929 688.362 929H69.4146C31.078 929 0 897.922 0 859.585V69.4147Z" fill="#0123FF"/>
<path fill-rule="evenodd" clip-rule="evenodd" d="M688.362 23.1382H69.4147C43.8569 23.1382 23.1382 43.8569 23.1382 69.4147V859.585C23.1382 885.143 43.8569 905.862 69.4146 905.862H688.362C713.92 905.862 734.639 885.143 734.639 859.585V69.4147C734.639 43.8569 713.92 23.1382 688.362 23.1382ZM69.4147 0C31.078 0 0 31.078 0 69.4147V859.585C0 897.922 31.078 929 69.4146 929H688.362C726.699 929 757.777 897.922 757.777 859.585V69.4147C757.777 31.078 726.699 0 688.362 0H69.4147Z" fill="white"/>
<g clip-path="url(#clip2_62_865)">
<mask id="path-3-inside-1_62_865" fill="white">
<path d="M127.8 852.676L273.85 819.364L273.85 777.169L166.942 752L273.85 726.832L273.85 686.302L127.8 651.14C125.464 650.585 124.295 649.474 124.295 647.624L124.295 639.481L72.8856 639.481L72.8856 694.815L124.295 694.815L124.295 681.121L203.162 697.961L203.162 703.513L124.295 718.134L124.295 704.254L72.8856 704.254L72.8856 786.423L124.295 786.423L124.295 771.988L203.162 788.828L203.162 794.38L124.295 809.001L124.295 795.861L72.8856 795.861L72.8856 864.52L124.295 864.52L124.295 856.192C124.295 854.527 125.464 853.416 127.8 852.861L127.8 852.676Z"/>
<path d="M222.441 630.756L273.85 630.756L273.85 488.626L179.21 488.626L179.21 525.269L219.812 527.12C221.564 527.305 222.441 527.86 222.441 528.97L222.441 563.763C222.441 565.058 221.564 565.613 219.52 565.613L190.018 565.613L190.018 535.818L153.797 535.818L153.797 565.613L124.295 565.613L124.295 531.931C124.295 530.821 125.171 530.266 126.924 530.081L161.684 528.23L161.684 491.587L72.8856 491.587L72.8856 630.756L124.295 630.756L124.295 620.392C124.295 619.097 125.171 618.542 127.216 618.542L219.52 618.542C221.564 618.542 222.441 619.097 222.441 620.392L222.441 630.756Z"/>
<path d="M222.441 480.983L273.85 480.983L273.85 403.626L222.441 403.626L222.441 413.989C222.441 415.285 221.564 415.84 219.52 415.84L127.216 415.84C125.171 415.84 124.295 415.285 124.295 413.989L124.295 403.626L72.8856 403.626L72.8856 480.983L124.295 480.983L124.295 470.619C124.295 469.324 125.171 468.769 127.216 468.769L219.52 468.769C221.564 468.769 222.441 469.324 222.441 470.619L222.441 480.983Z"/>
<path d="M270.929 289.397C276.187 283.475 278.816 275.332 278.816 264.783C278.816 251.274 274.435 241.65 265.672 235.728C256.909 229.806 243.764 226.845 226.238 226.845L190.602 226.845L190.602 275.332L211.049 275.332C216.599 275.332 219.52 276.628 219.52 279.218C219.52 281.069 216.891 282.735 211.925 284.215L181.547 292.543L181.547 280.699C181.547 265.339 177.749 254.05 170.155 246.832C162.56 239.615 149.124 236.098 130.137 236.098C92.4563 236.098 73.4698 250.163 73.4698 278.108L73.4698 396.365L124.879 396.365L124.879 386.001C124.879 384.706 125.756 384.15 127.8 384.15L220.104 384.15C222.149 384.15 223.025 384.706 223.025 386.001L223.025 396.365L274.435 396.365L274.435 319.007L223.025 319.007L223.025 329.371C223.025 330.667 222.149 331.222 220.104 331.222L190.018 331.222L190.018 320.118C190.018 318.452 191.186 317.342 193.523 316.787L247.853 302.167C258.369 299.391 266.256 295.134 271.514 289.212L270.929 289.397ZM159.931 300.686L159.931 331.407L125.171 331.407L125.171 300.686C125.171 296.059 126.632 292.728 129.553 290.693C132.474 288.657 136.855 287.732 142.99 287.732C149.124 287.732 153.505 288.657 156.134 290.693C158.763 292.728 160.223 296.059 160.223 300.686L159.931 300.686Z"/>
<path d="M222.441 218.663L273.85 218.663L273.85 143.527C273.85 125.02 270.053 110.215 262.751 98.926C255.448 87.6371 244.348 79.4942 229.451 74.3124C214.554 69.1305 195.568 66.5396 172.492 66.5396C150 66.5396 131.306 69.1306 116.701 74.3124C102.096 79.4942 91.2879 87.8221 83.9854 99.1111C76.6829 110.4 73.1777 125.39 73.1777 143.897L73.1777 219.033L124.587 219.033L124.587 208.67C124.587 207.374 125.464 206.819 127.508 206.819L219.812 206.819C221.857 206.819 222.733 207.374 222.733 208.67L222.441 218.663ZM222.733 148.894L222.733 153.89L124.587 153.89L124.587 148.894C124.587 141.306 126.34 135.384 129.845 131.127C133.35 126.871 138.608 123.91 145.618 122.244C152.629 120.579 161.684 119.838 173.076 119.838C185.052 119.838 194.691 120.764 201.994 122.429C209.296 124.095 214.846 127.056 218.351 131.312C221.857 135.569 223.609 141.491 223.609 149.079L222.733 148.894Z"/>
</mask>
<path d="M127.8 852.676L273.85 819.364L273.85 777.169L166.942 752L273.85 726.832L273.85 686.302L127.8 651.14C125.464 650.585 124.295 649.474 124.295 647.624L124.295 639.481L72.8856 639.481L72.8856 694.815L124.295 694.815L124.295 681.121L203.162 697.961L203.162 703.513L124.295 718.134L124.295 704.254L72.8856 704.254L72.8856 786.423L124.295 786.423L124.295 771.988L203.162 788.828L203.162 794.38L124.295 809.001L124.295 795.861L72.8856 795.861L72.8856 864.52L124.295 864.52L124.295 856.192C124.295 854.527 125.464 853.416 127.8 852.861L127.8 852.676Z" stroke="#04EE6A" stroke-width="12" mask="url(#path-3-inside-1_62_865)"/>
<path d="M222.441 630.756L273.85 630.756L273.85 488.626L179.21 488.626L179.21 525.269L219.812 527.12C221.564 527.305 222.441 527.86 222.441 528.97L222.441 563.763C222.441 565.058 221.564 565.613 219.52 565.613L190.018 565.613L190.018 535.818L153.797 535.818L153.797 565.613L124.295 565.613L124.295 531.931C124.295 530.821 125.171 530.266 126.924 530.081L161.684 528.23L161.684 491.587L72.8856 491.587L72.8856 630.756L124.295 630.756L124.295 620.392C124.295 619.097 125.171 618.542 127.216 618.542L219.52 618.542C221.564 618.542 222.441 619.097 222.441 620.392L222.441 630.756Z" stroke="#04EE6A" stroke-width="12" mask="url(#path-3-inside-1_62_865)"/>
<path d="M222.441 480.983L273.85 480.983L273.85 403.626L222.441 403.626L222.441 413.989C222.441 415.285 221.564 415.84 219.52 415.84L127.216 415.84C125.171 415.84 124.295 415.285 124.295 413.989L124.295 403.626L72.8856 403.626L72.8856 480.983L124.295 480.983L124.295 470.619C124.295 469.324 125.171 468.769 127.216 468.769L219.52 468.769C221.564 468.769 222.441 469.324 222.441 470.619L222.441 480.983Z" stroke="#04EE6A" stroke-width="12" mask="url(#path-3-inside-1_62_865)"/>
<path d="M270.929 289.397C276.187 283.475 278.816 275.332 278.816 264.783C278.816 251.274 274.435 241.65 265.672 235.728C256.909 229.806 243.764 226.845 226.238 226.845L190.602 226.845L190.602 275.332L211.049 275.332C216.599 275.332 219.52 276.628 219.52 279.218C219.52 281.069 216.891 282.735 211.925 284.215L181.547 292.543L181.547 280.699C181.547 265.339 177.749 254.05 170.155 246.832C162.56 239.615 149.124 236.098 130.137 236.098C92.4563 236.098 73.4698 250.163 73.4698 278.108L73.4698 396.365L124.879 396.365L124.879 386.001C124.879 384.706 125.756 384.15 127.8 384.15L220.104 384.15C222.149 384.15 223.025 384.706 223.025 386.001L223.025 396.365L274.435 396.365L274.435 319.007L223.025 319.007L223.025 329.371C223.025 330.667 222.149 331.222 220.104 331.222L190.018 331.222L190.018 320.118C190.018 318.452 191.186 317.342 193.523 316.787L247.853 302.167C258.369 299.391 266.256 295.134 271.514 289.212L270.929 289.397ZM159.931 300.686L159.931 331.407L125.171 331.407L125.171 300.686C125.171 296.059 126.632 292.728 129.553 290.693C132.474 288.657 136.855 287.732 142.99 287.732C149.124 287.732 153.505 288.657 156.134 290.693C158.763 292.728 160.223 296.059 160.223 300.686L159.931 300.686Z" stroke="#04EE6A" stroke-width="12" mask="url(#path-3-inside-1_62_865)"/>
<path d="M222.441 218.663L273.85 218.663L273.85 143.527C273.85 125.02 270.053 110.215 262.751 98.926C255.448 87.6371 244.348 79.4942 229.451 74.3124C214.554 69.1305 195.568 66.5396 172.492 66.5396C150 66.5396 131.306 69.1306 116.701 74.3124C102.096 79.4942 91.2879 87.8221 83.9854 99.1111C76.6829 110.4 73.1777 125.39 73.1777 143.897L73.1777 219.033L124.587 219.033L124.587 208.67C124.587 207.374 125.464 206.819 127.508 206.819L219.812 206.819C221.857 206.819 222.733 207.374 222.733 208.67L222.441 218.663ZM222.733 148.894L222.733 153.89L124.587 153.89L124.587 148.894C124.587 141.306 126.34 135.384 129.845 131.127C133.35 126.871 138.608 123.91 145.618 122.244C152.629 120.579 161.684 119.838 173.076 119.838C185.052 119.838 194.691 120.764 201.994 122.429C209.296 124.095 214.846 127.056 218.351 131.312C221.857 135.569 223.609 141.491 223.609 149.079L222.733 148.894Z" stroke="#04EE6A" stroke-width="12" mask="url(#path-3-inside-1_62_865)"/>
<mask id="path-4-inside-2_62_865" fill="white">
<path d="M637.997 859.187L690.677 859.187L690.677 778.517L637.997 778.517L637.997 792.362C637.997 793.654 637.099 794.208 635.004 794.208L614.65 794.208L614.65 764.856C614.65 746.581 609.861 733.29 599.984 724.983C590.106 716.676 573.644 712.614 550.597 712.614C527.549 712.614 510.787 716.86 500.611 725.167C490.434 733.474 485.345 746.766 485.345 765.041L485.345 859.372L538.025 859.372L538.025 849.034C538.025 847.742 538.923 847.188 541.018 847.188L635.603 847.188C637.698 847.188 638.596 847.742 638.596 849.034L637.997 859.187ZM576.338 775.194L576.338 794.392L538.025 794.392L538.025 775.194C538.025 770.394 539.522 766.887 542.216 764.672C544.91 762.457 549.699 761.349 556.583 761.349C563.467 761.349 568.556 762.457 571.848 764.672C575.141 766.887 576.637 770.394 576.637 775.009L576.338 775.194Z"/>
<path d="M637.997 706.264L690.677 706.264L690.677 567.814L589.208 567.814L589.208 602.519L635.004 604.55C637.099 604.734 637.997 605.473 637.997 606.765L637.997 639.624C637.997 640.916 637.099 641.47 635.004 641.47L540.42 641.47C538.325 641.47 537.427 640.916 537.427 639.624L537.427 629.286L484.747 629.286L484.747 706.449L537.427 706.449L537.427 696.111C537.427 694.819 538.325 694.265 540.42 694.265L635.004 694.265C637.099 694.265 637.997 694.819 637.997 696.111L637.997 706.264Z"/>
<path d="M637.997 561.91L690.677 561.91L690.677 498.222L637.997 498.222L637.997 514.098L617.344 509.114L617.344 461.118L637.997 455.949L637.997 471.825L690.677 471.825L690.677 390.231L637.997 390.231L637.997 398.538C637.997 400.2 636.8 401.307 634.405 402.046L484.747 448.196L484.747 504.13L634.405 550.28C636.8 550.834 637.997 551.941 637.997 553.603L637.997 561.91ZM580.229 470.163L580.229 500.069L530.243 488.254L530.243 482.716L580.229 470.163Z"/>
<path d="M637.997 384.758L690.677 384.758L690.677 318.487L637.997 318.487L637.997 339.9C637.997 341.192 637.099 341.746 635.004 341.746L549.399 341.746L549.399 338.054L690.677 293.75L690.677 233.386L540.42 233.386C538.325 233.386 537.427 232.832 537.427 231.54L537.427 221.202L484.747 221.202L484.747 280.09L537.427 280.09L537.427 266.06C537.427 264.768 538.325 264.214 540.42 264.214L623.031 264.214L623.031 267.906L484.747 302.426L484.747 384.758L537.427 384.758L537.427 374.421C537.427 373.128 538.325 372.575 540.42 372.575L635.004 372.575C637.099 372.575 637.997 373.128 637.997 374.421L637.997 384.758Z"/>
<path d="M637.997 186.686L690.677 186.686L690.677 94.0165L637.997 94.0165L637.997 112.107C637.997 113.399 637.099 113.953 635.004 113.953L537.427 113.953L537.427 102.877C537.427 101.77 538.325 101.216 540.12 101.031L575.739 99.1852L575.739 64.4803L484.747 64.4803L484.747 216.222L575.739 216.222L575.739 181.517L540.12 179.671C538.325 179.487 537.427 178.933 537.427 177.825L537.427 166.749L635.004 166.749C637.099 166.749 637.997 167.303 637.997 168.595L637.997 186.686Z"/>
</mask>
<path d="M637.997 859.187L690.677 859.187L690.677 778.517L637.997 778.517L637.997 792.362C637.997 793.654 637.099 794.208 635.004 794.208L614.65 794.208L614.65 764.856C614.65 746.581 609.861 733.29 599.984 724.983C590.106 716.676 573.644 712.614 550.597 712.614C527.549 712.614 510.787 716.86 500.611 725.167C490.434 733.474 485.345 746.766 485.345 765.041L485.345 859.372L538.025 859.372L538.025 849.034C538.025 847.742 538.923 847.188 541.018 847.188L635.603 847.188C637.698 847.188 638.596 847.742 638.596 849.034L637.997 859.187ZM576.338 775.194L576.338 794.392L538.025 794.392L538.025 775.194C538.025 770.394 539.522 766.887 542.216 764.672C544.91 762.457 549.699 761.349 556.583 761.349C563.467 761.349 568.556 762.457 571.848 764.672C575.141 766.887 576.637 770.394 576.637 775.009L576.338 775.194Z" stroke="white" stroke-width="12" mask="url(#path-4-inside-2_62_865)"/>
<path d="M637.997 706.264L690.677 706.264L690.677 567.814L589.208 567.814L589.208 602.519L635.004 604.55C637.099 604.734 637.997 605.473 637.997 606.765L637.997 639.624C637.997 640.916 637.099 641.47 635.004 641.47L540.42 641.47C538.325 641.47 537.427 640.916 537.427 639.624L537.427 629.286L484.747 629.286L484.747 706.449L537.427 706.449L537.427 696.111C537.427 694.819 538.325 694.265 540.42 694.265L635.004 694.265C637.099 694.265 637.997 694.819 637.997 696.111L637.997 706.264Z" stroke="white" stroke-width="12" mask="url(#path-4-inside-2_62_865)"/>
<path d="M637.997 561.91L690.677 561.91L690.677 498.222L637.997 498.222L637.997 514.098L617.344 509.114L617.344 461.118L637.997 455.949L637.997 471.825L690.677 471.825L690.677 390.231L637.997 390.231L637.997 398.538C637.997 400.2 636.8 401.307 634.405 402.046L484.747 448.196L484.747 504.13L634.405 550.28C636.8 550.834 637.997 551.941 637.997 553.603L637.997 561.91ZM580.229 470.163L580.229 500.069L530.243 488.254L530.243 482.716L580.229 470.163Z" stroke="white" stroke-width="12" mask="url(#path-4-inside-2_62_865)"/>
<path d="M637.997 384.758L690.677 384.758L690.677 318.487L637.997 318.487L637.997 339.9C637.997 341.192 637.099 341.746 635.004 341.746L549.399 341.746L549.399 338.054L690.677 293.75L690.677 233.386L540.42 233.386C538.325 233.386 537.427 232.832 537.427 231.54L537.427 221.202L484.747 221.202L484.747 280.09L537.427 280.09L537.427 266.06C537.427 264.768 538.325 264.214 540.42 264.214L623.031 264.214L623.031 267.906L484.747 302.426L484.747 384.758L537.427 384.758L537.427 374.421C537.427 373.128 538.325 372.575 540.42 372.575L635.004 372.575C637.099 372.575 637.997 373.128 637.997 374.421L637.997 384.758Z" stroke="white" stroke-width="12" mask="url(#path-4-inside-2_62_865)"/>
<path d="M637.997 186.686L690.677 186.686L690.677 94.0165L637.997 94.0165L637.997 112.107C637.997 113.399 637.099 113.953 635.004 113.953L537.427 113.953L537.427 102.877C537.427 101.77 538.325 101.216 540.12 101.031L575.739 99.1852L575.739 64.4803L484.747 64.4803L484.747 216.222L575.739 216.222L575.739 181.517L540.12 179.671C538.325 179.487 537.427 178.933 537.427 177.825L537.427 166.749L635.004 166.749C637.099 166.749 637.997 167.303 637.997 168.595L637.997 186.686Z" stroke="white" stroke-width="12" mask="url(#path-4-inside-2_62_865)"/>
</g>
<g clip-path="url(#clip3_62_865)">
<path d="M534.17 821.891C534.17 833.764 464.632 843.388 378.853 843.388C293.073 843.388 223.535 833.764 223.535 821.891C223.535 810.019 293.073 800.394 378.853 800.394C464.632 800.394 534.17 810.019 534.17 821.891Z" fill="#000F71" fill-opacity="0.48"/>
<g clip-path="url(#clip4_62_865)">
<g clip-path="url(#clip5_62_865)">
<mask id="path-6-inside-3_62_865" fill="white">
<path fill-rule="evenodd" clip-rule="evenodd" d="M384.88 617.71C390.99 588.102 409.978 561.427 438.979 546.57C467.979 531.714 500.721 531.888 528.32 544.228C522.21 573.836 503.222 600.511 474.222 615.367C445.221 630.224 412.479 630.049 384.88 617.71Z"/>
</mask>
<path fill-rule="evenodd" clip-rule="evenodd" d="M384.88 617.71C390.99 588.102 409.978 561.427 438.979 546.57C467.979 531.714 500.721 531.888 528.32 544.228C522.21 573.836 503.222 600.511 474.222 615.367C445.221 630.224 412.479 630.049 384.88 617.71Z" fill="#04EE6A"/>
<path d="M384.88 617.71L381.942 617.103L381.455 619.464L383.656 620.448L384.88 617.71ZM528.32 544.228L531.258 544.834L531.745 542.473L529.545 541.489L528.32 544.228ZM387.818 618.316C393.752 589.56 412.189 563.665 440.346 549.24L437.611 543.9C407.767 559.189 388.228 586.643 381.942 617.103L387.818 618.316ZM440.346 549.24C468.504 534.816 500.291 534.982 527.096 546.967L529.545 541.489C501.152 528.794 467.455 528.612 437.611 543.9L440.346 549.24ZM525.382 543.622C519.448 572.378 501.011 598.273 472.854 612.697L475.59 618.037C505.433 602.749 524.973 575.294 531.258 544.834L525.382 543.622ZM472.854 612.697C444.697 627.122 412.909 626.955 386.105 614.971L383.656 620.448C412.049 633.143 445.746 633.326 475.59 618.037L472.854 612.697Z" fill="black" mask="url(#path-6-inside-3_62_865)"/>
<path d="M388.247 616.192L455.718 571.219" stroke="black" stroke-width="3.22458" stroke-linecap="round"/>
<rect x="372.038" y="466.45" width="17.5933" height="274.598" fill="#04EE6A" stroke="black" stroke-width="3"/>
<mask id="path-10-inside-4_62_865" fill="white">
<path fill-rule="evenodd" clip-rule="evenodd" d="M383.071 644.767C355.472 657.106 322.73 657.281 293.729 642.424C264.729 627.568 245.741 600.893 239.631 571.285C267.23 558.946 299.972 558.771 328.973 573.628C357.973 588.484 376.961 615.159 383.071 644.767Z"/>
</mask>
<path fill-rule="evenodd" clip-rule="evenodd" d="M383.071 644.767C355.472 657.106 322.73 657.281 293.729 642.424C264.729 627.568 245.741 600.893 239.631 571.285C267.23 558.946 299.972 558.771 328.973 573.628C357.973 588.484 376.961 615.159 383.071 644.767Z" fill="#04EE6A"/>
<path d="M383.071 644.767L386.009 644.161L386.496 646.522L384.295 647.506L383.071 644.767ZM239.631 571.285L236.693 571.892L236.206 569.531L238.406 568.547L239.631 571.285ZM295.097 639.754C323.254 654.179 355.042 654.013 381.846 642.028L384.295 647.506C355.902 660.2 322.205 660.383 292.362 645.094L295.097 639.754ZM242.569 570.679C248.503 599.435 266.94 625.33 295.097 639.754L292.362 645.094C262.518 629.806 242.979 602.351 236.693 571.892L242.569 570.679ZM327.605 576.298C299.447 561.873 267.66 562.04 240.855 574.024L238.406 568.547C266.799 555.852 300.497 555.669 330.34 570.958L327.605 576.298ZM380.133 645.373C374.199 616.617 355.762 590.722 327.605 576.298L330.34 570.958C360.184 586.246 379.723 613.701 386.009 644.161L380.133 645.373Z" fill="black" mask="url(#path-10-inside-4_62_865)"/>
<path d="M379.704 643.249L312.233 598.276" stroke="black" stroke-width="3.22458" stroke-linecap="round"/>
</g>
<g clip-path="url(#clip6_62_865)">
<rect x="271.543" y="690.506" width="214.466" height="129.621" rx="23.212" fill="#5965D9" stroke="black" stroke-width="3"/>
<path fill-rule="evenodd" clip-rule="evenodd" d="M330.416 689.006C316.791 689.033 305.754 700.086 305.754 713.718V796.915C305.754 810.563 316.818 821.627 330.466 821.627H462.852C462.834 821.627 462.815 821.627 462.797 821.627H294.755C281.107 821.627 270.043 810.563 270.043 796.915V713.718C270.043 700.07 281.107 689.006 294.755 689.006H330.416Z" fill="#3E4BBF"/>
<path fill-rule="evenodd" clip-rule="evenodd" d="M462.797 692.23H294.755C282.888 692.23 273.268 701.851 273.268 713.718V796.915C273.268 808.782 282.888 818.402 294.755 818.402H462.797C474.664 818.402 484.284 808.782 484.284 796.915V713.718C484.284 701.85 474.664 692.23 462.797 692.23ZM294.755 689.006C281.107 689.006 270.043 700.07 270.043 713.718V796.915C270.043 810.563 281.107 821.627 294.755 821.627H462.797C476.445 821.627 487.509 810.563 487.509 796.915V713.718C487.509 700.07 476.445 689.006 462.797 689.006H294.755Z" fill="black"/>
<rect x="260.834" y="677.326" width="235.883" height="21.712" rx="10.856" fill="#6101FF" stroke="black" stroke-width="3"/>
</g>
<g clip-path="url(#clip7_62_865)">
<g clip-path="url(#clip8_62_865)">
<rect x="149.423" y="250.547" width="478.06" height="57.8937" rx="28.9468" transform="rotate(11.0205 149.423 250.547)" fill="#FCB8FF" stroke="black" stroke-width="3"/>
<rect x="452.618" y="95.5643" width="478.06" height="57.8937" rx="28.9468" transform="rotate(101.02 452.618 95.5643)" fill="#FCB8FF" stroke="black" stroke-width="3"/>
<rect x="268.923" y="110.262" width="478.06" height="57.8937" rx="28.9468" transform="rotate(56.0205 268.923 110.262)" fill="#FCB8FF" stroke="black" stroke-width="3"/>
<rect x="592.903" y="215.064" width="478.06" height="57.8937" rx="28.9468" transform="rotate(146.02 592.903 215.064)" fill="#FCB8FF" stroke="black" stroke-width="3"/>
<rect x="533.041" y="140.006" width="478.06" height="57.8937" rx="28.9468" transform="rotate(123.02 533.041 140.006)" fill="#F723FB" stroke="black" stroke-width="3"/>
<rect x="618.345" y="303.356" width="478.06" height="57.8937" rx="28.9468" transform="rotate(168.02 618.345 303.356)" fill="#F723FB" stroke="black" stroke-width="3"/>
<rect x="357.215" y="84.8204" width="478.06" height="57.8937" rx="28.9468" transform="rotate(78.0205 357.215 84.8204)" fill="#F723FB" stroke="black" stroke-width="3"/>
<rect x="196.591" y="166.926" width="478.06" height="57.8937" rx="28.9468" transform="rotate(34.0205 196.591 166.926)" fill="#F723FB" stroke="black" stroke-width="3"/>
<rect x="345.184" y="155.217" width="340.513" height="1.64747" rx="0.823733" transform="rotate(78.0205 345.184 155.217)" fill="#392301" stroke="#392301" stroke-width="1.64747"/>
<rect x="210.96" y="289.408" width="340.513" height="1.64747" rx="0.823733" transform="rotate(11.0193 210.96 289.408)" fill="#392301" stroke="#392301" stroke-width="1.64747"/>
<rect x="211.573" y="358.15" width="340.513" height="1.64747" rx="0.823733" transform="rotate(-11.9807 211.573 358.15)" fill="#392301" stroke="#392301" stroke-width="1.64747"/>
<rect x="285.06" y="463.94" width="340.513" height="1.64747" rx="0.823733" transform="rotate(-56.9807 285.06 463.94)" fill="#392301" stroke="#392301" stroke-width="1.64747"/>
<rect x="345.051" y="490.615" width="340.513" height="1.64747" rx="0.823733" transform="rotate(-78.9807 345.051 490.615)" fill="#392301" stroke="#392301" stroke-width="1.64747"/>
<rect x="284.259" y="181.569" width="340.513" height="1.64747" rx="0.823733" transform="rotate(56.0193 284.259 181.569)" fill="#392301" stroke="#392301" stroke-width="1.64747"/>
<rect x="518.628" y="419.823" width="340.513" height="1.64747" rx="0.823733" transform="rotate(-145.981 518.628 419.823)" fill="#392301" stroke="#392301" stroke-width="1.64747"/>
<rect x="520.801" y="229.412" width="340.513" height="1.64747" rx="0.823733" transform="rotate(146.019 520.801 229.412)" fill="#392301" stroke="#392301" stroke-width="1.64747"/>
</g>
<g clip-path="url(#clip9_62_865)">
<circle cx="379.187" cy="325.328" r="143.065" fill="#FFEA01" stroke="black" stroke-width="3"/>
<mask id="path-34-inside-5_62_865" fill="white">
<path fill-rule="evenodd" clip-rule="evenodd" d="M460.676 332.788C462.37 323.12 463.145 312.493 462.795 301.374C461.436 258.197 443.643 223.956 423.053 224.896C402.462 225.835 386.871 261.599 388.23 304.776C388.579 315.895 390.019 326.421 392.316 335.906L460.676 332.788Z"/>
</mask>
<path fill-rule="evenodd" clip-rule="evenodd" d="M460.676 332.788C462.37 323.12 463.145 312.493 462.795 301.374C461.436 258.197 443.643 223.956 423.053 224.896C402.462 225.835 386.871 261.599 388.23 304.776C388.579 315.895 390.019 326.421 392.316 335.906L460.676 332.788Z" fill="white"/>
<path d="M460.676 332.788L460.771 335.786L463.207 335.675L463.629 333.266L460.676 332.788ZM392.316 335.906L389.401 336.652L389.973 339.016L392.41 338.905L392.316 335.906ZM459.798 301.511C460.142 312.434 459.38 322.855 457.723 332.31L463.629 333.266C465.361 323.386 466.148 312.552 465.792 301.238L459.798 301.511ZM423.147 227.894C431.621 227.508 440.414 234.424 447.472 248.006C454.417 261.371 459.13 280.268 459.798 301.511L465.792 301.238C465.102 279.303 460.239 259.492 452.8 245.177C445.474 231.079 435.074 221.344 422.958 221.897L423.147 227.894ZM391.226 304.639C390.558 283.396 394.07 264.124 400.156 250.164C406.34 235.979 414.672 228.281 423.147 227.894L422.958 221.897C410.842 222.45 401.084 233.104 394.665 247.829C388.147 262.78 384.543 282.978 385.233 304.913L391.226 304.639ZM395.23 335.161C392.984 325.884 391.57 315.562 391.226 304.639L385.233 304.913C385.589 316.227 387.054 326.958 389.401 336.652L395.23 335.161ZM392.41 338.905L460.771 335.786L460.582 329.789L392.221 332.908L392.41 338.905Z" fill="black" mask="url(#path-34-inside-5_62_865)"/>
<path fill-rule="evenodd" clip-rule="evenodd" d="M415.249 334.516L449.441 332.956C452.217 324.303 453.7 313.384 453.329 301.588C453.211 297.842 452.912 294.202 452.453 290.71L440.058 291.276L448.138 272.398C443.753 260.316 437.065 252.651 429.804 252.983C417.674 253.536 408.539 276.194 409.401 303.592C409.772 315.388 411.936 326.14 415.249 334.516Z" fill="#000B1F"/>
<mask id="path-37-inside-6_62_865" fill="white">
<path fill-rule="evenodd" clip-rule="evenodd" d="M395.41 335.927C397.187 326.256 398.007 315.626 397.657 304.508C396.299 261.33 377.813 227.121 356.369 228.099C334.924 229.078 318.641 264.873 320 308.05C320.349 319.169 321.835 329.693 324.214 339.175L395.41 335.927Z"/>
</mask>
<path fill-rule="evenodd" clip-rule="evenodd" d="M395.41 335.927C397.187 326.256 398.007 315.626 397.657 304.508C396.299 261.33 377.813 227.121 356.369 228.099C334.924 229.078 318.641 264.873 320 308.05C320.349 319.169 321.835 329.693 324.214 339.175L395.41 335.927Z" fill="white"/>
<path d="M395.41 335.927L395.505 338.925L397.921 338.815L398.359 336.43L395.41 335.927ZM324.214 339.175L321.306 339.945L321.893 342.283L324.309 342.173L324.214 339.175ZM394.66 304.644C395.004 315.559 394.198 325.974 392.462 335.424L398.359 336.43C400.176 326.537 401.01 315.694 400.654 304.371L394.66 304.644ZM356.463 231.098C365.429 230.689 374.597 237.68 381.904 251.202C389.113 264.544 393.993 283.418 394.66 304.644L400.654 304.371C399.964 282.42 394.921 262.601 387.187 248.288C379.551 234.156 368.753 224.532 356.274 225.101L356.463 231.098ZM322.996 307.914C322.329 286.687 326.008 267.423 332.359 253.462C338.795 239.313 347.497 231.507 356.463 231.098L356.274 225.101C343.796 225.67 333.634 236.251 326.907 251.038C320.095 266.014 316.312 286.236 317.003 308.187L322.996 307.914ZM327.123 338.405C324.798 329.14 323.34 318.828 322.996 307.914L317.003 308.187C317.359 319.51 318.872 330.246 321.306 339.945L327.123 338.405ZM324.309 342.173L395.505 338.925L395.316 332.928L324.12 336.176L324.309 342.173Z" fill="black" mask="url(#path-37-inside-6_62_865)"/>
<path fill-rule="evenodd" clip-rule="evenodd" d="M348.098 337.741L383.708 336.116C386.611 327.457 388.169 316.536 387.798 304.739C387.68 300.993 387.374 297.354 386.901 293.863L373.991 294.451L382.431 275.558C377.88 263.483 370.925 255.83 363.363 256.175C350.729 256.752 341.187 279.429 342.049 306.826C342.42 318.623 344.659 329.371 348.098 337.741Z" fill="#000B1F"/>
<circle cx="325.893" cy="348.69" r="35.0087" transform="rotate(-2.18741 325.893 348.69)" fill="#FFEA01"/>
<path fill-rule="evenodd" clip-rule="evenodd" d="M358.116 347.806C358.113 347.69 358.109 347.575 358.105 347.459C357.425 329.669 342.452 315.798 324.662 316.478C306.872 317.157 293.001 332.13 293.68 349.92C293.685 350.036 293.69 350.151 293.695 350.266L290.924 350.372C290.919 350.257 290.914 350.142 290.909 350.026C290.171 330.705 305.236 314.445 324.556 313.707C343.877 312.969 360.138 328.033 360.876 347.354C360.88 347.469 360.884 347.585 360.887 347.7L358.116 347.806Z" fill="black"/>
<path d="M393.932 417.54C429.049 416.691 456.828 387.535 455.979 352.418L328.81 355.493C329.659 390.61 358.815 418.389 393.932 417.54Z" fill="#000B1F"/>
<mask id="path-43-inside-7_62_865" fill="white">
<path fill-rule="evenodd" clip-rule="evenodd" d="M428.187 406.54C418.406 413.212 406.65 417.232 393.932 417.54C369.373 418.134 347.73 404.726 336.645 384.598C347.357 374.826 361.786 369.123 377.417 369.797C400.869 370.808 420.389 385.886 428.187 406.54Z"/>
</mask>
<path fill-rule="evenodd" clip-rule="evenodd" d="M428.187 406.54C418.406 413.212 406.65 417.232 393.932 417.54C369.373 418.134 347.73 404.726 336.645 384.598C347.357 374.826 361.786 369.123 377.417 369.797C400.869 370.808 420.389 385.886 428.187 406.54Z" fill="#EE6F9F"/>
<path d="M393.932 417.54L393.859 414.541L393.932 417.54ZM428.187 406.54L429.878 409.018L431.828 407.688L430.994 405.48L428.187 406.54ZM336.645 384.598L334.623 382.382L332.877 383.975L334.017 386.046L336.645 384.598ZM394.004 420.539C407.318 420.217 419.633 416.006 429.878 409.018L426.497 404.062C417.179 410.417 405.982 414.247 393.859 414.541L394.004 420.539ZM334.017 386.046C345.621 407.115 368.283 421.161 394.004 420.539L393.859 414.541C370.463 415.106 349.839 402.336 339.273 383.151L334.017 386.046ZM338.667 386.815C348.817 377.554 362.48 372.156 377.288 372.794L377.547 366.8C361.091 366.09 345.897 372.097 334.623 382.382L338.667 386.815ZM377.288 372.794C399.498 373.752 417.991 388.03 425.381 407.6L430.994 405.48C422.786 383.743 402.24 367.864 377.547 366.8L377.288 372.794Z" fill="black" mask="url(#path-43-inside-7_62_865)"/>
</g>
</g>
</g>
</g>
</g>
</g>
<defs>
<clipPath id="clip0_62_865">
<rect width="757.777" height="929" fill="white"/>
</clipPath>
<clipPath id="clip1_62_865">
<rect width="757.777" height="929" fill="white"/>
</clipPath>
<clipPath id="clip2_62_865">
<rect width="617.792" height="800.04" fill="white" transform="translate(72.8856 64.4803)"/>
</clipPath>
<clipPath id="clip3_62_865">
<rect width="483.829" height="757.777" fill="white" transform="translate(137 85.6115)"/>
</clipPath>
<clipPath id="clip4_62_865">
<rect width="483.829" height="736.015" fill="white" transform="translate(137 85.6115)"/>
</clipPath>
<clipPath id="clip5_62_865">
<rect width="325.066" height="277.598" fill="white" transform="translate(221.442 464.95)"/>
</clipPath>
<clipPath id="clip6_62_865">
<rect width="238.883" height="145.801" fill="white" transform="translate(259.334 675.826)"/>
</clipPath>
<clipPath id="clip7_62_865">
<rect width="483.829" height="483.829" fill="white" transform="translate(137 85.6115)"/>
</clipPath>
<clipPath id="clip8_62_865">
<rect width="483.829" height="483.829" fill="white" transform="translate(136.598 82.7383)"/>
</clipPath>
<clipPath id="clip9_62_865">
<rect width="289.13" height="289.13" fill="white" transform="translate(234.622 180.762)"/>
</clipPath>
</defs>
</svg>
