<svg width="986" height="647" viewBox="0 0 986 647" fill="none" xmlns="http://www.w3.org/2000/svg">
<g clip-path="url(#clip0_34_3147)">
<ellipse cx="493" cy="323.5" rx="493" ry="323.5" fill="white"/>
<path d="M930 323.5C930 398.832 881.814 467.612 802.693 517.758C723.621 567.872 614.139 599 493 599C371.861 599 262.379 567.872 183.307 517.758C104.186 467.612 56 398.832 56 323.5C56 248.168 104.186 179.388 183.307 129.242C262.379 79.1275 371.861 48 493 48C614.139 48 723.621 79.1275 802.693 129.242C881.814 179.388 930 248.168 930 323.5Z" fill="white" stroke="#0C5CF5" stroke-width="8"/>
<path d="M368.488 241.256H366.488V243.256V272.792H296.56H294.56V274.792V306.976V308.976H296.56H366.488V428.8V430.8H368.488H403.048H405.048V428.8V309.192H475.408H477.408V307.192V274.792V272.792H475.408H405.048V243.256V241.256H403.048H368.488ZM488.216 267.7L490.297 267.406L489.9 265.342C487.717 253.992 484.444 242.644 480.297 231.949L479.729 230.484L478.171 230.689L458.515 233.281L455.937 233.621L456.927 236.025C459.889 243.221 462.449 250.868 466.104 268.925L466.478 270.772L468.344 270.508L488.216 267.7ZM313.506 424.166L314.935 425.595L316.349 424.151C337.517 402.542 349.717 371.151 353.847 328.553L354.037 326.586L352.072 326.372L320.32 322.916L318.206 322.685L318.106 324.81C316.831 352.023 306.203 377.857 287.628 395.377L286.13 396.79L287.586 398.246L313.506 424.166ZM420.068 326.377L418.196 326.622L418.333 328.505L418.347 328.692C419.233 340.885 422.613 387.406 453.569 424.466L454.851 426L456.386 424.719L483.818 401.823L485.336 400.556L484.086 399.024C464.289 374.756 456.627 351.167 453.636 324.037L453.412 322.008L451.388 322.273L420.068 326.377ZM458.402 268.781L460.54 268.485L460.083 266.376C457.252 253.31 455.28 246.959 450.505 233.721L449.963 232.217L448.376 232.415L429.368 234.791L426.962 235.092L427.715 237.397C431.138 247.879 433.71 258.592 435.859 269.979L436.212 271.85L438.098 271.589L458.402 268.781ZM583.009 274.52C587.874 260.741 589.852 251.857 591.553 244.214C591.723 243.454 591.889 242.706 592.055 241.967L592.554 239.751L590.293 239.537L553.788 236.081L551.891 235.901L551.62 237.787C546.7 272.015 531.33 306.404 502.348 326.5L500.291 327.927L502.137 329.619L527.841 353.163L529.126 354.34L530.468 353.228L530.522 353.183C538.084 346.918 551.598 335.72 566.195 310.92H609.257C607.261 329.056 604.913 347.126 594.158 362.616C583.033 378.64 562.646 392.223 523.207 399.618L520.501 400.126L521.821 402.542L538.453 432.998L539.176 434.322L540.647 433.991C587.544 423.437 613.495 404.963 628.383 382.52C642.857 360.701 646.673 335.397 649.556 310.92H697.24H699.24V308.92V276.52V274.52H697.24H583.009Z" fill="#0123FF" stroke="black" stroke-width="4"/>
<g clip-path="url(#clip1_34_3147)">
<path d="M167.369 284L175.179 290.029L205.093 256.442C210.15 250.763 212.846 245.481 213.179 240.597C213.512 235.712 211.447 231.547 206.984 228.102C203.339 225.289 199.661 224.203 195.877 224.788C192.093 225.372 188.016 227.835 183.512 232.188L181.875 230.925C184.945 226.633 186.358 222.932 186.114 219.823C185.871 216.714 184.007 213.873 180.66 211.289C176.568 208.131 172.136 207.047 167.437 208.095C162.739 209.142 158.107 212.228 153.481 217.422L124 250.525L131.811 256.554L138.164 249.421C138.595 248.937 139.003 248.901 139.524 249.303L173.594 275.601C174.115 276.003 174.153 276.383 173.721 276.867L167.369 284ZM173.81 236.035L161.413 249.955L147.353 239.103L159.75 225.183C162.032 222.62 164.354 221.141 166.778 220.674C169.202 220.208 171.53 220.836 173.687 222.501C175.993 224.281 177.1 226.421 177.069 228.851C177.039 231.282 176.043 233.668 174.008 235.954L173.81 236.035ZM195.999 251.994L183.109 266.468L168.306 255.041L181.196 240.567C183.848 237.59 186.491 235.89 189.113 235.343C191.734 234.795 194.272 235.469 196.715 237.237C199.021 239.017 200.127 241.157 199.974 243.726C199.82 246.295 198.454 249.097 195.802 252.075L195.999 251.994Z" fill="#0123FF"/>
<path d="M262.957 212.372C266.505 212.792 270.412 211.853 274.629 209.478C280.003 206.451 283.321 203.215 284.584 199.77C285.846 196.325 285.035 192.471 282.234 188.16L275.381 177.616L262.731 184.741L268.184 193.13C269.384 194.978 269.871 196.596 269.645 197.985C269.418 199.375 268.478 200.535 266.742 201.513C265.337 202.305 263.846 202.618 262.221 202.377C260.596 202.136 258.704 201.309 256.544 199.897L243.666 191.379L249.702 187.979C256.316 184.254 260.328 180.522 261.771 176.66C263.214 172.798 262.369 168.542 259.317 163.847C256.316 159.229 252.494 156.65 247.802 156.034C243.109 155.418 237.646 156.917 231.363 160.457L186.717 185.604L191.97 193.686L200.485 188.889C201.064 188.563 201.462 188.654 201.812 189.193L224.723 224.445C225.073 224.984 224.975 225.354 224.396 225.68L215.881 230.477L221.133 238.559L250.318 222.12L245.065 214.038L237.542 218.276C236.963 218.602 236.565 218.511 236.215 217.972L226.761 203.425L235.607 198.442C236.186 198.116 236.799 198.191 237.397 198.59L250.923 207.584C255.343 210.562 259.311 212.323 262.859 212.743L262.957 212.372ZM244.385 184.665L222.559 196.959L212.854 182.027L234.35 169.919C237.492 168.15 240.29 167.415 242.694 167.638C245.098 167.861 247.175 169.32 248.876 171.937C250.526 174.477 250.9 176.79 250.047 178.953C249.194 181.115 247.279 183.035 244.303 184.712L244.385 184.665Z" fill="#0123FF"/>
<path d="M287.997 190.055L291.15 199.033L319.991 190.256L316.838 181.278L306.918 184.297L307.846 172.752L337.329 163.779L345.403 172.584L335.483 175.603L338.636 184.582L369.497 175.189L366.344 166.211L360.007 168.14C359.364 168.336 358.814 168.219 358.359 167.79L316.509 126.2L302.639 130.421L295.259 186.993C295.163 187.59 294.794 187.986 294.151 188.182L287.997 190.055ZM330.893 157.03L308.482 163.851L310.632 137.547L312.469 136.988L330.893 157.03Z" fill="#0123FF"/>
<path d="M369.702 166.886L371.538 176.176L406.227 170.235L404.391 160.945L394.602 162.621C393.937 162.735 393.599 162.519 393.477 161.899L385.469 121.377C385.347 120.758 385.58 120.444 386.245 120.33L396.034 118.653L394.198 109.363L359.51 115.304L361.345 124.594L371.134 122.918C371.799 122.804 372.137 123.02 372.259 123.64L380.267 164.162C380.389 164.781 380.156 165.095 379.491 165.209L369.702 166.886Z" fill="#0123FF"/>
<path d="M410.816 158.709L411.37 168.141L446.974 166.331L446.421 156.899L433.684 157.547C433.395 157.562 433.1 157.486 432.896 157.317C432.693 157.147 432.586 156.972 432.57 156.702L430.315 118.257L431.859 118.178L466.078 165.36L485.858 164.355L482.84 112.884C482.803 112.255 483.173 111.966 483.849 111.932L493.69 111.432L493.137 102L458.884 103.741L459.437 113.173L470.823 112.594C471.498 112.56 471.803 112.814 471.84 113.443L474.158 152.967L472.609 152.956L439.49 104.727L407.745 106.34L408.298 115.772L418.14 115.272C418.816 115.237 419.121 115.492 419.158 116.121L421.57 157.262C421.607 157.89 421.334 158.175 420.658 158.209L410.816 158.709Z" fill="#0123FF"/>
<path d="M524.854 155.957L523.359 165.3L556.429 169.886C565.7 171.171 573.326 171.137 579.211 169.771C585.096 168.404 589.637 165.668 592.848 161.475C596.059 157.282 598.242 151.582 599.395 144.374C600.491 137.523 600.146 131.745 598.372 126.951C596.599 122.158 593.03 118.207 587.762 115.111C582.493 112.016 575.318 109.839 566.143 108.566L533.073 103.98L531.578 113.323L541.423 114.688C542.092 114.781 542.336 115.088 542.236 115.71L535.715 156.463C535.616 157.086 535.286 157.313 534.617 157.22L524.854 155.957ZM556.504 160.255L548.858 159.195L555.664 116.663L563.31 117.723C572.581 119.009 578.987 121.716 582.541 125.756C586.096 129.797 587.263 135.325 586.138 142.354C585.327 147.426 583.811 151.399 581.593 154.275C579.374 157.151 576.232 159.08 572.167 160.062C568.102 161.045 562.908 161.143 556.6 160.268L556.504 160.255Z" fill="#0123FF"/>
<path d="M611.327 172.231C614.861 179.051 621.887 183.986 632.376 187.121C642.864 190.256 651.663 190.052 658.802 186.422C665.94 182.793 671.237 175.967 674.723 165.86C678.209 155.753 678.171 147.332 674.607 140.598C671.043 133.864 664.017 128.929 653.528 125.793C643.04 122.658 634.241 122.862 627.132 126.406C620.023 129.95 614.726 136.776 611.24 146.883C607.754 156.99 607.793 165.411 611.327 172.231ZM651.751 176.851C647.382 179.513 641.977 179.881 635.629 177.984C629.281 176.086 625.117 172.857 623.229 168.325C621.342 163.792 621.639 157.928 624.091 150.819C629.025 136.515 637.825 131.304 650.522 135.099C663.219 138.894 667.115 147.901 662.181 162.205C659.729 169.315 656.304 174.243 651.935 176.906L651.751 176.851Z" fill="#0123FF"/>
<path d="M692.833 149.823L679.783 203.448L690.822 210.087L731.439 181.392L720.125 227.708L731.164 234.346L778.143 201.124C778.62 200.768 779.183 200.785 779.751 201.127L785.352 204.495L790.857 196.561L768.048 182.844L762.543 190.779L768.874 194.586L736.306 220.303L734.601 219.278L746.147 180.919L753.127 185.117L758.633 177.182L728.031 158.78L722.526 166.715L728.939 170.571L696.127 196.141L694.422 195.116L705.967 156.757L712.948 160.955L718.453 153.02L692.073 137.157L686.568 145.091L692.168 148.459C692.737 148.801 692.985 149.272 692.833 149.823Z" fill="#0123FF"/>
<path d="M759.678 236.039L752 242.29L775.533 267.525L783.212 261.274L774.793 252.247C774.602 252.042 774.484 251.777 774.502 251.521C774.521 251.265 774.604 251.078 774.823 250.899L806.122 225.42L807.142 226.514L788.161 281.066L801.234 295.085L843.137 260.974C843.649 260.557 844.123 260.652 844.57 261.131L851.075 268.106L858.753 261.855L836.113 237.578L828.435 243.828L835.96 251.898C836.407 252.377 836.379 252.761 835.867 253.177L803.69 279.371L802.743 278.218L823.294 223.832L802.312 201.332L794.634 207.583L801.139 214.558C801.585 215.037 801.557 215.421 801.045 215.837L767.553 243.103C767.041 243.52 766.63 243.493 766.184 243.014L759.678 236.039Z" fill="#0123FF"/>
<path d="M145.266 415.327L138.072 422.386L162.842 444.649C169.787 450.89 176.193 455.102 181.99 457.221C187.787 459.339 193.329 459.554 198.685 457.798C204.04 456.042 209.493 452.442 215.043 446.996C220.319 441.819 223.705 436.747 225.27 431.713C226.834 426.678 226.359 421.357 223.917 415.813C221.474 410.268 216.853 404.44 209.98 398.263L185.209 376L178.015 383.059L185.389 389.687C185.89 390.137 185.899 390.532 185.419 391.002L154.038 421.794C153.558 422.264 153.138 422.273 152.637 421.823L145.266 415.327ZM169.031 436.557L163.304 431.41L196.056 399.274L201.783 404.421C208.728 410.663 212.369 416.511 212.775 421.9C213.181 427.289 210.642 432.607 205.229 437.918C201.323 441.75 197.527 444.263 193.841 445.458C190.154 446.653 186.296 446.535 182.268 445.104C178.239 443.673 173.828 440.868 169.103 436.622L169.031 436.557Z" fill="#0123FF"/>
<path d="M224.766 487.677C227.377 493.458 233.058 498.533 241.942 502.862C251.177 507.363 259.084 509.015 265.797 507.778C272.509 506.541 277.942 502.164 282.096 494.648L296.749 468.134C297.068 467.555 297.469 467.436 298.085 467.736L307.232 472.194L312.025 463.521L280.976 448.39L276.183 457.063L285.243 461.478C285.859 461.778 285.986 462.154 285.666 462.732L271.196 488.916C268.503 493.79 265.355 496.659 261.663 497.481C257.971 498.302 253.595 497.533 248.494 495.047C242.952 492.346 239.366 489.34 237.78 485.947C236.195 482.553 236.793 478.441 239.486 473.567L253.956 447.384C254.275 446.805 254.676 446.686 255.292 446.986L264.351 451.401L269.144 442.728L237.04 427.083L232.247 435.755L241.307 440.171C241.922 440.471 242.049 440.847 241.73 441.425L227.077 467.939C222.923 475.456 222.152 482.105 224.763 487.885L224.766 487.677Z" fill="#0123FF"/>
<path d="M301.638 516.6L299.099 526.076L333.696 534.25L336.235 524.774L325.183 522.163C324.51 522.004 324.295 521.665 324.464 521.033L335.01 478.616L337.124 479.116L344.419 532.369L354.798 534.821L389.019 491.376L391.037 491.853L379.05 533.929C378.977 534.2 378.833 534.358 378.592 534.493C378.352 534.628 378.039 534.65 377.751 534.582L365.834 531.767L363.296 541.243L400.583 550.052L403.122 540.576L393.127 538.215C392.454 538.056 392.143 537.694 392.312 537.063L403.385 495.73C403.554 495.098 404.011 494.918 404.684 495.077L414.679 497.438L417.217 487.962L384.543 480.243L356.916 517.377L354.898 516.9L350.234 472.137L315.734 463.986L313.195 473.462L323.093 475.801C323.766 475.96 323.982 476.299 323.813 476.93L312.739 518.263C312.57 518.895 312.209 519.098 311.537 518.939L301.638 516.6Z" fill="#0123FF"/>
<path d="M417.731 541.841L417.065 551.593L465.028 554.481C473.138 554.97 479.469 553.859 484.024 551.149C488.578 548.44 491.045 544.299 491.426 538.727C491.737 534.176 490.488 530.651 487.686 528.057C484.884 525.464 480.232 523.785 473.638 522.922L473.778 520.879C479.453 520.661 483.602 519.512 486.227 517.432C488.852 515.352 490.26 512.173 490.546 507.994C490.895 502.886 489.189 498.774 485.424 495.75C481.658 492.725 476.117 490.993 468.7 490.546L421.429 487.699L420.763 497.45L430.949 498.064C431.641 498.106 431.919 498.402 431.874 499.052L428.969 541.586C428.925 542.236 428.609 542.497 427.917 542.455L417.731 541.841ZM464.363 517.701L444.485 516.503L445.684 498.951L465.561 500.148C469.22 500.369 471.939 501.279 473.815 502.884C475.691 504.489 476.535 506.684 476.351 509.377C476.154 512.256 474.914 514.42 472.729 515.873C470.545 517.327 467.818 518.002 464.554 517.805L464.363 517.701ZM463.512 544.692L442.844 543.447L444.106 524.966L464.774 526.211C469.027 526.467 472.134 527.494 474.202 529.203C476.27 530.913 477.199 533.3 477.095 536.278C476.899 539.157 475.659 541.32 473.276 542.762C470.894 544.204 467.573 544.843 463.321 544.587L463.512 544.692Z" fill="#0123FF"/>
<path d="M538.745 544.397L540.029 554.094L581.331 549.269L580.047 539.572L564.509 541.387C563.821 541.468 563.489 541.225 563.404 540.579L561.043 522.756L584.84 519.975L583.739 511.664L559.942 514.444L557.678 497.36L586.885 493.948C587.18 493.914 587.487 493.972 587.708 494.133C587.929 494.295 588.052 494.468 588.089 494.745L590.735 508.69L601.159 507.472L597.893 482.816L531.613 490.559L532.897 500.255L543.026 499.072C543.714 498.991 544.046 499.234 544.132 499.88L549.735 542.175C549.82 542.822 549.562 543.133 548.873 543.214L538.745 544.397Z" fill="#0123FF"/>
<path d="M610.637 533.596L613.56 542.974L643.423 534.767L640.501 525.389L630.229 528.212L631.577 516.303L662.107 507.912L670.079 517.26L659.808 520.083L662.73 529.461L694.686 520.678L691.764 511.301L685.201 513.104C684.536 513.287 683.977 513.15 683.524 512.692L642.059 468.431L627.698 472.378L618.186 530.649C618.067 531.263 617.675 531.662 617.009 531.845L610.637 533.596ZM655.742 500.741L632.536 507.119L635.645 479.987L637.547 479.465L655.742 500.741Z" fill="#0123FF"/>
<path d="M710.774 508.347C719.077 510.299 727.86 508.951 737.124 504.301C756.614 494.519 761.975 480.644 753.209 462.674L741.323 468.64C744.249 474.768 744.889 480.039 743.378 484.491C741.867 488.943 738.378 492.487 732.96 495.207C727.017 498.19 721.363 498.917 715.952 497.307C710.541 495.696 705.85 491.403 701.833 484.345C697.769 477.204 696.44 471.118 697.846 466.087C699.252 461.055 702.863 457.132 708.718 454.193C719.643 448.71 728.937 451.221 736.735 461.763L748.446 455.885L734.573 431.509L724.26 436.685L733.878 454.966L732.042 455.887C728.539 449.732 724.216 445.887 719.027 444.271C713.837 442.655 707.746 443.602 700.842 447.067C695.511 449.743 691.399 453.179 688.371 457.336C685.344 461.493 683.891 466.443 683.967 472.103C684.042 477.763 685.995 483.958 689.778 490.606C695.43 500.537 702.431 506.52 710.734 508.472L710.774 508.347Z" fill="#0123FF"/>
<path d="M786.497 465.564L793.782 472.54L842.46 427.712L822.199 408.311L814.629 415.283L826.344 427.564C826.83 428.029 826.755 428.489 826.26 428.946L805.034 448.493C804.538 448.949 804.118 448.945 803.632 448.48L790.033 435.457L807.58 419.298L801.335 413.318L783.788 429.477L771.16 417.385L792.245 397.968C792.74 397.512 793.231 397.451 793.717 397.916L804.9 407.429L812.471 400.457L793.945 382.717L746.045 426.828L753.331 433.805L760.618 427.093C761.114 426.637 761.534 426.641 762.02 427.106L793.798 457.537C794.283 458.002 794.279 458.397 793.784 458.853L786.497 465.564Z" fill="#0123FF"/>
</g>
<path fill-rule="evenodd" clip-rule="evenodd" d="M187 341C168.477 341 154.757 335.437 145.66 326.34C136.563 317.243 131 303.523 131 285C131 303.523 125.437 317.243 116.34 326.34C107.243 335.437 93.5228 341 75 341C93.5228 341 107.243 346.563 116.34 355.66C125.437 364.757 131 378.477 131 397C131 378.477 136.563 364.757 145.66 355.66C154.757 346.563 168.477 341 187 341Z" fill="#25FD1E"/>
<path fill-rule="evenodd" clip-rule="evenodd" d="M898 341C879.477 341 865.757 335.437 856.66 326.34C847.563 317.243 842 303.523 842 285C842 303.523 836.437 317.243 827.34 326.34C818.243 335.437 804.523 341 786 341C804.523 341 818.243 346.563 827.34 355.66C836.437 364.757 842 378.477 842 397C842 378.477 847.563 364.757 856.66 355.66C865.757 346.563 879.477 341 898 341Z" fill="#25FD1E"/>
</g>
<defs>
<clipPath id="clip0_34_3147">
<rect width="986" height="647" fill="white"/>
</clipPath>
<clipPath id="clip1_34_3147">
<rect width="734.753" height="454" fill="white" transform="translate(124 102)"/>
</clipPath>
</defs>
</svg>
