<svg width="656" height="496" viewBox="0 0 656 496" fill="none" xmlns="http://www.w3.org/2000/svg">
<path fill-rule="evenodd" clip-rule="evenodd" d="M0 0V153.859H38.4192C14.6585 178.017 1.14441e-05 211.155 1.14441e-05 247.718C1.14441e-05 284.28 14.6585 317.418 38.4192 341.576H1.14441e-05V495.435H542.317C608.562 495.435 655.967 431.671 655.967 361.576C655.967 315.404 635.399 271.981 602.426 247.718C635.399 223.454 655.967 180.031 655.967 133.859C655.967 63.7636 608.562 0 542.317 0H0Z" fill="white"/>
<path d="M18.5 132.859V134.359H20H107.608C56.5447 146.242 18.5 192.037 18.5 246.718C18.5 301.398 56.5446 347.193 107.608 359.076H20H18.5V360.576V474.435V475.935H20H542.317C595.128 475.935 637.467 424 637.467 360.576C637.467 303.458 603.127 255.657 557.725 246.718C602.729 237.857 636.864 190.812 637.459 134.359H637.467V132.859V131.359H637.459C636.798 68.6185 594.711 17.5 542.317 17.5H20H18.5V19V132.859Z" fill="#FCB8FF" stroke="black" stroke-width="3"/>
<line x1="21.7837" y1="133.751" x2="525.973" y2="133.751" stroke="black" stroke-width="3.56738" stroke-linecap="round"/>
<line x1="21.7837" y1="359.216" x2="525.973" y2="359.216" stroke="black" stroke-width="3.56738" stroke-linecap="round"/>
<line x1="116.784" y1="246.216" x2="561.517" y2="246.216" stroke="black" stroke-width="3.56738" stroke-linecap="round"/>
<path d="M84.1499 65.8128L84.1499 65.8128L96.7057 67.1406C96.706 67.1406 96.7062 67.1406 96.7064 67.1406C108.191 68.3326 116.649 70.5182 122.265 74.1166C125.099 75.9321 127.233 78.122 128.65 80.7376C130.066 83.3508 130.722 86.3069 130.722 89.5914M84.1499 65.8128L88.3506 57.8005C98.4786 57.7082 109.315 60.7732 116.396 65.5152L117.828 66.4748L118.58 64.9229L125.473 50.6936L126.05 49.5036L124.941 48.7824C116.315 43.1691 102.593 39.7175 88.1469 39.7175C75.968 39.7175 65.5624 41.7998 58.1437 45.8538C50.6741 49.9356 46.138 56.0934 46.138 64.0792C46.138 70.5764 48.656 75.5655 54.0568 79.1439C59.3234 82.6333 67.2451 84.7256 77.9732 85.8705C77.975 85.8707 77.9768 85.8709 77.9786 85.8711L90.4319 87.2928L90.4371 87.2934C95.5595 87.8599 99.0459 88.5788 101.217 89.4577C103.434 90.3555 103.738 91.1717 103.738 91.6839C103.738 92.4255 103.091 93.522 100.5 94.4879C98.0308 95.4088 94.3345 95.9705 89.6577 95.9705C76.9741 95.9705 62.6945 91.484 55.1841 85.4843L53.8217 84.396L52.9492 85.9056L44.4508 100.609L43.7952 101.744L44.8311 102.546C54.248 109.838 71.9901 114.718 88.4302 114.718C101.014 114.718 111.523 112.294 118.931 107.967C126.369 103.623 130.772 97.2808 130.722 89.5914M84.1499 65.8128L84.1389 65.8117M84.1499 65.8128L84.1389 65.8117M130.722 89.5914C130.722 89.5933 130.722 89.5951 130.722 89.597H129.222L130.722 89.5869C130.722 89.5884 130.722 89.5899 130.722 89.5914ZM84.1389 65.8117C79.8275 65.388 76.8906 64.7869 75.07 64.0425M84.1389 65.8117L75.07 64.0425M75.07 64.0425C73.2413 63.2948 73.0351 62.6356 73.0281 62.2957M75.07 64.0425L73.0281 62.2957M73.0281 62.2957C73.0436 61.9359 73.2237 61.4909 73.8254 60.9661C74.454 60.4179 75.452 59.8715 76.8452 59.3903C79.6231 58.4306 83.6248 57.8471 88.3495 57.8005L73.0281 62.2957ZM134.316 111.225V112.725H135.816H201.537H203.037V111.225V93.1069V91.6069H201.537H161.961V43.3045V41.8045H160.461H135.816H134.316V43.3045V111.225ZM207.242 111.225V112.725H208.742H280.978H282.478V111.225V95.8578V94.3578H280.978H234.132V84.7412H276.257H277.757V83.2412V70.0555V68.5555H276.257H234.132V60.1721H280.034H281.534V58.6721V43.3045V41.8045H280.034H208.742H207.242V43.3045V111.225ZM286.085 111.225V112.725H287.585H359.821H361.321V111.225V95.8578V94.3578H359.821H312.974V84.7412H355.099H356.599V83.2412V70.0555V68.5555H355.099H312.974V60.1721H358.876H360.376V58.6721V43.3045V41.8045H358.876H287.585H286.085V43.3045V111.225ZM364.927 111.225V112.725H366.427H391.072H392.572V111.225V91.9507H420.722C430.538 91.9507 438.395 89.8522 443.842 85.637C449.347 81.3771 452.2 75.1023 452.25 67.2191V67.2096C452.25 59.1489 449.432 52.7091 443.956 48.3234C438.531 43.9788 430.69 41.8045 420.911 41.8045H366.427H364.927V43.3045V111.225ZM392.572 75.0061V58.7492H412.696C416.828 58.7492 419.799 59.5757 421.698 60.9444C423.524 62.2601 424.51 64.1815 424.51 66.8302C424.51 69.5343 423.518 71.4782 421.694 72.802C419.796 74.1793 416.828 75.0061 412.696 75.0061H392.572Z" fill="#25FD1E" stroke="black" stroke-width="3"/>
<path d="M398.553 334.129V335.629H400.053H420.777H422.277V334.129V298.69L452.222 335.082L452.672 335.629H453.38H479.749H481.249V334.129V274.306V272.806H479.749H459.025H457.525V274.306V309.275L427.66 273.347L427.21 272.806H426.506H400.053H398.553V274.306V334.129ZM348.894 337.718C362.385 337.718 373.777 334.47 381.839 328.639C389.939 322.781 394.623 314.343 394.623 304.218C394.623 294.092 389.939 285.654 381.839 279.796C373.777 273.965 362.385 270.718 348.894 270.718C335.445 270.718 324.074 273.965 316.022 279.796C307.933 285.655 303.249 294.092 303.249 304.218C303.249 314.343 307.933 322.78 316.022 328.639C324.074 334.47 335.445 337.718 348.894 337.718ZM348.894 319.344C342.517 319.344 337.319 317.731 333.756 315.059C330.225 312.412 328.238 308.689 328.238 304.218C328.238 299.746 330.225 296.023 333.756 293.376C337.319 290.704 342.517 289.091 348.894 289.091C355.271 289.091 360.492 290.704 364.078 293.378C367.631 296.028 369.635 299.751 369.635 304.218C369.635 308.684 367.631 312.407 364.078 315.057C360.492 317.731 355.271 319.344 348.894 319.344Z" fill="#25FD1E" stroke="black" stroke-width="3"/>
<path d="M44.2495 449.218V450.718H45.7495H68.1913H69.6913V449.218V387.218V385.718H68.1913H45.7495H44.2495V387.218V449.218ZM98.4597 449.218V450.718H99.9597H122.575H124.075V449.218V404.65H146.75H148.25V403.15V387.218V385.718H146.75H75.785H74.285V387.218V403.15V404.65H75.785H98.4597V449.218Z" fill="#25FD1E" stroke="black" stroke-width="3"/>
</svg>
