<svg width="656" height="319" viewBox="0 0 656 319" fill="none" xmlns="http://www.w3.org/2000/svg">
<path fill-rule="evenodd" clip-rule="evenodd" d="M625.314 0H208.291C138.658 0 77.0209 45.0354 55.8589 111.375L2.10544 279.883C-4.06801 299.235 10.3731 319 30.6865 319H447.709C517.342 319 578.979 273.965 600.141 207.625L653.895 39.1172C660.068 19.7645 645.627 0 625.314 0Z" fill="white"/>
<g filter="url(#filter0_di_46_32)">
<path d="M69.9129 111.453C88.4296 53.406 142.362 14 203.291 14H620.314C627.085 14 631.898 20.5882 629.841 27.0391L576.087 195.547C557.57 253.594 503.638 293 442.709 293H25.6865C18.9153 293 14.1016 286.412 16.1594 279.961L69.9129 111.453Z" fill="white"/>
<path d="M72.771 112.365C90.891 55.5616 143.668 17 203.291 17H620.314C625.053 17 628.423 21.6117 626.982 26.1274L573.229 194.635C555.109 251.438 502.332 290 442.709 290H25.6865C20.9466 290 17.5771 285.388 19.0175 280.873L72.771 112.365Z" stroke="#0123FF" stroke-width="6"/>
</g>
<path fill-rule="evenodd" clip-rule="evenodd" d="M610 68C596.439 68 586.393 63.9268 579.733 57.2668C573.073 50.6068 569 40.5613 569 27C569 40.5613 564.927 50.6068 558.267 57.2668C551.607 63.9268 541.561 68 528 68C541.561 68 551.607 72.0732 558.267 78.7332C564.927 85.3932 569 95.4387 569 109C569 95.4387 573.073 85.3932 579.733 78.7332C586.393 72.0732 596.439 68 610 68Z" fill="#F723FB"/>
<path fill-rule="evenodd" clip-rule="evenodd" d="M122 244C108.439 244 98.3932 239.927 91.7332 233.267C85.0732 226.607 81 216.561 81 203C81 216.561 76.9268 226.607 70.2668 233.267C63.6068 239.927 53.5613 244 40 244C53.5613 244 63.6068 248.073 70.2668 254.733C76.9268 261.393 81 271.439 81 285C81 271.439 85.0732 261.393 91.7332 254.733C98.3932 248.073 108.439 244 122 244Z" fill="#0123FF"/>
<mask id="path-6-outside-1_46_32" maskUnits="userSpaceOnUse" x="135.628" y="94.508" width="392" height="158" fill="black">
<rect fill="white" x="135.628" y="94.508" width="392" height="158"/>
<path d="M138.628 163.778H209.433V148.784H162.044V136.474H204.805V123.609H162.044V112.502H208.507V97.508H138.628V163.778Z"/>
<path d="M215.908 163.778H238.677V122.22H238.862L260.335 163.778H280.975L301.707 122.22H301.892V163.778H324.661V97.508H293.007L270.331 142.49H270.146L247.192 97.508H215.908V163.778Z"/>
<path d="M333.953 163.778H358.11V143.508H387.172C406.053 143.508 416.512 135.456 416.605 120.832C416.605 105.838 406.146 97.508 387.357 97.508H333.953V163.778ZM358.11 129.902V111.114H379.305C387.727 111.114 392.355 114.446 392.355 120.462C392.355 126.57 387.727 129.902 379.305 129.902H358.11Z"/>
<path d="M444.921 163.778H469.078V114.538H494.901V97.508H419.098V114.538H444.921V163.778Z"/>
<path d="M500.354 163.778H524.326V97.508H500.354V163.778Z"/>
<path d="M138.628 246.778H161.396V202.999H161.489L197.215 246.778H226.185V180.508H203.417V223.731H203.324L167.69 180.508H138.628V246.778Z"/>
<path d="M235.432 246.778H306.237V231.784H258.848V219.474H301.609V206.609H258.848V195.502H305.311V180.508H235.432V246.778Z"/>
<path d="M351.77 248.721C376.112 248.721 391.847 239.373 391.754 225.675C391.754 213.643 382.128 207.534 359.73 205.22L347.42 203.925C338.905 203.092 335.203 201.518 335.203 199.019C335.295 195.502 342.237 193.281 351.678 193.188C361.859 193.096 372.78 196.15 380 200.963L386.756 187.079C378.611 181.804 365.468 178.472 351.493 178.472C327.891 178.472 311.786 186.524 311.786 200.778C311.786 212.532 320.764 218.363 341.682 220.585L353.899 221.973C363.988 223.084 368.245 224.842 368.245 227.711C368.245 231.136 362.322 233.357 352.973 233.357C340.293 233.357 325.947 228.915 318.265 222.806L309.935 237.152C318.82 244.001 335.851 248.721 351.77 248.721Z"/>
<path d="M437.276 248.721C461.618 248.721 477.352 239.373 477.26 225.675C477.26 213.643 467.634 207.534 445.235 205.22L432.926 203.925C424.41 203.092 420.708 201.518 420.708 199.019C420.801 195.502 427.742 193.281 437.183 193.188C447.364 193.096 458.286 196.15 465.505 200.963L472.262 187.079C464.117 181.804 450.974 178.472 436.998 178.472C413.396 178.472 397.292 186.524 397.292 200.778C397.292 212.532 406.27 218.363 427.187 220.585L439.404 221.973C449.493 223.084 453.751 224.842 453.751 227.711C453.751 231.136 447.827 233.357 438.479 233.357C425.799 233.357 411.453 228.915 403.771 222.806L395.441 237.152C404.326 244.001 421.356 248.721 437.276 248.721Z"/>
</mask>
<path d="M138.628 163.778H209.433V148.784H162.044V136.474H204.805V123.609H162.044V112.502H208.507V97.508H138.628V163.778Z" fill="#FCB8FF"/>
<path d="M215.908 163.778H238.677V122.22H238.862L260.335 163.778H280.975L301.707 122.22H301.892V163.778H324.661V97.508H293.007L270.331 142.49H270.146L247.192 97.508H215.908V163.778Z" fill="#FCB8FF"/>
<path d="M333.953 163.778H358.11V143.508H387.172C406.053 143.508 416.512 135.456 416.605 120.832C416.605 105.838 406.146 97.508 387.357 97.508H333.953V163.778ZM358.11 129.902V111.114H379.305C387.727 111.114 392.355 114.446 392.355 120.462C392.355 126.57 387.727 129.902 379.305 129.902H358.11Z" fill="#FCB8FF"/>
<path d="M444.921 163.778H469.078V114.538H494.901V97.508H419.098V114.538H444.921V163.778Z" fill="#FCB8FF"/>
<path d="M500.354 163.778H524.326V97.508H500.354V163.778Z" fill="#FCB8FF"/>
<path d="M138.628 246.778H161.396V202.999H161.489L197.215 246.778H226.185V180.508H203.417V223.731H203.324L167.69 180.508H138.628V246.778Z" fill="#FCB8FF"/>
<path d="M235.432 246.778H306.237V231.784H258.848V219.474H301.609V206.609H258.848V195.502H305.311V180.508H235.432V246.778Z" fill="#FCB8FF"/>
<path d="M351.77 248.721C376.112 248.721 391.847 239.373 391.754 225.675C391.754 213.643 382.128 207.534 359.73 205.22L347.42 203.925C338.905 203.092 335.203 201.518 335.203 199.019C335.295 195.502 342.237 193.281 351.678 193.188C361.859 193.096 372.78 196.15 380 200.963L386.756 187.079C378.611 181.804 365.468 178.472 351.493 178.472C327.891 178.472 311.786 186.524 311.786 200.778C311.786 212.532 320.764 218.363 341.682 220.585L353.899 221.973C363.988 223.084 368.245 224.842 368.245 227.711C368.245 231.136 362.322 233.357 352.973 233.357C340.293 233.357 325.947 228.915 318.265 222.806L309.935 237.152C318.82 244.001 335.851 248.721 351.77 248.721Z" fill="#FCB8FF"/>
<path d="M437.276 248.721C461.618 248.721 477.352 239.373 477.26 225.675C477.26 213.643 467.634 207.534 445.235 205.22L432.926 203.925C424.41 203.092 420.708 201.518 420.708 199.019C420.801 195.502 427.742 193.281 437.183 193.188C447.364 193.096 458.286 196.15 465.505 200.963L472.262 187.079C464.117 181.804 450.974 178.472 436.998 178.472C413.396 178.472 397.292 186.524 397.292 200.778C397.292 212.532 406.27 218.363 427.187 220.585L439.404 221.973C449.493 223.084 453.751 224.842 453.751 227.711C453.751 231.136 447.827 233.357 438.479 233.357C425.799 233.357 411.453 228.915 403.771 222.806L395.441 237.152C404.326 244.001 421.356 248.721 437.276 248.721Z" fill="#FCB8FF"/>
<path d="M138.628 163.778H209.433V148.784H162.044V136.474H204.805V123.609H162.044V112.502H208.507V97.508H138.628V163.778Z" stroke="black" stroke-width="6" mask="url(#path-6-outside-1_46_32)"/>
<path d="M215.908 163.778H238.677V122.22H238.862L260.335 163.778H280.975L301.707 122.22H301.892V163.778H324.661V97.508H293.007L270.331 142.49H270.146L247.192 97.508H215.908V163.778Z" stroke="black" stroke-width="6" mask="url(#path-6-outside-1_46_32)"/>
<path d="M333.953 163.778H358.11V143.508H387.172C406.053 143.508 416.512 135.456 416.605 120.832C416.605 105.838 406.146 97.508 387.357 97.508H333.953V163.778ZM358.11 129.902V111.114H379.305C387.727 111.114 392.355 114.446 392.355 120.462C392.355 126.57 387.727 129.902 379.305 129.902H358.11Z" stroke="black" stroke-width="6" mask="url(#path-6-outside-1_46_32)"/>
<path d="M444.921 163.778H469.078V114.538H494.901V97.508H419.098V114.538H444.921V163.778Z" stroke="black" stroke-width="6" mask="url(#path-6-outside-1_46_32)"/>
<path d="M500.354 163.778H524.326V97.508H500.354V163.778Z" stroke="black" stroke-width="6" mask="url(#path-6-outside-1_46_32)"/>
<path d="M138.628 246.778H161.396V202.999H161.489L197.215 246.778H226.185V180.508H203.417V223.731H203.324L167.69 180.508H138.628V246.778Z" stroke="black" stroke-width="6" mask="url(#path-6-outside-1_46_32)"/>
<path d="M235.432 246.778H306.237V231.784H258.848V219.474H301.609V206.609H258.848V195.502H305.311V180.508H235.432V246.778Z" stroke="black" stroke-width="6" mask="url(#path-6-outside-1_46_32)"/>
<path d="M351.77 248.721C376.112 248.721 391.847 239.373 391.754 225.675C391.754 213.643 382.128 207.534 359.73 205.22L347.42 203.925C338.905 203.092 335.203 201.518 335.203 199.019C335.295 195.502 342.237 193.281 351.678 193.188C361.859 193.096 372.78 196.15 380 200.963L386.756 187.079C378.611 181.804 365.468 178.472 351.493 178.472C327.891 178.472 311.786 186.524 311.786 200.778C311.786 212.532 320.764 218.363 341.682 220.585L353.899 221.973C363.988 223.084 368.245 224.842 368.245 227.711C368.245 231.136 362.322 233.357 352.973 233.357C340.293 233.357 325.947 228.915 318.265 222.806L309.935 237.152C318.82 244.001 335.851 248.721 351.77 248.721Z" stroke="black" stroke-width="6" mask="url(#path-6-outside-1_46_32)"/>
<path d="M437.276 248.721C461.618 248.721 477.352 239.373 477.26 225.675C477.26 213.643 467.634 207.534 445.235 205.22L432.926 203.925C424.41 203.092 420.708 201.518 420.708 199.019C420.801 195.502 427.742 193.281 437.183 193.188C447.364 193.096 458.286 196.15 465.505 200.963L472.262 187.079C464.117 181.804 450.974 178.472 436.998 178.472C413.396 178.472 397.292 186.524 397.292 200.778C397.292 212.532 406.27 218.363 427.187 220.585L439.404 221.973C449.493 223.084 453.751 224.842 453.751 227.711C453.751 231.136 447.827 233.357 438.479 233.357C425.799 233.357 411.453 228.915 403.771 222.806L395.441 237.152C404.326 244.001 421.356 248.721 437.276 248.721Z" stroke="black" stroke-width="6" mask="url(#path-6-outside-1_46_32)"/>
<mask id="path-7-outside-2_46_32" maskUnits="userSpaceOnUse" x="135.628" y="78.6191" width="392" height="158" fill="black">
<rect fill="white" x="135.628" y="78.6191" width="392" height="158"/>
<path d="M138.628 147.889H209.433V132.895H162.044V120.585H204.805V107.72H162.044V96.6131H208.507V81.6191H138.628V147.889Z"/>
<path d="M215.908 147.889H238.677V106.331H238.862L260.335 147.889H280.975L301.707 106.331H301.892V147.889H324.661V81.6191H293.007L270.331 126.601H270.146L247.192 81.6191H215.908V147.889Z"/>
<path d="M333.953 147.889H358.11V127.619H387.172C406.053 127.619 416.512 119.567 416.605 104.943C416.605 89.9491 406.146 81.6191 387.357 81.6191H333.953V147.889ZM358.11 114.014V95.2248H379.305C387.727 95.2248 392.355 98.5568 392.355 104.573C392.355 110.682 387.727 114.014 379.305 114.014H358.11Z"/>
<path d="M444.921 147.889H469.078V98.6493H494.901V81.6191H419.098V98.6493H444.921V147.889Z"/>
<path d="M500.354 147.889H524.326V81.6191H500.354V147.889Z"/>
<path d="M138.628 230.889H161.396V187.11H161.489L197.215 230.889H226.185V164.619H203.417V207.843H203.324L167.69 164.619H138.628V230.889Z"/>
<path d="M235.432 230.889H306.237V215.895H258.848V203.585H301.609V190.72H258.848V179.613H305.311V164.619H235.432V230.889Z"/>
<path d="M351.77 232.833C376.112 232.833 391.847 223.484 391.754 209.786C391.754 197.754 382.128 191.645 359.73 189.331L347.42 188.036C338.905 187.203 335.203 185.629 335.203 183.13C335.295 179.613 342.237 177.392 351.678 177.299C361.859 177.207 372.78 180.261 380 185.074L386.756 171.191C378.611 165.915 365.468 162.583 351.493 162.583C327.891 162.583 311.786 170.635 311.786 184.889C311.786 196.643 320.764 202.474 341.682 204.696L353.899 206.084C363.988 207.195 368.245 208.953 368.245 211.822C368.245 215.247 362.322 217.468 352.973 217.468C340.293 217.468 325.947 213.026 318.265 206.917L309.935 221.263C318.82 228.112 335.851 232.833 351.77 232.833Z"/>
<path d="M437.276 232.833C461.618 232.833 477.352 223.484 477.26 209.786C477.26 197.754 467.634 191.645 445.235 189.331L432.926 188.036C424.41 187.203 420.708 185.629 420.708 183.13C420.801 179.613 427.742 177.392 437.183 177.299C447.364 177.207 458.286 180.261 465.505 185.074L472.262 171.191C464.117 165.915 450.974 162.583 436.998 162.583C413.396 162.583 397.292 170.635 397.292 184.889C397.292 196.643 406.27 202.474 427.187 204.696L439.404 206.084C449.493 207.195 453.751 208.953 453.751 211.822C453.751 215.247 447.827 217.468 438.479 217.468C425.799 217.468 411.453 213.026 403.771 206.917L395.441 221.263C404.326 228.112 421.356 232.833 437.276 232.833Z"/>
</mask>
<path d="M138.628 147.889H209.433V132.895H162.044V120.585H204.805V107.72H162.044V96.6131H208.507V81.6191H138.628V147.889Z" fill="#25FD1E"/>
<path d="M215.908 147.889H238.677V106.331H238.862L260.335 147.889H280.975L301.707 106.331H301.892V147.889H324.661V81.6191H293.007L270.331 126.601H270.146L247.192 81.6191H215.908V147.889Z" fill="#25FD1E"/>
<path d="M333.953 147.889H358.11V127.619H387.172C406.053 127.619 416.512 119.567 416.605 104.943C416.605 89.9491 406.146 81.6191 387.357 81.6191H333.953V147.889ZM358.11 114.014V95.2248H379.305C387.727 95.2248 392.355 98.5568 392.355 104.573C392.355 110.682 387.727 114.014 379.305 114.014H358.11Z" fill="#25FD1E"/>
<path d="M444.921 147.889H469.078V98.6493H494.901V81.6191H419.098V98.6493H444.921V147.889Z" fill="#25FD1E"/>
<path d="M500.354 147.889H524.326V81.6191H500.354V147.889Z" fill="#25FD1E"/>
<path d="M138.628 230.889H161.396V187.11H161.489L197.215 230.889H226.185V164.619H203.417V207.843H203.324L167.69 164.619H138.628V230.889Z" fill="#25FD1E"/>
<path d="M235.432 230.889H306.237V215.895H258.848V203.585H301.609V190.72H258.848V179.613H305.311V164.619H235.432V230.889Z" fill="#25FD1E"/>
<path d="M351.77 232.833C376.112 232.833 391.847 223.484 391.754 209.786C391.754 197.754 382.128 191.645 359.73 189.331L347.42 188.036C338.905 187.203 335.203 185.629 335.203 183.13C335.295 179.613 342.237 177.392 351.678 177.299C361.859 177.207 372.78 180.261 380 185.074L386.756 171.191C378.611 165.915 365.468 162.583 351.493 162.583C327.891 162.583 311.786 170.635 311.786 184.889C311.786 196.643 320.764 202.474 341.682 204.696L353.899 206.084C363.988 207.195 368.245 208.953 368.245 211.822C368.245 215.247 362.322 217.468 352.973 217.468C340.293 217.468 325.947 213.026 318.265 206.917L309.935 221.263C318.82 228.112 335.851 232.833 351.77 232.833Z" fill="#25FD1E"/>
<path d="M437.276 232.833C461.618 232.833 477.352 223.484 477.26 209.786C477.26 197.754 467.634 191.645 445.235 189.331L432.926 188.036C424.41 187.203 420.708 185.629 420.708 183.13C420.801 179.613 427.742 177.392 437.183 177.299C447.364 177.207 458.286 180.261 465.505 185.074L472.262 171.191C464.117 165.915 450.974 162.583 436.998 162.583C413.396 162.583 397.292 170.635 397.292 184.889C397.292 196.643 406.27 202.474 427.187 204.696L439.404 206.084C449.493 207.195 453.751 208.953 453.751 211.822C453.751 215.247 447.827 217.468 438.479 217.468C425.799 217.468 411.453 213.026 403.771 206.917L395.441 221.263C404.326 228.112 421.356 232.833 437.276 232.833Z" fill="#25FD1E"/>
<path d="M138.628 147.889H209.433V132.895H162.044V120.585H204.805V107.72H162.044V96.6131H208.507V81.6191H138.628V147.889Z" stroke="black" stroke-width="6" mask="url(#path-7-outside-2_46_32)"/>
<path d="M215.908 147.889H238.677V106.331H238.862L260.335 147.889H280.975L301.707 106.331H301.892V147.889H324.661V81.6191H293.007L270.331 126.601H270.146L247.192 81.6191H215.908V147.889Z" stroke="black" stroke-width="6" mask="url(#path-7-outside-2_46_32)"/>
<path d="M333.953 147.889H358.11V127.619H387.172C406.053 127.619 416.512 119.567 416.605 104.943C416.605 89.9491 406.146 81.6191 387.357 81.6191H333.953V147.889ZM358.11 114.014V95.2248H379.305C387.727 95.2248 392.355 98.5568 392.355 104.573C392.355 110.682 387.727 114.014 379.305 114.014H358.11Z" stroke="black" stroke-width="6" mask="url(#path-7-outside-2_46_32)"/>
<path d="M444.921 147.889H469.078V98.6493H494.901V81.6191H419.098V98.6493H444.921V147.889Z" stroke="black" stroke-width="6" mask="url(#path-7-outside-2_46_32)"/>
<path d="M500.354 147.889H524.326V81.6191H500.354V147.889Z" stroke="black" stroke-width="6" mask="url(#path-7-outside-2_46_32)"/>
<path d="M138.628 230.889H161.396V187.11H161.489L197.215 230.889H226.185V164.619H203.417V207.843H203.324L167.69 164.619H138.628V230.889Z" stroke="black" stroke-width="6" mask="url(#path-7-outside-2_46_32)"/>
<path d="M235.432 230.889H306.237V215.895H258.848V203.585H301.609V190.72H258.848V179.613H305.311V164.619H235.432V230.889Z" stroke="black" stroke-width="6" mask="url(#path-7-outside-2_46_32)"/>
<path d="M351.77 232.833C376.112 232.833 391.847 223.484 391.754 209.786C391.754 197.754 382.128 191.645 359.73 189.331L347.42 188.036C338.905 187.203 335.203 185.629 335.203 183.13C335.295 179.613 342.237 177.392 351.678 177.299C361.859 177.207 372.78 180.261 380 185.074L386.756 171.191C378.611 165.915 365.468 162.583 351.493 162.583C327.891 162.583 311.786 170.635 311.786 184.889C311.786 196.643 320.764 202.474 341.682 204.696L353.899 206.084C363.988 207.195 368.245 208.953 368.245 211.822C368.245 215.247 362.322 217.468 352.973 217.468C340.293 217.468 325.947 213.026 318.265 206.917L309.935 221.263C318.82 228.112 335.851 232.833 351.77 232.833Z" stroke="black" stroke-width="6" mask="url(#path-7-outside-2_46_32)"/>
<path d="M437.276 232.833C461.618 232.833 477.352 223.484 477.26 209.786C477.26 197.754 467.634 191.645 445.235 189.331L432.926 188.036C424.41 187.203 420.708 185.629 420.708 183.13C420.801 179.613 427.742 177.392 437.183 177.299C447.364 177.207 458.286 180.261 465.505 185.074L472.262 171.191C464.117 165.915 450.974 162.583 436.998 162.583C413.396 162.583 397.292 170.635 397.292 184.889C397.292 196.643 406.27 202.474 427.187 204.696L439.404 206.084C449.493 207.195 453.751 208.953 453.751 211.822C453.751 215.247 447.827 217.468 438.479 217.468C425.799 217.468 411.453 213.026 403.771 206.917L395.441 221.263C404.326 228.112 421.356 232.833 437.276 232.833Z" stroke="black" stroke-width="6" mask="url(#path-7-outside-2_46_32)"/>
<mask id="path-8-outside-3_46_32" maskUnits="userSpaceOnUse" x="135.628" y="62.7302" width="392" height="158" fill="black">
<rect fill="white" x="135.628" y="62.7302" width="392" height="158"/>
<path d="M138.628 132H209.433V117.006H162.044V104.696H204.805V91.8309H162.044V80.7242H208.507V65.7302H138.628V132Z"/>
<path d="M215.908 132H238.677V90.4426H238.862L260.335 132H280.975L301.707 90.4426H301.892V132H324.661V65.7302H293.007L270.331 110.712H270.146L247.192 65.7302H215.908V132Z"/>
<path d="M333.953 132H358.11V111.73H387.172C406.053 111.73 416.512 103.678 416.605 89.0542C416.605 74.0602 406.146 65.7302 387.357 65.7302H333.953V132ZM358.11 98.1247V79.3359H379.305C387.727 79.3359 392.355 82.6679 392.355 88.684C392.355 94.7927 387.727 98.1247 379.305 98.1247H358.11Z"/>
<path d="M444.921 132H469.078V82.7604H494.901V65.7302H419.098V82.7604H444.921V132Z"/>
<path d="M500.354 132H524.326V65.7302H500.354V132Z"/>
<path d="M138.628 215H161.397V171.221H161.489L197.216 215H226.185V148.73H203.417V191.954H203.324L167.69 148.73H138.628V215Z"/>
<path d="M235.432 215H306.237V200.006H258.848V187.696H301.609V174.831H258.848V163.724H305.311V148.73H235.432V215Z"/>
<path d="M351.77 216.944C376.112 216.944 391.847 207.596 391.754 193.897C391.754 181.865 382.129 175.756 359.73 173.443L347.42 172.147C338.905 171.314 335.203 169.74 335.203 167.241C335.295 163.724 342.237 161.503 351.678 161.41C361.859 161.318 372.78 164.372 380 169.185L386.756 155.302C378.611 150.026 365.469 146.694 351.493 146.694C327.891 146.694 311.786 154.746 311.786 169C311.786 180.754 320.764 186.585 341.682 188.807L353.899 190.195C363.988 191.306 368.245 193.064 368.245 195.934C368.245 199.358 362.322 201.579 352.974 201.579C340.293 201.579 325.947 197.137 318.265 191.028L309.935 205.374C318.821 212.223 335.851 216.944 351.77 216.944Z"/>
<path d="M437.276 216.944C461.618 216.944 477.352 207.596 477.26 193.897C477.26 181.865 467.634 175.756 445.236 173.443L432.926 172.147C424.411 171.314 420.708 169.74 420.708 167.241C420.801 163.724 427.743 161.503 437.183 161.41C447.364 161.318 458.286 164.372 465.505 169.185L472.262 155.302C464.117 150.026 450.974 146.694 436.998 146.694C413.396 146.694 397.292 154.746 397.292 169C397.292 180.754 406.27 186.585 427.187 188.807L439.405 190.195C449.493 191.306 453.751 193.064 453.751 195.934C453.751 199.358 447.827 201.579 438.479 201.579C425.799 201.579 411.453 197.137 403.771 191.028L395.441 205.374C404.326 212.223 421.356 216.944 437.276 216.944Z"/>
</mask>
<path d="M138.628 132H209.433V117.006H162.044V104.696H204.805V91.8309H162.044V80.7242H208.507V65.7302H138.628V132Z" fill="white"/>
<path d="M215.908 132H238.677V90.4426H238.862L260.335 132H280.975L301.707 90.4426H301.892V132H324.661V65.7302H293.007L270.331 110.712H270.146L247.192 65.7302H215.908V132Z" fill="white"/>
<path d="M333.953 132H358.11V111.73H387.172C406.053 111.73 416.512 103.678 416.605 89.0542C416.605 74.0602 406.146 65.7302 387.357 65.7302H333.953V132ZM358.11 98.1247V79.3359H379.305C387.727 79.3359 392.355 82.6679 392.355 88.684C392.355 94.7927 387.727 98.1247 379.305 98.1247H358.11Z" fill="white"/>
<path d="M444.921 132H469.078V82.7604H494.901V65.7302H419.098V82.7604H444.921V132Z" fill="white"/>
<path d="M500.354 132H524.326V65.7302H500.354V132Z" fill="white"/>
<path d="M138.628 215H161.397V171.221H161.489L197.216 215H226.185V148.73H203.417V191.954H203.324L167.69 148.73H138.628V215Z" fill="white"/>
<path d="M235.432 215H306.237V200.006H258.848V187.696H301.609V174.831H258.848V163.724H305.311V148.73H235.432V215Z" fill="white"/>
<path d="M351.77 216.944C376.112 216.944 391.847 207.596 391.754 193.897C391.754 181.865 382.129 175.756 359.73 173.443L347.42 172.147C338.905 171.314 335.203 169.74 335.203 167.241C335.295 163.724 342.237 161.503 351.678 161.41C361.859 161.318 372.78 164.372 380 169.185L386.756 155.302C378.611 150.026 365.469 146.694 351.493 146.694C327.891 146.694 311.786 154.746 311.786 169C311.786 180.754 320.764 186.585 341.682 188.807L353.899 190.195C363.988 191.306 368.245 193.064 368.245 195.934C368.245 199.358 362.322 201.579 352.974 201.579C340.293 201.579 325.947 197.137 318.265 191.028L309.935 205.374C318.821 212.223 335.851 216.944 351.77 216.944Z" fill="white"/>
<path d="M437.276 216.944C461.618 216.944 477.352 207.596 477.26 193.897C477.26 181.865 467.634 175.756 445.236 173.443L432.926 172.147C424.411 171.314 420.708 169.74 420.708 167.241C420.801 163.724 427.743 161.503 437.183 161.41C447.364 161.318 458.286 164.372 465.505 169.185L472.262 155.302C464.117 150.026 450.974 146.694 436.998 146.694C413.396 146.694 397.292 154.746 397.292 169C397.292 180.754 406.27 186.585 427.187 188.807L439.405 190.195C449.493 191.306 453.751 193.064 453.751 195.934C453.751 199.358 447.827 201.579 438.479 201.579C425.799 201.579 411.453 197.137 403.771 191.028L395.441 205.374C404.326 212.223 421.356 216.944 437.276 216.944Z" fill="white"/>
<path d="M138.628 132H209.433V117.006H162.044V104.696H204.805V91.8309H162.044V80.7242H208.507V65.7302H138.628V132Z" stroke="black" stroke-width="6" mask="url(#path-8-outside-3_46_32)"/>
<path d="M215.908 132H238.677V90.4426H238.862L260.335 132H280.975L301.707 90.4426H301.892V132H324.661V65.7302H293.007L270.331 110.712H270.146L247.192 65.7302H215.908V132Z" stroke="black" stroke-width="6" mask="url(#path-8-outside-3_46_32)"/>
<path d="M333.953 132H358.11V111.73H387.172C406.053 111.73 416.512 103.678 416.605 89.0542C416.605 74.0602 406.146 65.7302 387.357 65.7302H333.953V132ZM358.11 98.1247V79.3359H379.305C387.727 79.3359 392.355 82.6679 392.355 88.684C392.355 94.7927 387.727 98.1247 379.305 98.1247H358.11Z" stroke="black" stroke-width="6" mask="url(#path-8-outside-3_46_32)"/>
<path d="M444.921 132H469.078V82.7604H494.901V65.7302H419.098V82.7604H444.921V132Z" stroke="black" stroke-width="6" mask="url(#path-8-outside-3_46_32)"/>
<path d="M500.354 132H524.326V65.7302H500.354V132Z" stroke="black" stroke-width="6" mask="url(#path-8-outside-3_46_32)"/>
<path d="M138.628 215H161.397V171.221H161.489L197.216 215H226.185V148.73H203.417V191.954H203.324L167.69 148.73H138.628V215Z" stroke="black" stroke-width="6" mask="url(#path-8-outside-3_46_32)"/>
<path d="M235.432 215H306.237V200.006H258.848V187.696H301.609V174.831H258.848V163.724H305.311V148.73H235.432V215Z" stroke="black" stroke-width="6" mask="url(#path-8-outside-3_46_32)"/>
<path d="M351.77 216.944C376.112 216.944 391.847 207.596 391.754 193.897C391.754 181.865 382.129 175.756 359.73 173.443L347.42 172.147C338.905 171.314 335.203 169.74 335.203 167.241C335.295 163.724 342.237 161.503 351.678 161.41C361.859 161.318 372.78 164.372 380 169.185L386.756 155.302C378.611 150.026 365.469 146.694 351.493 146.694C327.891 146.694 311.786 154.746 311.786 169C311.786 180.754 320.764 186.585 341.682 188.807L353.899 190.195C363.988 191.306 368.245 193.064 368.245 195.934C368.245 199.358 362.322 201.579 352.974 201.579C340.293 201.579 325.947 197.137 318.265 191.028L309.935 205.374C318.821 212.223 335.851 216.944 351.77 216.944Z" stroke="black" stroke-width="6" mask="url(#path-8-outside-3_46_32)"/>
<path d="M437.276 216.944C461.618 216.944 477.352 207.596 477.26 193.897C477.26 181.865 467.634 175.756 445.236 173.443L432.926 172.147C424.411 171.314 420.708 169.74 420.708 167.241C420.801 163.724 427.743 161.503 437.183 161.41C447.364 161.318 458.286 164.372 465.505 169.185L472.262 155.302C464.117 150.026 450.974 146.694 436.998 146.694C413.396 146.694 397.292 154.746 397.292 169C397.292 180.754 406.27 186.585 427.187 188.807L439.405 190.195C449.493 191.306 453.751 193.064 453.751 195.934C453.751 199.358 447.827 201.579 438.479 201.579C425.799 201.579 411.453 197.137 403.771 191.028L395.441 205.374C404.326 212.223 421.356 216.944 437.276 216.944Z" stroke="black" stroke-width="6" mask="url(#path-8-outside-3_46_32)"/>
<defs>
<filter id="filter0_di_46_32" x="15.6792" y="14" width="620.642" height="288" filterUnits="userSpaceOnUse" color-interpolation-filters="sRGB">
<feFlood flood-opacity="0" result="BackgroundImageFix"/>
<feColorMatrix in="SourceAlpha" type="matrix" values="0 0 0 0 0 0 0 0 0 0 0 0 0 0 0 0 0 0 127 0" result="hardAlpha"/>
<feOffset dx="6" dy="9"/>
<feComposite in2="hardAlpha" operator="out"/>
<feColorMatrix type="matrix" values="0 0 0 0 0.145098 0 0 0 0 0.992157 0 0 0 0 0.117647 0 0 0 1 0"/>
<feBlend mode="normal" in2="BackgroundImageFix" result="effect1_dropShadow_46_32"/>
<feBlend mode="normal" in="SourceGraphic" in2="effect1_dropShadow_46_32" result="shape"/>
<feColorMatrix in="SourceAlpha" type="matrix" values="0 0 0 0 0 0 0 0 0 0 0 0 0 0 0 0 0 0 127 0" result="hardAlpha"/>
<feOffset dx="10" dy="14"/>
<feComposite in2="hardAlpha" operator="arithmetic" k2="-1" k3="1"/>
<feColorMatrix type="matrix" values="0 0 0 0 0.145098 0 0 0 0 0.992157 0 0 0 0 0.117647 0 0 0 1 0"/>
<feBlend mode="normal" in2="shape" result="effect2_innerShadow_46_32"/>
</filter>
</defs>
</svg>
