<svg width="415" height="415" viewBox="0 0 415 415" fill="none" xmlns="http://www.w3.org/2000/svg">
<g clip-path="url(#clip0_47_2796)">
<circle cx="207.5" cy="207.5" r="207.5" fill="white"/>
<mask id="path-2-inside-1_47_2796" fill="white">
<path d="M388.752 207.5C388.752 307.603 307.603 388.752 207.5 388.752C107.397 388.752 26.2478 307.603 26.2478 207.5C26.2478 107.397 107.397 26.248 207.5 26.248C307.603 26.248 388.752 107.397 388.752 207.5ZM150.238 207.5C150.238 239.125 175.875 264.762 207.5 264.762C239.125 264.762 264.762 239.125 264.762 207.5C264.762 175.875 239.125 150.238 207.5 150.238C175.875 150.238 150.238 175.875 150.238 207.5Z"/>
</mask>
<path d="M388.752 207.5C388.752 307.603 307.603 388.752 207.5 388.752C107.397 388.752 26.2478 307.603 26.2478 207.5C26.2478 107.397 107.397 26.248 207.5 26.248C307.603 26.248 388.752 107.397 388.752 207.5ZM150.238 207.5C150.238 239.125 175.875 264.762 207.5 264.762C239.125 264.762 264.762 239.125 264.762 207.5C264.762 175.875 239.125 150.238 207.5 150.238C175.875 150.238 150.238 175.875 150.238 207.5Z" fill="#FFEA01" stroke="black" stroke-width="6" mask="url(#path-2-inside-1_47_2796)"/>
<path d="M356.104 140.848C356.104 147.678 350.567 153.215 343.737 153.215C336.908 153.215 331.371 147.678 331.371 140.848C331.371 134.019 336.908 128.482 343.737 128.482C350.567 128.482 356.104 134.019 356.104 140.848Z" stroke="#0123FF" stroke-width="0.638769"/>
<path d="M345.833 140.848C345.833 142.006 344.895 142.944 343.737 142.944C342.58 142.944 341.641 142.006 341.641 140.848C341.641 139.691 342.58 138.753 343.737 138.753C344.895 138.753 345.833 139.691 345.833 140.848Z" stroke="#0123FF" stroke-width="0.638769"/>
<path d="M347.929 140.848C347.929 143.164 346.053 145.04 343.737 145.04C341.422 145.04 339.545 143.164 339.545 140.848C339.545 138.533 341.422 136.657 343.737 136.657C346.053 136.657 347.929 138.533 347.929 140.848Z" stroke="#0123FF" stroke-width="0.638769"/>
<path d="M350.025 140.848C350.025 144.321 347.21 147.136 343.737 147.136C340.265 147.136 337.449 144.321 337.449 140.848C337.449 137.376 340.265 134.561 343.737 134.561C347.21 134.561 350.025 137.376 350.025 140.848Z" stroke="#0123FF" stroke-width="0.638769"/>
<path d="M352.121 140.848C352.121 145.479 348.368 149.232 343.737 149.232C339.107 149.232 335.354 145.479 335.354 140.848C335.354 136.218 339.107 132.465 343.737 132.465C348.368 132.465 352.121 136.218 352.121 140.848Z" stroke="#0123FF" stroke-width="0.638769"/>
<path d="M354.217 140.848C354.217 146.636 349.525 151.328 343.737 151.328C337.95 151.328 333.258 146.636 333.258 140.848C333.258 135.061 337.95 130.369 343.737 130.369C349.525 130.369 354.217 135.061 354.217 140.848Z" stroke="#0123FF" stroke-width="0.638769"/>
<path d="M81.1135 140.848C81.1135 147.678 75.577 153.215 68.7473 153.215C61.9177 153.215 56.3812 147.678 56.3812 140.848C56.3812 134.019 61.9177 128.482 68.7473 128.482C75.577 128.482 81.1135 134.019 81.1135 140.848Z" stroke="#0123FF" stroke-width="0.638769"/>
<path d="M70.8433 140.848C70.8433 142.006 69.9049 142.944 68.7473 142.944C67.5898 142.944 66.6514 142.006 66.6514 140.848C66.6514 139.691 67.5898 138.753 68.7473 138.753C69.9049 138.753 70.8433 139.691 70.8433 140.848Z" stroke="#0123FF" stroke-width="0.638769"/>
<path d="M72.9392 140.848C72.9392 143.164 71.0625 145.04 68.7473 145.04C66.4322 145.04 64.5554 143.164 64.5554 140.848C64.5554 138.533 66.4322 136.657 68.7473 136.657C71.0625 136.657 72.9392 138.533 72.9392 140.848Z" stroke="#0123FF" stroke-width="0.638769"/>
<path d="M75.0352 140.848C75.0352 144.321 72.22 147.136 68.7473 147.136C65.2746 147.136 62.4594 144.321 62.4594 140.848C62.4594 137.376 65.2746 134.561 68.7473 134.561C72.22 134.561 75.0352 137.376 75.0352 140.848Z" stroke="#0123FF" stroke-width="0.638769"/>
<path d="M77.1312 140.848C77.1312 145.479 73.3776 149.232 68.7473 149.232C64.1171 149.232 60.3635 145.479 60.3635 140.848C60.3635 136.218 64.1171 132.465 68.7473 132.465C73.3776 132.465 77.1312 136.218 77.1312 140.848Z" stroke="#0123FF" stroke-width="0.638769"/>
<path d="M79.2271 140.848C79.2271 146.636 74.5352 151.328 68.7473 151.328C62.9595 151.328 58.2675 146.636 58.2675 140.848C58.2675 135.061 62.9595 130.369 68.7473 130.369C74.5352 130.369 79.2271 135.061 79.2271 140.848Z" stroke="#0123FF" stroke-width="0.638769"/>
<g clip-path="url(#clip1_47_2796)">
<g clip-path="url(#clip2_47_2796)">
<path d="M348.363 162.708L342.899 163.518L344.962 177.428L350.427 176.617L349.813 172.477L353.671 173.386L355.501 185.722L352.073 187.711L351.459 183.572L345.994 184.382L348.23 199.451L353.694 198.64L353.295 195.949C353.252 195.659 353.345 195.434 353.575 195.273L374.629 181.192L373.449 173.244L349.215 165.881C348.948 165.794 348.793 165.605 348.75 165.316L348.363 162.708ZM359.931 183.076L358.654 174.466L368.473 176.774L368.657 178.016L359.931 183.076Z" fill="#0123FF"/>
<path d="M355.216 210.61L349.779 209.637L344.576 238.721L357.264 240.991L358.266 235.389L351.666 233.783C351.502 233.753 351.385 233.69 351.284 233.544C351.182 233.399 351.171 233.226 351.208 233.021L353.087 222.516C353.153 222.145 353.396 221.976 353.767 222.042L370.08 224.96C370.451 225.027 370.62 225.27 370.554 225.64L369.92 229.183L375.358 230.156L378.129 214.666L372.691 213.694L372.057 217.236C371.991 217.607 371.748 217.776 371.377 217.71L355.064 214.792C354.693 214.725 354.524 214.482 354.59 214.112L355.216 210.61Z" fill="#0123FF"/>
<path d="M346.677 251.06L341.505 249.12L335.979 263.854L341.152 265.793L342.474 262.267C342.577 261.992 342.739 261.919 343.013 262.022L358.844 267.959C359.118 268.061 359.192 268.223 359.089 268.497L357.766 272.024L362.939 273.964L368.464 259.23L363.292 257.29L361.969 260.817C361.866 261.091 361.704 261.165 361.43 261.062L345.6 255.125C345.325 255.022 345.252 254.861 345.355 254.586L346.677 251.06Z" fill="#0123FF"/>
<path d="M336.529 275.694L331.817 272.811L322.38 288.231L327.092 291.115L329.67 286.902C329.823 286.653 329.995 286.611 330.245 286.764L345.023 295.808L342.139 300.52C342.074 300.627 341.972 300.712 341.857 300.74C341.742 300.768 341.649 300.76 341.542 300.694L336.54 298.124L333.569 302.978L343.421 309.008L359.893 282.094L350.041 276.064L347.07 280.919L351.635 284.203C351.742 284.268 351.791 284.348 351.819 284.463C351.847 284.578 351.817 284.707 351.751 284.814L348.868 289.526L334.09 280.482C333.84 280.329 333.799 280.156 333.951 279.906L336.529 275.694Z" fill="#0123FF"/>
<path d="M315.973 305.214L312.124 301.251L299.154 313.846L303.003 317.809L306.546 314.368C306.756 314.164 306.933 314.167 307.137 314.377L319.208 326.806L315.245 330.655C315.155 330.742 315.035 330.8 314.917 330.798C314.799 330.796 314.71 330.766 314.623 330.675L310.416 326.944L306.333 330.909L314.38 339.195L337.017 317.212L328.97 308.926L324.887 312.891L328.493 317.206C328.581 317.296 328.609 317.385 328.607 317.503C328.606 317.622 328.545 317.739 328.455 317.827L324.492 321.675L312.421 309.246C312.217 309.036 312.22 308.858 312.43 308.654L315.973 305.214Z" fill="#0123FF"/>
<path d="M295.265 324.872L292.477 320.103L266.971 335.016L273.477 346.144L278.39 343.271L275.329 337.207C275.245 337.062 275.218 336.933 275.263 336.761C275.308 336.589 275.431 336.469 275.612 336.363L284.824 330.977C285.149 330.787 285.436 330.862 285.626 331.187L293.991 345.493C294.181 345.819 294.106 346.105 293.78 346.295L290.673 348.112L293.462 352.88L307.046 344.938L304.258 340.169L301.151 341.986C300.825 342.176 300.539 342.101 300.349 341.776L291.984 327.469C291.794 327.144 291.869 326.858 292.194 326.668L295.265 324.872Z" fill="#0123FF"/>
<path d="M265.094 342.273L263.51 336.981L235.205 345.454L238.805 357.481L244.258 355.849L242.763 349.395C242.679 349.114 242.803 348.946 243.084 348.862L253.628 345.705C253.908 345.621 254.065 345.705 254.149 345.986L256.045 352.321L247.185 354.973L248.529 359.463L257.389 356.811L259.117 362.584L248.693 365.704C248.573 365.74 248.441 365.736 248.337 365.68C248.233 365.624 248.168 365.556 248.132 365.436L246.123 360.183L240.671 361.816L243.983 372.881L271.767 364.564L270.183 359.272L266.574 360.352C266.294 360.436 266.137 360.351 266.053 360.071L261.205 343.874C261.121 343.593 261.205 343.437 261.486 343.353L265.094 342.273Z" fill="#0123FF"/>
<path d="M219.478 353.498L219.648 347.976L202.498 347.448L202.328 352.97L207.515 353.129C207.808 353.138 207.929 353.268 207.92 353.561L207.773 358.329L200.286 358.098C196.228 357.973 193.196 358.55 191.187 359.87C189.179 361.19 188.147 363.419 188.049 366.598C187.951 369.777 188.884 372.108 190.805 373.633C192.726 375.158 195.716 375.962 199.773 376.087L218.806 376.673L218.976 371.151L215.211 371.035C214.918 371.026 214.797 370.897 214.806 370.604L215.327 353.705C215.336 353.412 215.465 353.291 215.758 353.3L219.478 353.498ZM200.515 362.879L207.668 363.099L207.431 370.796L200.278 370.575C198.479 370.52 197.192 370.187 196.374 369.534C195.557 368.881 195.168 367.906 195.21 366.567C195.251 365.229 195.699 364.279 196.555 363.678C197.411 363.076 198.717 362.823 200.515 362.879Z" fill="#0123FF"/>
<path d="M164.933 341.05C164.057 340.316 162.841 339.702 161.273 339.247C158.38 338.407 156.098 338.312 154.468 338.972C152.839 339.632 151.677 341.082 151.012 343.372L149.496 348.597L157.374 350.883L158.447 347.186C158.657 346.462 158.929 345.975 159.263 345.723C159.598 345.472 160.087 345.439 160.689 345.614C161.172 345.754 161.527 346.032 161.755 346.446C161.983 346.861 162.153 347.477 162.253 348.334L163.068 354.235L160.416 353.466C156.999 352.474 154.413 352.377 152.656 353.175C150.9 353.972 149.68 355.623 148.968 358.075C148.28 360.446 148.507 362.516 149.702 364.257C150.896 365.998 153.04 367.318 156.135 368.216L178.683 374.759L180.222 369.454L176.605 368.404C176.324 368.322 176.238 368.167 176.32 367.885L181.032 351.648C181.113 351.367 181.269 351.281 181.55 351.363L185.167 352.412L186.707 347.107L172.077 342.862L170.538 348.167L173.673 349.077C173.954 349.158 174.039 349.314 173.958 349.595L172.232 355.544L168.896 354.576C168.574 354.482 168.42 354.263 168.381 353.947L167.614 347.58C167.419 345.998 167.143 344.698 166.745 343.667C166.347 342.637 165.73 341.76 164.853 341.027L164.933 341.05ZM161.016 356.952L171.024 359.856L169.158 366.286L159.15 363.382C156.698 362.671 155.808 361.236 156.426 359.106C156.741 358.02 157.295 357.31 158.09 356.974C158.885 356.638 159.851 356.613 161.016 356.952Z" fill="#0123FF"/>
<path d="M142.762 348.476C147.825 339.85 146.072 332.998 137.482 327.957C128.893 322.915 122.056 324.725 116.993 333.351C111.951 341.941 113.725 348.757 122.315 353.798C130.905 358.84 137.72 357.066 142.762 348.476ZM128.549 331.933C130.416 331.233 132.478 331.522 134.68 332.814C136.881 334.106 138.139 335.767 138.438 337.737C138.737 339.708 138.092 342.047 136.503 344.754C134.915 347.461 133.187 349.164 131.356 349.886C129.526 350.607 127.484 350.282 125.247 348.968C123.009 347.655 121.73 346.031 121.467 344.081C121.204 342.131 121.849 339.793 123.438 337.086C125.027 334.379 126.755 332.675 128.621 331.975L128.549 331.933Z" fill="#0123FF"/>
<path d="M116.893 319.219C117.098 315.816 115.558 312.502 112.33 309.278C109.991 306.942 107.831 305.73 105.848 305.642C103.865 305.554 101.765 306.65 99.5169 308.96L98.6878 308.132L104.1 301.885L99.5403 297.33L92.5898 304.288C92.3828 304.495 92.2052 304.495 91.998 304.288L89.8662 302.159L86.2579 305.771L97.953 317.453L101.561 313.841L97.8307 310.115C100.937 308.249 104.044 308.869 107.153 311.974C110.913 315.73 110.59 319.844 106.154 324.285C103.906 326.535 101.776 327.72 99.734 327.869C97.6922 328.018 95.6795 327.072 93.6957 325.09C90.7646 322.162 90.3783 319.115 92.4776 315.947L86.941 310.416L79.4581 317.907L83.9585 322.403L90.4655 316.303L91.2946 317.131C86.6805 321.454 86.5644 325.834 91.0056 330.271C94.144 333.406 97.5183 334.883 101.099 334.674C104.679 334.465 108.17 332.688 111.542 329.313C114.943 325.908 116.747 322.504 116.952 319.101L116.893 319.219Z" fill="#0123FF"/>
<path d="M84.1874 273.677C84.0699 272.54 83.6256 271.252 82.8182 269.834C81.3276 267.215 79.7575 265.557 78.1287 264.895C76.4998 264.233 74.6567 264.463 72.5836 265.644L67.8556 268.335L71.9134 275.463L75.2594 273.559C75.9141 273.186 76.449 273.026 76.8642 273.079C77.2794 273.131 77.6526 273.449 77.9631 273.994C78.2116 274.431 78.2731 274.877 78.1478 275.334C78.0225 275.79 77.7153 276.35 77.1899 277.035L73.6626 281.835L72.2962 279.435C70.5364 276.344 68.7486 274.472 66.9329 273.82C65.1172 273.168 63.0923 273.502 60.8737 274.765C58.7279 275.987 57.4482 277.63 57.0918 279.711C56.7354 281.792 57.3543 284.233 58.9484 287.033L70.563 307.437L75.3638 304.704L73.5005 301.431C73.3556 301.176 73.4026 301.005 73.6572 300.86L88.3506 292.496C88.6052 292.351 88.7764 292.398 88.9213 292.652L90.7846 295.926L95.5854 293.193L88.0494 279.954L83.2486 282.687L84.8635 285.524C85.0084 285.778 84.9614 285.95 84.7068 286.095L79.3241 289.159L77.6057 286.14C77.4401 285.849 77.482 285.584 77.6745 285.33L81.5605 280.229C82.5229 278.959 83.2307 277.834 83.6632 276.817C84.0957 275.8 84.2635 274.742 84.146 273.605L84.1874 273.677ZM70.2981 282.354L75.4532 291.41L69.634 294.723L64.4789 285.667C63.216 283.448 63.5769 281.798 65.5045 280.701C66.4865 280.142 67.3795 280.019 68.1836 280.332C68.9876 280.644 69.6977 281.299 70.2981 282.354Z" fill="#0123FF"/>
<path d="M71.8365 262.155L77.1689 260.712L69.4521 232.192L57.333 235.471L58.8195 240.965L65.3115 239.642C65.5943 239.566 65.7592 239.694 65.8358 239.977L68.7104 250.602C68.7869 250.884 68.6985 251.038 68.4158 251.115L62.033 252.842L59.6174 243.914L55.093 245.138L57.5086 254.066L51.6914 255.64L48.8495 245.137C48.8167 245.016 48.8243 244.883 48.8833 244.781C48.9422 244.678 49.0121 244.616 49.1332 244.583L54.4371 242.714L52.9506 237.22L41.801 240.237L49.3758 268.232L54.7082 266.79L53.7244 263.154C53.6479 262.871 53.7363 262.717 54.0191 262.641L70.3395 258.225C70.6223 258.148 70.7763 258.237 70.8528 258.519L71.8365 262.155Z" fill="#0123FF"/>
<path d="M66.9333 215.69C67.9962 214.207 68.4987 211.77 68.4407 208.381C68.3785 204.741 67.6178 201.866 66.1586 199.756C64.6995 197.646 62.4221 196.639 59.3256 196.692C57.359 196.725 55.7761 197.171 54.6188 198.028C53.4615 198.885 52.6006 199.946 52.0781 201.21C51.5556 202.475 51.1211 203.989 50.7753 205.795L49.2027 214.193C48.9731 215.453 48.6534 216.337 48.2861 216.887C47.9188 217.438 47.3373 217.699 46.5841 217.712C45.7054 217.727 45.0713 217.361 44.6819 216.614C44.2924 215.867 44.0639 214.741 44.0381 213.235C43.9995 210.975 44.4694 209.084 45.4068 207.603C46.3441 206.122 47.622 204.97 49.1992 204.189L49.0897 197.787L38.9217 197.961L39.024 203.945L46.9367 204.061L46.9568 205.232C46.6213 205.196 46.161 205.204 45.5334 205.215C42.9809 205.258 41.1931 205.959 40.1281 207.316C39.063 208.674 38.5584 210.985 38.6135 214.207C38.6721 217.638 39.4292 220.304 40.8423 222.163C42.2553 224.022 44.5313 224.946 47.6696 224.892C49.5944 224.859 51.1354 224.415 52.2509 223.558C53.3664 222.702 54.1854 221.642 54.7079 220.377C55.2304 219.113 55.6649 217.598 56.0107 215.793L57.7038 207.1C57.8951 206.05 58.1751 205.292 58.5013 204.784C58.8275 204.276 59.3671 204.016 60.1203 204.003C61.9614 203.971 62.9149 205.88 62.9807 209.73C63.0215 212.115 62.553 214.09 61.5752 215.656C60.5974 217.221 59.3614 218.372 57.8247 219.068L57.9341 225.47L68.1021 225.296L67.9998 219.313L60.2544 219.194L60.2351 218.064C60.5288 218.101 60.9472 218.094 61.4912 218.085C64.0436 218.041 65.8307 217.299 66.8936 215.816L66.9333 215.69Z" fill="#0123FF"/>
<path d="M69.1212 181.862C70.5079 180.676 71.5782 178.431 72.3321 175.126C73.1419 171.576 73.0906 168.603 72.1781 166.205C71.2655 163.808 69.295 162.285 66.2757 161.597C64.358 161.159 62.7145 161.213 61.3859 161.769C60.0573 162.324 58.9677 163.149 58.1581 164.252C57.3484 165.355 56.5645 166.721 55.797 168.392L52.2625 176.171C51.7385 177.339 51.2166 178.121 50.7284 178.568C50.2402 179.014 49.6131 179.129 48.8787 178.961C48.0218 178.766 47.4936 178.259 47.2939 177.441C47.0943 176.623 47.1416 175.475 47.4767 174.006C47.9793 171.802 48.8878 170.078 50.152 168.864C51.4162 167.65 52.9324 166.837 54.6504 166.456L56.0746 160.214L46.1598 157.952L44.8288 163.786L52.4844 165.791L52.2237 166.933C51.9066 166.818 51.4578 166.715 50.8458 166.576C48.3569 166.008 46.4535 166.26 45.0948 167.324C43.7361 168.388 42.6938 170.511 41.977 173.652C41.2138 176.998 41.3117 179.768 42.2392 181.911C43.1668 184.054 45.156 185.495 48.2161 186.193C50.0929 186.622 51.6957 186.558 52.9835 185.993C54.2713 185.429 55.32 184.595 56.1297 183.492C56.9393 182.389 57.7232 181.022 58.4907 179.351L62.2128 171.315C62.6495 170.342 63.1026 169.672 63.5408 169.257C63.9789 168.842 64.5651 168.718 65.2996 168.886C67.0948 169.295 67.5643 171.377 66.7079 175.131C66.1773 177.456 65.2502 179.262 63.9266 180.549C62.603 181.835 61.1276 182.657 59.469 182.966L58.0449 189.208L67.9596 191.47L69.2907 185.636L61.7983 183.669L62.0496 182.567C62.3259 182.673 62.7339 182.766 63.2643 182.887C65.7532 183.455 67.6659 183.162 69.0525 181.976L69.1212 181.862Z" fill="#0123FF"/>
<path d="M85.7512 126.678L89.9564 130.26L109.117 107.769L99.5594 99.6276L95.8685 103.96L100.631 108.567C100.854 108.757 100.841 108.966 100.651 109.189L93.513 117.567C93.323 117.79 93.146 117.804 92.923 117.614L87.8897 113.326L93.8874 106.286L90.3194 103.246L84.3217 110.287L79.7343 106.379L86.7904 98.0957C86.8719 98.0002 86.9851 97.9317 87.1031 97.9223C87.2211 97.9128 87.312 97.9353 87.4075 98.0167L91.9478 101.335L95.6387 97.0022L86.8462 89.5118L68.0388 111.589L72.2439 115.171L74.6864 112.304C74.8764 112.081 75.0534 112.067 75.2764 112.257L88.1466 123.221C88.3696 123.411 88.3837 123.588 88.1938 123.811L85.7512 126.678Z" fill="#0123FF"/>
<path d="M100.9 83.9834L122.994 96.3665L128.282 92.6095L123.859 67.6704C123.816 67.393 123.914 67.1695 124.153 66.9998L126.37 65.4243L123.171 60.9211L112.288 68.6534L115.487 73.1566L118.251 71.1932L122.092 87.5101L121.137 88.1888L107.061 79.1436L110.063 77.0106L106.864 72.5074L94.8208 81.0638L98.0204 85.567L100.238 83.9915C100.477 83.8218 100.72 83.803 100.968 83.9349L100.9 83.9834Z" fill="#0123FF"/>
<path d="M139.024 78.4549L141.027 83.6029L168.561 72.8871L164.008 61.187L158.704 63.2513L160.712 69.5651C160.818 69.8381 160.708 70.0158 160.435 70.122L150.178 74.1139C149.905 74.2201 149.742 74.1487 149.636 73.8757L147.238 67.7137L155.857 64.3593L154.157 59.9913L145.538 63.3456L143.352 57.7296L153.492 53.7833C153.609 53.7377 153.742 53.7312 153.85 53.7789C153.958 53.8265 154.028 53.8893 154.073 54.0063L156.497 59.0806L161.801 57.0163L157.612 46.2523L130.585 56.7708L132.588 61.9188L136.098 60.5527C136.371 60.4465 136.534 60.518 136.64 60.791L142.772 76.547C142.878 76.82 142.807 76.9826 142.534 77.0888L139.024 78.4549Z" fill="#0123FF"/>
<path d="M195.277 68.1926C196.369 68.5314 197.728 68.629 199.349 68.444C202.343 68.1024 204.485 67.3104 205.734 66.0727C206.983 64.8351 207.495 63.0496 207.225 60.6796L206.608 55.2742L198.458 56.2042L198.895 60.0295C198.98 60.7779 198.917 61.3327 198.705 61.6938C198.494 62.0549 198.055 62.2734 197.432 62.3446C196.933 62.4015 196.498 62.2827 196.127 61.988C195.757 61.6933 195.363 61.1907 194.94 60.4387L191.911 55.3085L194.656 54.9953C198.19 54.592 200.613 53.6837 201.926 52.2702C203.239 50.8567 203.728 48.8634 203.439 46.327C203.159 43.8738 202.15 42.0513 200.377 40.9058C198.604 39.7603 196.116 39.3702 192.914 39.7355L169.588 42.3973L170.214 47.8858L173.957 47.4588C174.248 47.4256 174.387 47.5361 174.42 47.8271L176.337 64.6254C176.37 64.9164 176.259 65.0554 175.968 65.0886L172.226 65.5156L172.852 71.0042L187.987 69.2771L187.361 63.7886L184.118 64.1587C183.827 64.1919 183.688 64.0814 183.655 63.7903L182.952 57.6365L186.404 57.2427C186.736 57.2048 186.963 57.3474 187.121 57.6242L190.285 63.2023C191.075 64.5864 191.831 65.6794 192.596 66.4767C193.361 67.274 194.268 67.8443 195.36 68.1831L195.277 68.1926ZM192.757 52.0108L182.403 53.1922L181.644 46.5395L191.997 45.358C194.534 45.0686 195.909 46.0489 196.161 48.2527C196.289 49.3753 196.051 50.2449 195.448 50.8613C194.844 51.4778 193.962 51.8732 192.757 52.0108Z" fill="#0123FF"/>
<path d="M217.216 62.2935L216.462 67.766L234.372 70.234L235.126 64.7616L230.234 64.0875C229.944 64.0475 229.836 63.906 229.876 63.6158L230.505 59.0554C230.545 58.7652 230.662 58.5279 230.856 58.3434L241.482 48.0636C241.677 47.8792 241.943 47.7891 242.233 47.8291L244.886 48.1947L245.64 42.7223L232.54 40.9169L231.786 46.3894L234.853 46.8121L229.052 53.659L227.808 53.4876L224.074 45.3267L227.142 45.7495L227.896 40.2771L213.096 38.2375L212.342 43.7099L214.995 44.0756C215.285 44.1156 215.517 44.2742 215.654 44.5043L223.062 57.2694C223.2 57.4995 223.248 57.7597 223.208 58.0499L222.58 62.6102C222.54 62.9005 222.398 63.0077 222.108 62.9677L217.216 62.2935Z" fill="#0123FF"/>
<path d="M245.405 66.3072L243.371 71.4434L257.535 77.0512C261.348 78.561 264.568 79.2957 267.195 79.2554C269.821 79.2151 272.026 78.4224 273.808 76.8774C275.59 75.3325 277.112 72.9646 278.375 69.7739C279.546 66.8167 280.011 64.1651 279.77 61.819C279.528 59.4729 278.441 57.3318 276.545 55.4112C274.65 53.4906 271.815 51.7831 268.041 50.2887L253.878 44.6809L251.844 49.8171L255.346 51.2037C255.618 51.3115 255.689 51.4745 255.581 51.7468L249.357 67.4668C249.249 67.7392 249.086 67.8097 248.814 67.7018L245.405 66.3072ZM258.814 71.6612L256.051 70.5673L262.583 54.0692L265.346 55.163C268.653 56.4725 270.75 58.1127 271.689 60.06C272.628 62.0073 272.567 64.3233 271.504 67.0082C270.718 68.9926 269.775 70.4647 268.675 71.4245C267.575 72.3842 266.209 72.8786 264.616 72.923C263.023 72.9675 261.086 72.5158 258.79 71.6068L258.814 71.6612Z" fill="#0123FF"/>
<path d="M277.099 78.5438L273.874 83.029L285.291 91.2373L288.516 86.752L285.118 84.3091L288.457 82.1739L298.583 89.4539L297.622 93.2991L294.225 90.8562L291 95.3414L303.368 104.234L306.593 99.7485L304.384 98.1606C304.147 97.9896 304.05 97.7655 304.095 97.4883L308.657 72.5744L302.133 67.884L279.969 80.1434C279.721 80.274 279.478 80.2538 279.24 80.0828L277.099 78.5438ZM299.771 84.4321L292.703 79.3508L301.2 73.9136L302.219 74.6465L299.771 84.4321Z" fill="#0123FF"/>
<path d="M312.501 106.444L308.269 109.996L319.893 123.843L324.124 120.291L320.949 116.509C320.761 116.284 320.776 116.108 321.001 115.919L324.527 112.96C324.751 112.771 324.997 112.674 325.265 112.668L340.041 112.175C340.309 112.169 340.567 112.28 340.755 112.505L342.477 114.556L346.708 111.005L338.206 100.876L333.975 104.427L335.966 106.799L327.07 107.983L326.263 107.022L328.97 98.4654L330.961 100.837L335.192 97.2857L325.587 85.8426L321.356 89.3942L323.078 91.4456C323.266 91.67 323.331 91.9431 323.279 92.2058L320.207 106.641C320.154 106.904 320.015 107.13 319.791 107.318L316.265 110.278C316.041 110.466 315.864 110.451 315.676 110.226L312.501 106.444Z" fill="#0123FF"/>
</g>
<g clip-path="url(#clip3_47_2796)">
<path d="M191.102 91.462L190.164 88.2525L162.364 96.3775C162.766 94.7743 163.027 93.2124 163.254 91.7115L159.285 92.1543C158.836 97.1013 157.051 103.617 153.282 109.124C154.317 109.334 155.853 109.858 156.782 110.407C158.835 107.091 160.32 103.583 161.367 100.153L191.102 91.462ZM179.929 122.648C179.645 120.272 179.175 117.438 178.678 114.509L188.401 111.668C189.116 114.993 189.578 117.625 189.888 119.737L179.929 122.648ZM175.468 115.447C175.966 118.376 176.388 121.224 176.673 123.599L167.327 126.331C167.035 123.752 166.687 120.985 166.312 118.123L175.468 115.447ZM173.478 104.605C173.965 106.973 174.413 109.557 174.874 112.188L165.86 114.823C165.553 112.198 165.2 109.586 164.84 107.129L173.478 104.605ZM178.131 111.237C177.683 108.652 177.221 106.021 176.782 103.639L185.985 100.949C186.644 103.728 187.206 106.177 187.712 108.436L178.131 111.237ZM198.643 108.674L197.718 105.512L191.111 107.443C190.554 104.839 189.888 101.858 189.078 98.5597C188.94 98.0877 188.628 96.8468 188.628 96.8468L160.876 104.958C161.423 108.231 161.999 111.956 162.509 115.803L154.768 118.065L155.692 121.227L162.914 119.117C163.554 124.462 164.106 129.68 164.352 133.502L167.96 132.703C167.887 131.751 167.786 130.705 167.671 129.611L190.232 123.018C190.324 124.733 190.189 125.848 189.855 126.458C189.501 127.176 189.07 127.456 188.173 127.718C187.135 128.021 184.809 128.65 182.049 129.2C182.756 129.865 183.431 130.948 183.699 131.689C186.35 131.119 188.913 130.422 190.301 129.914C191.817 129.317 192.745 128.636 193.378 127.119C193.804 126.123 193.97 124.589 193.772 121.983L200.569 119.997L199.658 116.881L193.334 118.73C193.01 116.57 192.534 113.892 191.846 110.661L198.643 108.674Z" fill="#0123FF"/>
<path d="M211.613 120.854L214.83 107.517L238.54 113.237L235.322 126.574L211.613 120.854ZM242.495 96.8414L239.382 109.748L215.672 104.028L218.786 91.1213L242.495 96.8414ZM216.043 86.7669L206.436 126.585L210.021 127.45L210.771 124.343L234.48 130.063L233.777 132.979L237.505 133.879L247.066 94.2514L216.043 86.7669Z" fill="#0123FF"/>
<path d="M285.834 115.157L268.913 133.197C268.409 133.735 268.095 133.71 267.416 133.141C266.806 132.569 264.584 130.553 262.285 128.261C261.975 129.453 261.329 131.005 260.696 131.895C263.709 134.72 265.715 136.535 267.3 137.145C268.921 137.789 270.022 137.406 271.57 135.756L288.524 117.68L285.834 115.157ZM288.533 127.733C288.152 134.32 286.707 142.403 284.898 146.774L288.898 147.829C290.561 143.253 291.764 135.214 292.08 128.768L288.533 127.733ZM281.784 139.673C270.157 145.959 259.306 143.872 245.134 133.68C245.066 134.83 244.599 136.55 244.11 137.575C259.262 147.943 270.981 149.968 283.702 143.09L281.784 139.673ZM273.772 112.203C268.779 114.868 261.615 117.115 255.599 117.203C256.014 118.199 256.311 119.894 256.45 120.968C262.67 120.734 270.246 118.335 276.005 115.645L273.772 112.203Z" fill="#0123FF"/>
<path d="M315.827 162.933L314.445 158.163C313.164 158.856 311.497 159.459 309.755 159.983C304.81 161.469 292.754 164.579 285.784 166.673C278.108 168.98 276.684 174.492 278.722 181.273C281.836 191.633 289.595 195.925 295.045 197.829L297.441 194.183C291.524 192.264 285.216 188.871 282.626 180.254C281.282 175.78 282.142 171.978 287.322 170.422C294.338 168.313 305.551 165.303 310.943 163.939C312.512 163.519 314.202 163.165 315.827 162.933Z" fill="#0123FF"/>
<path d="M319.592 236.015L320.594 231.654C320.189 231.662 318.766 231.487 317.498 231.296C316.816 231.19 315.666 230.926 314.313 230.665C315.858 223.503 317.64 214.427 318.777 209.037L315.006 208.322C314.061 214.412 312.536 222.588 310.947 229.942C309.27 229.557 307.533 229.209 306.096 228.878C306.651 227.997 307.085 226.987 307.361 225.789C308.418 221.188 305.715 216.48 300.971 215.39C295.747 214.19 292.087 217.385 291.151 221.459C290.776 223.088 290.888 224.577 291.476 225.973C287.566 223.007 285.906 217.933 285.922 211.277L282.021 213.761C282.773 225.639 289.235 230.454 295.753 231.951C298.149 232.502 300.379 232.459 302.24 231.827C304.503 232.296 307.438 232.92 310.169 233.548C310.114 233.787 310.07 233.979 310.015 234.219C308.397 241.264 307.262 245.544 306.501 248.194L310.085 249.068C310.602 246.816 312.004 240.932 313.359 235.037C313.414 234.798 313.469 234.558 313.524 234.319C314.818 234.616 315.909 234.917 316.628 235.082C317.192 235.262 319.076 235.846 319.592 236.015ZM300.193 218.995C303.308 219.711 304.733 222.511 304.161 225.003C303.731 226.872 302.387 228.329 300.103 228.611C295.51 227.96 293.687 225.573 294.325 222.794C294.931 220.158 297.222 218.313 300.193 218.995ZM319.031 242.849L318.534 239.96C316.582 240.773 313.984 241.538 311.836 242.104L312.407 245.111C314.4 244.56 317.185 243.636 319.031 242.849ZM318.934 248.982L318.4 246.034C316.533 246.917 313.983 247.693 311.787 248.248L312.357 251.255C314.457 250.678 317.051 249.71 318.934 248.982Z" fill="#0123FF"/>
<path d="M297.577 261.418L293.164 259.818C291.684 263.739 287.112 276.587 281.64 282.51C277.136 287.386 271.571 287.467 267.779 283.964C260.374 277.124 265.329 266.036 273.818 256.339L269.619 254.87C259.956 266.562 256.171 279.065 264.804 287.039C270.872 292.645 278.743 291.081 284.282 285.085C289.154 279.811 293.093 270.33 294.954 266.359C295.789 264.586 296.629 262.952 297.577 261.418Z" fill="#0123FF"/>
<path d="M231.262 308.028L239.427 305.472L240.955 310.353L232.789 312.908L231.262 308.028ZM228.794 300.144L236.959 297.588L238.502 302.516L230.336 305.071L228.794 300.144ZM226.297 292.166L234.462 289.611L236.049 294.679L227.883 297.235L226.297 292.166ZM236.886 285.503L210.795 293.67L211.749 296.72L222.965 293.209L224.551 298.278L215.401 301.142L216.311 304.051L225.462 301.187L227.005 306.114L217.76 309.008L218.685 311.965L227.93 309.071L229.458 313.951L219.04 317.212L219.98 320.216L229.928 317.102C229.53 319.287 229.235 321.801 228.961 324.051L232.918 323.689C232.896 321.48 233.044 318.496 233.401 316.015L240.862 313.679C240.259 316.032 239.888 318.467 239.672 320.905L243.391 320.771C243.887 314.124 246.175 307.276 249.625 302.331C248.622 301.924 246.896 301.022 246.113 300.494C245.087 302.155 244.135 304.05 243.305 306.01L236.886 285.503ZM249.684 309.269C251.859 311.113 256.095 313.291 259.634 314.553L261.692 311.745C258.124 310.389 253.966 308.135 251.824 306.229L249.684 309.269ZM248.095 299.255L257.34 296.361L256.312 293.076L250.352 294.942L246.592 282.928C248.087 280.297 249.863 277.576 251.379 275.505L248.505 272.746C246.838 275.483 245.296 278.13 243.863 280.794C239.807 278.045 235.07 277.724 228.849 279.414C223.52 280.824 213.647 284.017 208.465 285.897C208.647 286.974 208.583 288.746 208.411 289.676C213.925 287.537 224.674 284.018 229.909 282.637C235.459 281.106 240.088 281.409 243.38 284.191L248.095 299.255Z" fill="#0123FF"/>
<path d="M191.019 306.481C194.096 303.286 198.506 300.437 202.64 298.837C201.845 298.106 200.517 296.602 199.973 295.877C195.93 297.75 191.125 301.014 187.674 304.529L191.019 306.481ZM171.305 295C176.995 286.844 186.515 285.03 201.502 286.949C200.974 285.925 200.574 284.325 200.531 283.156C184.621 281.537 174.242 283.815 167.998 293.107L171.305 295ZM171.396 300.259C168.505 296.494 165.395 291.219 164.296 288.003L160.776 289.337C161.987 292.729 165.198 297.774 168.159 301.454L171.396 300.259ZM176.741 308.397L175.355 314.638L160.57 311.354L159.845 314.618L174.63 317.902L173.393 323.47L176.993 324.27L180.341 309.197L189.174 311.159L186.658 322.487L190.21 323.276L192.726 311.948L199.782 313.515L200.518 310.203L181.077 305.885L183.508 294.94C183.647 294.316 183.871 294.215 184.601 294.327C185.369 294.497 187.865 295.052 190.628 295.766C190.42 294.662 190.169 293.297 190.249 292.257C186.553 291.436 184.201 290.913 182.644 291.121C181.038 291.319 180.393 292.183 179.977 294.055L177.525 305.096L158.084 300.778L157.348 304.09L176.741 308.397Z" fill="#0123FF"/>
<path d="M129.328 296.653L132.968 300.032C133.71 298.779 134.828 297.403 136.053 296.058C139.528 292.239 148.264 283.368 153.161 277.985C158.556 272.057 156.94 266.598 151.703 261.833C143.702 254.552 134.84 254.866 129.187 256.038L129.009 260.397C135.07 258.998 142.225 258.66 148.88 264.716C152.336 267.86 153.555 271.562 149.914 275.562C144.983 280.982 136.919 289.333 132.998 293.278C131.869 294.445 130.602 295.619 129.328 296.653Z" fill="#0123FF"/>
<path d="M103.51 260.659L107.447 258.929C104.745 254.219 99.7851 242.642 97.6135 237.814C101.572 241.293 108.947 243.83 116.25 241.482C126.69 238.127 128.15 226.76 125.694 217.994L121.372 217.885C123.544 225.606 123.38 235.059 114.204 238.008C108.68 239.783 100.255 237.998 95.9652 232.042C94.4956 229.88 93.1248 225.776 92.2672 223.107L88.522 224.311C89.6705 227.402 91.3189 231.728 93.427 236.68C96.8976 245.068 100.631 253.63 101.936 256.568C102.316 257.427 102.891 258.895 103.51 260.659Z" fill="#0123FF"/>
<path d="M89.2626 196.524L88.183 201.171C89.3986 201.126 91.4296 201.503 92.5363 201.736C95.327 202.324 101.218 203.465 105.495 203.914C118.231 205.241 123.676 201.815 124.639 197.244C125.319 194.02 123.146 190.497 115.575 185.887L111.52 188.198C116.068 190.463 120.595 193.779 120.078 196.233C119.359 199.649 113.521 200.881 105.323 199.958C101.259 199.454 96.87 198.579 93.8488 197.892C92.5978 197.629 90.3769 196.96 89.2626 196.524ZM95.8919 171.739L96.4002 175.766C103.003 172.333 113.475 171.524 122.367 172.493L121.59 168.309C113.306 167.318 102.376 168.633 95.8919 171.739Z" fill="#0123FF"/>
<path d="M123.266 121.41L118.423 121.973C118.729 123.034 118.941 124.868 119.022 126.256C119.335 131.01 118.777 140.516 118.641 145.331C118.493 151.121 119.68 152.967 125.688 152.058C131.556 151.157 141.3 149.82 146.233 149.601C147.932 149.467 149.602 149.439 151.17 149.451L151.065 144.686C143.706 145.117 132.668 146.947 126.975 147.873C122.9 148.46 122.344 147.9 122.431 144.029C122.571 139.284 123.088 130.268 123.106 125.808C123.147 124.726 123.204 122.738 123.266 121.41Z" fill="#0123FF"/>
</g>
</g>
</g>
<defs>
<clipPath id="clip0_47_2796">
<rect width="415" height="415" fill="white"/>
</clipPath>
<clipPath id="clip1_47_2796">
<rect width="344.985" height="344.502" fill="white" transform="translate(35.0481 35.048)"/>
</clipPath>
<clipPath id="clip2_47_2796">
<rect width="338.763" height="338.271" fill="white" transform="translate(41.3281 35.048) rotate(1.06375)"/>
</clipPath>
<clipPath id="clip3_47_2796">
<rect width="239.46" height="246.367" fill="white" transform="translate(88.183 82.8567)"/>
</clipPath>
</defs>
</svg>
