<svg width="829" height="351" viewBox="0 0 829 351" fill="none" xmlns="http://www.w3.org/2000/svg">
<path fill-rule="evenodd" clip-rule="evenodd" d="M175.5 351L829 351V3.62396e-05L175.5 7.62939e-06C78.5741 3.43746e-06 4.23677e-06 78.574 0 175.5C-4.23677e-06 272.426 78.574 351 175.5 351Z" fill="white"/>
<path d="M809 20L809 331L175.5 331C89.6197 331 20 261.38 20 175.5C20 89.6197 89.6198 20 175.5 20L809 20Z" fill="#B5FD1E"/>
<path d="M775.5 53.5L775.5 298.5L169 298.5C101.345 298.5 46.5 243.655 46.5 176C46.5 108.345 101.345 53.5 169 53.5L775.5 53.5Z" stroke="#0123FF" stroke-width="3"/>
<path fill-rule="evenodd" clip-rule="evenodd" d="M746 116C734.092 116 725.272 112.424 719.424 106.576C713.576 100.728 710 91.9075 710 80C710 91.9075 706.424 100.728 700.576 106.576C694.728 112.424 685.908 116 674 116C685.908 116 694.728 119.576 700.576 125.424C706.424 131.272 710 140.092 710 152C710 140.092 713.576 131.272 719.424 125.424C725.272 119.576 734.092 116 746 116Z" fill="#F723FB"/>
<path fill-rule="evenodd" clip-rule="evenodd" d="M676 116C664.092 116 655.272 112.424 649.424 106.576C643.576 100.728 640 91.9075 640 80C640 91.9075 636.424 100.728 630.576 106.576C624.728 112.424 615.908 116 604 116C615.908 116 624.728 119.576 630.576 125.424C636.424 131.272 640 140.092 640 152C640 140.092 643.576 131.272 649.424 125.424C655.272 119.576 664.092 116 676 116Z" fill="#F723FB"/>
<g clip-path="url(#clip0_66_907)">
<path d="M303 146.425H462.676C486.471 146.425 499.738 135.469 499.738 115.782C499.738 96.0959 486.471 85.1398 462.676 85.1398H303V146.425ZM324.741 131.275V100.204H459.595C471.407 100.204 478.083 105.854 478.083 115.782C478.083 125.711 471.407 131.275 459.595 131.275H324.741Z" fill="#0123FF"/>
<path d="M556.163 148.565C583.125 148.565 601.1 135.469 601.1 115.782C601.1 96.0959 583.125 83 556.163 83C529.287 83 511.312 96.0959 511.312 115.782C511.312 135.469 529.287 148.565 556.163 148.565ZM556.163 132.816C542.725 132.816 533.652 125.968 533.652 115.782C533.652 105.597 542.725 98.7493 556.163 98.7493C569.601 98.7493 578.76 105.597 578.76 115.782C578.76 125.968 569.601 132.816 556.163 132.816Z" fill="#0123FF"/>
<mask id="path-7-outside-1_66_907" maskUnits="userSpaceOnUse" x="300" y="160" width="439" height="44" fill="black">
<rect fill="white" x="300" y="160" width="439" height="44"/>
<path d="M326.212 201.791C339.718 201.791 348.448 196.517 348.396 188.789C348.396 182 343.056 178.554 330.628 177.248L323.798 176.517C319.074 176.047 317.02 175.159 317.02 173.749C317.071 171.765 320.922 170.512 326.16 170.46C331.809 170.407 337.869 172.131 341.875 174.846L345.623 167.013C341.104 164.037 333.812 162.157 326.058 162.157C312.963 162.157 304.027 166.7 304.027 174.742C304.027 181.373 309.008 184.663 320.614 185.916L327.393 186.7C332.99 187.326 335.353 188.319 335.353 189.937C335.353 191.869 332.066 193.123 326.879 193.123C319.844 193.123 311.884 190.616 307.622 187.17L303 195.264C307.93 199.128 317.379 201.791 326.212 201.791Z"/>
<path d="M378.019 202C394.195 202 404.979 194.01 404.979 182C404.979 169.99 394.195 162 378.019 162C361.894 162 351.109 169.99 351.109 182C351.109 194.01 361.894 202 378.019 202ZM378.019 192.392C369.956 192.392 364.513 188.214 364.513 182C364.513 175.786 369.956 171.608 378.019 171.608C386.081 171.608 391.576 175.786 391.576 182C391.576 188.214 386.081 192.392 378.019 192.392Z"/>
<path d="M409.203 200.695H421.836V177.248H421.939L433.853 200.695H445.305L456.808 177.248H456.911V200.695H469.544V163.305H451.981L439.399 188.684H439.297L426.561 163.305H409.203V200.695Z"/>
<path d="M474.699 200.695H513.985V192.235H487.692V185.29H511.417V178.031H487.692V171.765H513.471V163.305H474.699V200.695Z"/>
<path d="M529.799 200.695H543.203V172.914H557.53V163.305H515.472V172.914H529.799V200.695Z"/>
<path d="M560.556 200.695H573.959V185.812H594.244V200.695H607.647V163.305H594.244V176.569H573.959V163.305H560.556V200.695Z"/>
<path d="M612.762 200.695H626.062V163.305H612.762V200.695Z"/>
<path d="M631.217 200.695H643.85V175.995H643.901L663.724 200.695H679.797V163.305H667.164V187.692H667.113L647.342 163.305H631.217V200.695Z"/>
<path d="M707.831 201.634C715.432 201.634 722.313 198.867 725.856 194.585H725.908L726.421 200.695H737V179.128H704.339V186.021H724.059C723.597 189.937 718.461 192.757 711.785 192.757C703.209 192.757 697.458 188.58 697.458 182.366C697.458 175.943 702.593 171.608 710.091 171.608C714.969 171.608 719.129 173.697 720.156 176.726L732.635 174.533C731.094 167.274 721.902 162.366 710.142 162.366C694.531 162.366 684.055 170.564 684.055 182.783C684.055 194.01 693.606 201.634 707.831 201.634Z"/>
</mask>
<path d="M326.212 201.791C339.718 201.791 348.448 196.517 348.396 188.789C348.396 182 343.056 178.554 330.628 177.248L323.798 176.517C319.074 176.047 317.02 175.159 317.02 173.749C317.071 171.765 320.922 170.512 326.16 170.46C331.809 170.407 337.869 172.131 341.875 174.846L345.623 167.013C341.104 164.037 333.812 162.157 326.058 162.157C312.963 162.157 304.027 166.7 304.027 174.742C304.027 181.373 309.008 184.663 320.614 185.916L327.393 186.7C332.99 187.326 335.353 188.319 335.353 189.937C335.353 191.869 332.066 193.123 326.879 193.123C319.844 193.123 311.884 190.616 307.622 187.17L303 195.264C307.93 199.128 317.379 201.791 326.212 201.791Z" stroke="#0123FF" stroke-width="4" mask="url(#path-7-outside-1_66_907)"/>
<path d="M378.019 202C394.195 202 404.979 194.01 404.979 182C404.979 169.99 394.195 162 378.019 162C361.894 162 351.109 169.99 351.109 182C351.109 194.01 361.894 202 378.019 202ZM378.019 192.392C369.956 192.392 364.513 188.214 364.513 182C364.513 175.786 369.956 171.608 378.019 171.608C386.081 171.608 391.576 175.786 391.576 182C391.576 188.214 386.081 192.392 378.019 192.392Z" stroke="#0123FF" stroke-width="4" mask="url(#path-7-outside-1_66_907)"/>
<path d="M409.203 200.695H421.836V177.248H421.939L433.853 200.695H445.305L456.808 177.248H456.911V200.695H469.544V163.305H451.981L439.399 188.684H439.297L426.561 163.305H409.203V200.695Z" stroke="#0123FF" stroke-width="4" mask="url(#path-7-outside-1_66_907)"/>
<path d="M474.699 200.695H513.985V192.235H487.692V185.29H511.417V178.031H487.692V171.765H513.471V163.305H474.699V200.695Z" stroke="#0123FF" stroke-width="4" mask="url(#path-7-outside-1_66_907)"/>
<path d="M529.799 200.695H543.203V172.914H557.53V163.305H515.472V172.914H529.799V200.695Z" stroke="#0123FF" stroke-width="4" mask="url(#path-7-outside-1_66_907)"/>
<path d="M560.556 200.695H573.959V185.812H594.244V200.695H607.647V163.305H594.244V176.569H573.959V163.305H560.556V200.695Z" stroke="#0123FF" stroke-width="4" mask="url(#path-7-outside-1_66_907)"/>
<path d="M612.762 200.695H626.062V163.305H612.762V200.695Z" stroke="#0123FF" stroke-width="4" mask="url(#path-7-outside-1_66_907)"/>
<path d="M631.217 200.695H643.85V175.995H643.901L663.724 200.695H679.797V163.305H667.164V187.692H667.113L647.342 163.305H631.217V200.695Z" stroke="#0123FF" stroke-width="4" mask="url(#path-7-outside-1_66_907)"/>
<path d="M707.831 201.634C715.432 201.634 722.313 198.867 725.856 194.585H725.908L726.421 200.695H737V179.128H704.339V186.021H724.059C723.597 189.937 718.461 192.757 711.785 192.757C703.209 192.757 697.458 188.58 697.458 182.366C697.458 175.943 702.593 171.608 710.091 171.608C714.969 171.608 719.129 173.697 720.156 176.726L732.635 174.533C731.094 167.274 721.902 162.366 710.142 162.366C694.531 162.366 684.055 170.564 684.055 182.783C684.055 194.01 693.606 201.634 707.831 201.634Z" stroke="#0123FF" stroke-width="4" mask="url(#path-7-outside-1_66_907)"/>
<path d="M327.912 267.234H346.596V249.998L371.149 216.657H351.249L337.361 237.99H337.289L322.686 216.657H303L327.912 249.998V267.234Z" fill="#0123FF"/>
<path d="M405.79 269C428.339 269 443.372 258.192 443.372 241.945C443.372 225.699 428.339 214.891 405.79 214.891C383.312 214.891 368.279 225.699 368.279 241.945C368.279 258.192 383.312 269 405.79 269ZM405.79 256.003C394.551 256.003 386.963 250.351 386.963 241.945C386.963 233.539 394.551 227.888 405.79 227.888C417.029 227.888 424.689 233.539 424.689 241.945C424.689 250.351 417.029 256.003 405.79 256.003Z" fill="#0123FF"/>
<path d="M481.474 268.506C502.234 268.506 514.404 259.746 514.404 243.923V216.657H495.791V242.934C495.791 251.128 490.351 255.155 481.546 255.155C472.741 255.155 467.229 251.128 467.229 242.934V216.657H448.545V243.923C448.545 259.746 460.786 268.506 481.474 268.506Z" fill="#0123FF"/>
<path d="M537.415 267.234H587.238V253.742H556.098V216.657H537.415V267.234Z" fill="#0123FF"/>
<path d="M591.943 267.234H610.483V216.657H591.943V267.234Z" fill="#0123FF"/>
<path d="M617.669 267.234H636.352V254.378L644.084 247.95L659.331 267.234H682.024L656.969 237.283L681.881 216.657H658.401L636.496 235.164H636.352V216.657H617.669V267.234Z" fill="#0123FF"/>
<path d="M685.619 267.234H740.382V255.791H703.73V246.396H736.803V236.577H703.73V228.1H739.666V216.657H685.619V267.234Z" fill="#0123FF"/>
</g>
<g clip-path="url(#clip1_66_907)">
<circle cx="171.5" cy="175.5" r="97.5" fill="#F723FB"/>
<path d="M172.164 274.641C226.642 274.641 270.805 230.478 270.805 176C270.805 121.522 226.642 77.3594 172.164 77.3594M172.164 274.641C117.686 274.641 73.5234 230.478 73.5234 176M172.164 274.641C199.865 274.641 222.32 230.478 222.32 176C222.32 121.522 199.865 77.3594 172.164 77.3594M172.164 274.641C144.464 274.641 122.008 230.478 122.008 176C122.008 121.522 144.464 77.3594 172.164 77.3594M73.5234 176C73.5234 121.522 117.686 77.3594 172.164 77.3594M73.5234 176H272.477M110.305 98.2578C110.305 98.2578 175.786 128.352 234.023 98.2578M234.023 253.742C234.023 253.742 168.542 223.648 110.305 253.742" stroke="#0123FF" stroke-width="3"/>
<path fill-rule="evenodd" clip-rule="evenodd" d="M129.988 208.496C142.741 208.496 153.079 189.543 153.079 166.163C153.079 142.783 142.741 123.829 129.988 123.829C120.34 123.829 112.073 134.678 108.621 150.086L120.226 170.186H107C108.105 191.679 117.975 208.496 129.988 208.496Z" fill="#0123FF"/>
<path fill-rule="evenodd" clip-rule="evenodd" d="M212.198 208.496C224.951 208.496 235.289 189.543 235.289 166.163C235.289 142.783 224.951 123.829 212.198 123.829C202.55 123.829 194.283 134.678 190.831 150.085L202.436 170.186H189.21C190.315 191.679 200.185 208.496 212.198 208.496Z" fill="#0123FF"/>
</g>
<defs>
<clipPath id="clip0_66_907">
<rect width="437.524" height="186" fill="white" transform="translate(303 83)"/>
</clipPath>
<clipPath id="clip1_66_907">
<rect width="198.953" height="197.281" fill="white" transform="translate(73.5234 77.3594)"/>
</clipPath>
</defs>
</svg>
