<svg width="836" height="491" viewBox="0 0 836 491" fill="none" xmlns="http://www.w3.org/2000/svg">
<g clip-path="url(#clip0_39_28)">
<path fill-rule="evenodd" clip-rule="evenodd" d="M791.276 0H44.7243V45.9887C44.7243 98.3328 19.9217 148.512 6.07767 199.625C2.09316 214.337 0 229.573 0 245.181C0 260.789 2.09316 276.026 6.07766 290.737C19.9217 341.85 44.7243 392.03 44.7243 444.374V490.363H791.276V444.374C791.276 392.03 816.078 341.85 829.922 290.737C833.907 276.026 836 260.789 836 245.181C836 229.573 833.907 214.337 829.922 199.625C816.078 148.512 791.276 98.3328 791.276 45.9887V0Z" fill="white"/>
<path fill-rule="evenodd" clip-rule="evenodd" d="M769.229 17.8778H66.7711V60.5132C66.7711 109.041 43.4334 155.561 30.4071 202.947C26.6579 216.586 24.6884 230.711 24.6884 245.181C24.6884 259.651 26.6579 273.777 30.4071 287.415C43.4334 334.802 66.7711 381.322 66.7711 429.849V472.485H769.229V429.849C769.229 381.322 792.566 334.802 805.593 287.415C809.342 273.777 811.312 259.651 811.312 245.181C811.312 230.711 809.342 216.586 805.593 202.947C792.566 155.561 769.229 109.041 769.229 60.5132V17.8778Z" fill="#25FD1E"/>
<path d="M82.4553 72.9627V35.2016H753.545V72.9627C753.545 95.9078 759.229 118.306 766.422 140.397C769.236 149.04 772.264 157.592 775.282 166.116C780.026 179.515 784.744 192.843 788.568 206.34C792.122 218.886 793.988 231.875 793.988 245.181C793.988 258.487 792.122 271.477 788.568 284.023C784.744 297.519 780.026 310.847 775.282 324.247C772.264 332.77 769.236 341.323 766.422 349.966C759.229 372.056 753.545 394.455 753.545 417.4V455.161H82.4553V417.4C82.4553 394.455 76.7706 372.056 69.578 349.966C66.7639 341.323 63.736 332.77 60.7183 324.247C55.9744 310.847 51.2557 297.519 47.4324 284.023C43.8783 271.477 42.0122 258.487 42.0122 245.181C42.0122 231.875 43.8783 218.886 47.4324 206.34C51.2558 192.843 55.9744 179.515 60.7183 166.116C63.736 157.592 66.7639 149.04 69.578 140.397C76.7706 118.306 82.4553 95.9078 82.4553 72.9627Z" stroke="#0123FF" stroke-width="4" stroke-linecap="round"/>
</g>
<g clip-path="url(#clip1_39_28)">
<g clip-path="url(#clip2_39_28)">
<path d="M146.177 439.015C169.942 439.015 187.111 429.075 190.544 413.443L168.857 409.557C166.96 417.419 158.466 422.389 146.809 422.389C131.99 422.389 122.592 415.611 122.592 405.039C122.592 394.467 130.996 387.69 144.098 387.69C153.406 387.69 160.815 391.937 162.984 398.714L184.4 394.196C180.062 380.009 164.159 371.063 143.466 371.063C116.267 371.063 99.0075 384.256 99.0075 405.039C99.0075 426.455 117.351 439.015 146.177 439.015Z" fill="#25FD1E"/>
<path d="M196.465 437.389H220.05V411.635H255.743V437.389H279.327V372.689H255.743V395.641H220.05V372.689H196.465V437.389Z" fill="#25FD1E"/>
<path d="M288.327 437.389H311.731V372.689H288.327V437.389Z" fill="#25FD1E"/>
<path d="M320.801 437.389H383.693V420.13H344.386V372.689H320.801V437.389Z" fill="#25FD1E"/>
<path d="M389.632 437.389H452.524V420.13H413.216V372.689H389.632V437.389Z" fill="#25FD1E"/>
<path d="M525.19 439.648C553.654 439.648 572.63 425.822 572.63 405.039C572.63 384.256 553.654 370.43 525.19 370.43C496.816 370.43 477.84 384.256 477.84 405.039C477.84 425.822 496.816 439.648 525.19 439.648ZM525.19 423.021C511.003 423.021 501.424 415.792 501.424 405.039C501.424 394.286 511.003 387.057 525.19 387.057C539.377 387.057 549.045 394.286 549.045 405.039C549.045 415.792 539.377 423.021 525.19 423.021Z" fill="#25FD1E"/>
<path d="M620.726 439.015C646.931 439.015 662.292 427.81 662.292 407.569V372.689H638.798V406.304C638.798 416.786 631.931 421.937 620.816 421.937C609.702 421.937 602.744 416.786 602.744 406.304V372.689H579.159V407.569C579.159 427.81 594.611 439.015 620.726 439.015Z" fill="#25FD1E"/>
<path d="M691.931 437.389H715.515V389.316H740.727V372.689H666.72V389.316H691.931V437.389Z" fill="#25FD1E"/>
<path fill-rule="evenodd" clip-rule="evenodd" d="M190.544 413.443L168.857 409.557C166.96 417.419 158.466 422.389 146.809 422.389C131.99 422.389 122.592 415.611 122.592 405.039C122.592 394.467 130.996 387.69 144.098 387.69C153.406 387.69 160.815 391.937 162.984 398.714L184.4 394.196C184.232 393.647 184.047 393.106 183.845 392.573C178.824 379.33 163.358 371.063 143.466 371.063C116.267 371.063 99.0075 384.256 99.0075 405.039C99.0075 426.455 117.351 439.015 146.177 439.015C169.092 439.015 185.875 429.773 190.124 415.097C190.281 414.553 190.422 414.002 190.544 413.443ZM188.437 414.795C184.404 428.304 168.69 437.313 146.177 437.313C131.981 437.313 120.576 434.216 112.768 428.67C105.026 423.17 100.71 415.192 100.71 405.039C100.71 395.171 104.783 387.18 112.071 381.61C119.406 376.004 130.12 372.766 143.466 372.766C162.864 372.766 177.377 380.75 182.156 392.929L164.059 396.747C161.059 389.899 153.208 385.987 144.098 385.987C137.27 385.987 131.481 387.752 127.363 391.074C123.207 394.427 120.889 399.26 120.889 405.039C120.889 410.896 123.521 415.739 128.15 419.062C132.727 422.346 139.165 424.091 146.809 424.091C158.109 424.091 167.215 419.526 170.055 411.501L188.437 414.795ZM218.347 409.933H257.445V435.686H277.625V374.392H257.445V397.344H218.347V374.392H198.168V435.686H218.347V409.933ZM220.05 437.389H196.465V372.689H220.05V395.641H255.743V372.689H279.327V437.389H255.743V411.635H220.05V437.389ZM311.731 437.389H288.327V372.689H311.731V437.389ZM310.029 374.392H290.03V435.686H310.029V374.392ZM342.683 421.832V374.392H322.504V435.686H381.991V421.832H342.683ZM383.693 420.13V437.389H320.801V372.689H344.386V420.13H383.693ZM411.514 421.832V374.392H391.334V435.686H450.821V421.832H411.514ZM452.524 420.13V437.389H389.632V372.689H413.216V420.13H452.524ZM558.58 428.761C566.474 423.005 570.927 414.85 570.927 405.039C570.927 395.228 566.474 387.073 558.58 381.317C550.645 375.53 539.167 372.133 525.19 372.133C511.259 372.133 499.803 375.529 491.879 381.316C483.996 387.072 479.543 395.228 479.543 405.039C479.543 414.85 483.996 423.006 491.879 428.762C499.803 434.549 511.259 437.945 525.19 437.945C539.167 437.945 550.645 434.548 558.58 428.761ZM506.96 419.421C502.389 415.964 499.722 410.977 499.722 405.039C499.722 399.101 502.389 394.114 506.96 390.657C511.494 387.229 517.825 385.354 525.19 385.354C532.554 385.354 538.905 387.229 543.461 390.655C548.053 394.108 550.748 399.096 550.748 405.039C550.748 410.983 548.053 415.97 543.461 419.423C538.905 422.849 532.554 424.724 525.19 424.724C517.825 424.724 511.494 422.849 506.96 419.421ZM650.315 429.52C656.961 424.541 660.59 417.207 660.59 407.569V374.392H640.501V406.304C640.501 411.941 638.636 416.372 635.067 419.357C631.548 422.301 626.607 423.639 620.816 423.639C615.025 423.639 610.065 422.301 606.524 419.361C602.933 416.379 601.041 411.948 601.041 406.304V374.392H580.862V407.569C580.862 417.204 584.511 424.539 591.169 429.519C597.897 434.552 607.879 437.313 620.726 437.313C633.619 437.313 643.599 434.551 650.315 429.52ZM579.159 407.569C579.159 427.81 594.611 439.015 620.726 439.015C646.931 439.015 662.292 427.81 662.292 407.569V372.689H638.798V406.304C638.798 416.786 631.931 421.937 620.816 421.937C609.702 421.937 602.744 416.786 602.744 406.304V372.689H579.159V407.569ZM713.813 387.613H739.024V374.392H668.423V387.613H693.634V435.686H713.813V387.613ZM715.515 437.389H691.931V389.316H666.72V372.689H740.727V389.316H715.515V437.389ZM572.63 405.039C572.63 425.822 553.654 439.648 525.19 439.648C496.816 439.648 477.84 425.822 477.84 405.039C477.84 384.256 496.816 370.43 525.19 370.43C553.654 370.43 572.63 384.256 572.63 405.039ZM501.424 405.039C501.424 415.792 511.003 423.021 525.19 423.021C539.376 423.021 549.045 415.792 549.045 405.039C549.045 394.286 539.376 387.057 525.19 387.057C511.003 387.057 501.424 394.286 501.424 405.039Z" fill="#0123FF"/>
<path d="M146.177 385.6C169.942 385.6 187.111 375.661 190.544 360.028L168.857 356.142C166.96 364.004 158.466 368.974 146.809 368.974C131.99 368.974 122.592 362.197 122.592 351.624C122.592 341.052 130.996 334.275 144.098 334.275C153.406 334.275 160.815 338.522 162.984 345.299L184.4 340.781C180.062 326.594 164.159 317.648 143.466 317.648C116.267 317.648 99.0075 330.841 99.0075 351.624C99.0075 373.04 117.351 385.6 146.177 385.6Z" fill="#25FD1E"/>
<path d="M196.465 383.974H220.05V358.221H255.743V383.974H279.327V319.275H255.743V342.227H220.05V319.275H196.465V383.974Z" fill="#25FD1E"/>
<path d="M288.327 383.974H311.731V319.275H288.327V383.974Z" fill="#25FD1E"/>
<path d="M320.801 383.974H383.693V366.715H344.386V319.275H320.801V383.974Z" fill="#25FD1E"/>
<path d="M389.632 383.974H452.524V366.715H413.216V319.275H389.632V383.974Z" fill="#25FD1E"/>
<path d="M525.19 386.233C553.654 386.233 572.63 372.408 572.63 351.624C572.63 330.841 553.654 317.016 525.19 317.016C496.816 317.016 477.84 330.841 477.84 351.624C477.84 372.408 496.816 386.233 525.19 386.233ZM525.19 369.606C511.003 369.606 501.424 362.377 501.424 351.624C501.424 340.871 511.003 333.642 525.19 333.642C539.377 333.642 549.045 340.871 549.045 351.624C549.045 362.377 539.377 369.606 525.19 369.606Z" fill="#25FD1E"/>
<path d="M620.726 385.6C646.931 385.6 662.292 374.396 662.292 354.154V319.275H638.798V352.889C638.798 363.371 631.931 368.522 620.816 368.522C609.702 368.522 602.744 363.371 602.744 352.889V319.275H579.159V354.154C579.159 374.396 594.611 385.6 620.726 385.6Z" fill="#25FD1E"/>
<path d="M691.931 383.974H715.515V335.901H740.727V319.275H666.72V335.901H691.931V383.974Z" fill="#25FD1E"/>
<path fill-rule="evenodd" clip-rule="evenodd" d="M190.544 360.028L168.857 356.142C166.96 364.004 158.466 368.974 146.809 368.974C131.99 368.974 122.592 362.197 122.592 351.624C122.592 341.052 130.996 334.275 144.098 334.275C153.406 334.275 160.815 338.522 162.984 345.299L184.4 340.781C184.232 340.232 184.047 339.691 183.845 339.158C178.824 325.915 163.358 317.648 143.466 317.648C116.267 317.648 99.0075 330.841 99.0075 351.624C99.0075 373.04 117.351 385.6 146.177 385.6C169.092 385.6 185.875 376.359 190.124 361.682C190.281 361.138 190.422 360.587 190.544 360.028ZM188.437 361.38C184.404 374.889 168.69 383.898 146.177 383.898C131.981 383.898 120.576 380.801 112.768 375.255C105.026 369.755 100.71 361.777 100.71 351.624C100.71 341.757 104.783 333.765 112.071 328.195C119.406 322.59 130.12 319.351 143.466 319.351C162.864 319.351 177.377 327.335 182.156 339.514L164.059 343.332C161.059 336.484 153.208 332.572 144.098 332.572C137.27 332.572 131.481 334.337 127.363 337.66C123.207 341.012 120.889 345.845 120.889 351.624C120.889 357.481 123.521 362.324 128.15 365.647C132.727 368.932 139.165 370.676 146.809 370.676C158.109 370.676 167.215 366.112 170.055 358.087L188.437 361.38ZM218.347 356.518H257.445V382.271H277.625V320.977H257.445V343.929H218.347V320.977H198.168V382.271H218.347V356.518ZM220.05 383.974H196.465V319.275H220.05V342.227H255.743V319.275H279.327V383.974H255.743V358.221H220.05V383.974ZM311.731 383.974H288.327V319.275H311.731V383.974ZM310.029 320.977H290.03V382.271H310.029V320.977ZM342.683 368.417V320.977H322.504V382.271H381.991V368.417H342.683ZM383.693 366.715V383.974H320.801V319.275H344.386V366.715H383.693ZM411.514 368.417V320.977H391.334V382.271H450.821V368.417H411.514ZM452.524 366.715V383.974H389.632V319.275H413.216V366.715H452.524ZM558.58 375.347C566.474 369.59 570.927 361.435 570.927 351.624C570.927 341.814 566.474 333.658 558.58 327.902C550.645 322.115 539.167 318.718 525.19 318.718C511.259 318.718 499.803 322.115 491.879 327.901C483.996 333.658 479.543 341.813 479.543 351.624C479.543 361.435 483.996 369.591 491.879 375.347C499.803 381.134 511.259 384.53 525.19 384.53C539.167 384.53 550.645 381.134 558.58 375.347ZM506.96 366.006C502.389 362.55 499.722 357.562 499.722 351.624C499.722 345.687 502.389 340.699 506.96 337.243C511.494 333.814 517.825 331.94 525.19 331.94C532.554 331.94 538.905 333.814 543.461 337.24C548.053 340.693 550.748 345.681 550.748 351.624C550.748 357.568 548.053 362.555 543.461 366.009C538.905 369.434 532.554 371.309 525.19 371.309C517.825 371.309 511.494 369.434 506.96 366.006ZM650.315 376.105C656.961 371.126 660.59 363.793 660.59 354.154V320.977H640.501V352.889C640.501 358.526 638.636 362.957 635.067 365.943C631.548 368.886 626.607 370.225 620.816 370.225C615.025 370.225 610.065 368.886 606.524 365.946C602.933 362.964 601.041 358.533 601.041 352.889V320.977H580.862V354.154C580.862 363.789 584.511 371.124 591.169 376.104C597.897 381.137 607.879 383.898 620.726 383.898C633.619 383.898 643.599 381.137 650.315 376.105ZM579.159 354.154C579.159 374.396 594.611 385.6 620.726 385.6C646.931 385.6 662.292 374.396 662.292 354.154V319.275H638.798V352.889C638.798 363.371 631.931 368.522 620.816 368.522C609.702 368.522 602.744 363.371 602.744 352.889V319.275H579.159V354.154ZM713.813 334.199H739.024V320.977H668.423V334.199H693.634V382.271H713.813V334.199ZM715.515 383.974H691.931V335.901H666.72V319.275H740.727V335.901H715.515V383.974ZM572.63 351.624C572.63 372.408 553.654 386.233 525.19 386.233C496.816 386.233 477.84 372.408 477.84 351.624C477.84 330.841 496.816 317.016 525.19 317.016C553.654 317.016 572.63 330.841 572.63 351.624ZM501.424 351.624C501.424 362.377 511.003 369.606 525.19 369.606C539.376 369.606 549.045 362.377 549.045 351.624C549.045 340.871 539.376 333.642 525.19 333.642C511.003 333.642 501.424 340.871 501.424 351.624Z" fill="#0123FF"/>
<path d="M146.177 332.792C169.942 332.792 187.111 322.852 190.544 307.219L168.857 303.334C166.96 311.195 158.466 316.165 146.809 316.165C131.99 316.165 122.592 309.388 122.592 298.815C122.592 288.243 130.996 281.466 144.098 281.466C153.406 281.466 160.815 285.713 162.984 292.49L184.4 287.972C180.062 273.785 164.159 264.839 143.466 264.839C116.267 264.839 99.0076 278.032 99.0076 298.815C99.0076 320.231 117.351 332.792 146.177 332.792Z" fill="#0123FF"/>
<path d="M196.465 331.165H220.05V305.412H255.743V331.165H279.327V266.466H255.743V289.418H220.05V266.466H196.465V331.165Z" fill="#0123FF"/>
<path d="M288.327 331.165H311.731V266.466H288.327V331.165Z" fill="#0123FF"/>
<path d="M320.801 331.165H383.693V313.906H344.386V266.466H320.801V331.165Z" fill="#0123FF"/>
<path d="M389.632 331.165H452.524V313.906H413.216V266.466H389.632V331.165Z" fill="#0123FF"/>
<path d="M525.19 333.424C553.654 333.424 572.63 319.599 572.63 298.815C572.63 278.032 553.654 264.207 525.19 264.207C496.816 264.207 477.84 278.032 477.84 298.815C477.84 319.599 496.816 333.424 525.19 333.424ZM525.19 316.797C511.003 316.797 501.424 309.569 501.424 298.815C501.424 288.062 511.003 280.833 525.19 280.833C539.377 280.833 549.045 288.062 549.045 298.815C549.045 309.569 539.377 316.797 525.19 316.797Z" fill="#0123FF"/>
<path d="M620.726 332.792C646.931 332.792 662.292 321.587 662.292 301.346V266.466H638.798V300.081C638.798 310.563 631.931 315.713 620.816 315.713C609.702 315.713 602.744 310.563 602.744 300.081V266.466H579.159V301.346C579.159 321.587 594.611 332.792 620.726 332.792Z" fill="#0123FF"/>
<path d="M691.931 331.165H715.516V283.092H740.727V266.466H666.72V283.092H691.931V331.165Z" fill="#0123FF"/>
</g>
<g clip-path="url(#clip3_39_28)">
<path d="M691.526 50.1464C667.761 50.1464 650.592 60.0862 647.158 75.7188L668.845 79.6044C670.743 71.7429 679.237 66.773 690.894 66.773C705.713 66.773 715.111 73.5502 715.111 84.1225C715.111 94.6949 706.707 101.472 693.604 101.472C684.297 101.472 676.887 97.225 674.719 90.4479L653.303 94.966C657.64 109.153 673.544 118.099 694.237 118.099C721.436 118.099 738.695 104.906 738.695 84.1225C738.695 62.7067 720.352 50.1464 691.526 50.1464Z" fill="#25FD1E"/>
<path d="M641.237 51.7729L617.653 51.7729L617.653 77.5261L581.96 77.5261L581.96 51.7729L558.375 51.7729L558.375 116.472L581.96 116.472L581.96 93.5202L617.653 93.5202L617.653 116.472L641.237 116.472L641.237 51.7729Z" fill="#25FD1E"/>
<path d="M549.375 51.7729L525.971 51.7729L525.971 116.472L549.375 116.472L549.375 51.7729Z" fill="#25FD1E"/>
<path d="M516.901 51.7729L454.009 51.7729L454.009 69.0321L493.317 69.0321L493.317 116.472L516.901 116.472L516.901 51.7729Z" fill="#25FD1E"/>
<path d="M448.071 51.7729L385.179 51.7729L385.179 69.0321L424.486 69.0321L424.486 116.472L448.071 116.472L448.071 51.7729Z" fill="#25FD1E"/>
<path d="M312.513 49.5139C284.049 49.5139 265.073 63.3393 265.073 84.1226C265.073 104.906 284.049 118.731 312.513 118.731C340.887 118.731 359.863 104.906 359.863 84.1225C359.863 63.3393 340.887 49.5139 312.513 49.5139ZM312.513 66.1405C326.7 66.1405 336.278 73.3695 336.278 84.1226C336.278 94.8756 326.7 102.105 312.513 102.105C298.326 102.105 288.657 94.8756 288.657 84.1226C288.657 73.3695 298.326 66.1405 312.513 66.1405Z" fill="#25FD1E"/>
<path d="M216.977 50.1464C190.772 50.1464 175.41 61.3513 175.41 81.5924L175.41 116.472L198.904 116.472L198.904 82.8575C198.904 72.3755 205.772 67.2249 216.887 67.2249C228.001 67.2249 234.959 72.3755 234.959 82.8575L234.959 116.472L258.543 116.472L258.543 81.5924C258.543 61.3513 243.092 50.1464 216.977 50.1464Z" fill="#25FD1E"/>
<path d="M145.772 51.7729L122.187 51.7729L122.187 99.8456L96.9761 99.8456L96.9761 116.472L170.983 116.472L170.983 99.8456L145.772 99.8456L145.772 51.7729Z" fill="#25FD1E"/>
<path fill-rule="evenodd" clip-rule="evenodd" d="M647.158 75.7188L668.845 79.6044C670.743 71.7429 679.237 66.773 690.894 66.773C705.713 66.773 715.111 73.5502 715.111 84.1225C715.111 94.6949 706.707 101.472 693.604 101.472C684.297 101.472 676.887 97.225 674.719 90.4479L653.303 94.966C653.471 95.5149 653.656 96.056 653.858 96.589C658.878 109.832 674.345 118.099 694.237 118.099C721.436 118.099 738.695 104.906 738.695 84.1225C738.695 62.7067 720.352 50.1464 691.526 50.1464C668.61 50.1464 651.828 59.3883 647.579 74.0644C647.421 74.6085 647.281 75.16 647.158 75.7188ZM649.266 74.3666C653.299 60.8578 669.012 51.849 691.526 51.849C705.721 51.849 717.127 54.9458 724.934 60.4916C732.677 65.9914 736.992 73.9696 736.992 84.1225C736.992 93.9901 732.92 101.981 725.632 107.552C718.297 113.157 707.583 116.396 694.237 116.396C674.839 116.396 660.325 108.412 655.546 96.2328L673.644 92.4147C676.644 99.2624 684.494 103.175 693.604 103.175C700.432 103.175 706.221 101.409 710.34 98.0872C714.496 94.7348 716.813 89.9019 716.813 84.1225C716.813 78.2657 714.181 73.4224 709.552 70.0999C704.976 66.8151 698.538 65.0704 690.894 65.0704C679.593 65.0704 670.487 69.6352 667.648 77.6602L649.266 74.3666ZM619.356 79.2287L580.257 79.2287L580.257 53.4756L560.078 53.4756L560.078 114.77L580.257 114.77L580.257 91.8175L619.356 91.8175L619.356 114.77L639.535 114.77L639.535 53.4755L619.356 53.4756L619.356 79.2287ZM617.653 51.7729L641.237 51.7729L641.237 116.472L617.653 116.472L617.653 93.5202L581.96 93.5202L581.96 116.472L558.375 116.472L558.375 51.7729L581.96 51.7729L581.96 77.5261L617.653 77.5261L617.653 51.7729ZM525.971 51.7729L549.375 51.7729L549.375 116.472L525.971 116.472L525.971 51.7729ZM527.674 114.77L547.673 114.77L547.673 53.4756L527.674 53.4756L527.674 114.77ZM495.02 67.3294L495.02 114.77L515.199 114.77L515.199 53.4756L455.712 53.4756L455.712 67.3294L495.02 67.3294ZM454.009 69.0321L454.009 51.7729L516.901 51.7729L516.901 116.472L493.317 116.472L493.317 69.0321L454.009 69.0321ZM426.189 67.3294L426.189 114.77L446.368 114.77L446.368 53.4756L386.881 53.4756L386.881 67.3294L426.189 67.3294ZM385.179 69.0321L385.179 51.7729L448.071 51.7729L448.071 116.472L424.486 116.472L424.486 69.0321L385.179 69.0321ZM279.122 60.4002C271.229 66.1564 266.775 74.3119 266.775 84.1226C266.775 93.9332 271.229 102.089 279.122 107.845C287.057 113.632 298.536 117.029 312.513 117.029C326.444 117.029 337.899 113.632 345.824 107.846C353.706 102.089 358.16 93.9335 358.16 84.1225C358.16 74.3116 353.706 66.1558 345.824 60.3995C337.899 54.6128 326.444 51.2165 312.513 51.2165C298.536 51.2165 287.057 54.6133 279.122 60.4002ZM330.742 69.741C335.314 73.1973 337.981 78.185 337.981 84.1226C337.981 90.0601 335.314 95.0478 330.742 98.5041C326.208 101.932 319.877 103.807 312.513 103.807C305.149 103.807 298.797 101.933 294.242 98.5068C289.65 95.0534 286.955 90.066 286.955 84.1226C286.955 78.1791 289.65 73.1917 294.242 69.7383C298.797 66.3125 305.149 64.4379 312.513 64.4379C319.877 64.4378 326.208 66.3127 330.742 69.741ZM187.388 59.6416C180.742 64.6206 177.113 71.9543 177.113 81.5924L177.113 114.77L197.202 114.77L197.202 82.8575C197.202 77.2206 199.066 72.7894 202.635 69.8044C206.155 66.8609 211.096 65.5222 216.887 65.5222C222.677 65.5222 227.638 66.8609 231.178 69.8005C234.77 72.7825 236.662 77.2134 236.662 82.8575L236.662 114.77L256.841 114.77L256.841 81.5924C256.841 71.9577 253.192 64.623 246.533 59.6424C239.805 54.6098 229.824 51.8491 216.977 51.8491C204.084 51.8491 194.103 54.6103 187.388 59.6416ZM258.543 81.5924C258.543 61.3513 243.092 50.1464 216.977 50.1464C190.772 50.1464 175.41 61.3513 175.41 81.5924L175.41 116.472L198.904 116.472L198.904 82.8575C198.904 72.3755 205.772 67.2249 216.887 67.2249C228.001 67.2249 234.959 72.3755 234.959 82.8575L234.959 116.472L258.543 116.472L258.543 81.5924ZM123.89 101.548L98.6788 101.548L98.6788 114.77L169.28 114.77L169.28 101.548L144.069 101.548L144.069 53.4756L123.89 53.4756L123.89 101.548ZM122.187 51.7729L145.772 51.7729L145.772 99.8456L170.983 99.8456L170.983 116.472L96.9761 116.472L96.9761 99.8456L122.187 99.8456L122.187 51.7729ZM265.073 84.1226C265.073 63.3393 284.049 49.5139 312.513 49.5139C340.887 49.5139 359.863 63.3393 359.863 84.1225C359.863 104.906 340.887 118.731 312.513 118.731C284.049 118.731 265.073 104.906 265.073 84.1226ZM336.278 84.1226C336.278 73.3695 326.7 66.1405 312.513 66.1405C298.326 66.1405 288.657 73.3695 288.657 84.1226C288.657 94.8756 298.326 102.105 312.513 102.105C326.7 102.105 336.278 94.8756 336.278 84.1226Z" fill="#0123FF"/>
<path d="M691.526 103.561C667.761 103.561 650.592 113.501 647.158 129.134L668.845 133.019C670.743 125.158 679.237 120.188 690.894 120.188C705.713 120.188 715.111 126.965 715.111 137.537C715.111 148.11 706.707 154.887 693.604 154.887C684.297 154.887 676.887 150.64 674.719 143.863L653.303 148.381C657.64 162.568 673.544 171.513 694.237 171.513C721.436 171.513 738.695 158.321 738.695 137.537C738.695 116.121 720.352 103.561 691.526 103.561Z" fill="#25FD1E"/>
<path d="M641.237 105.188L617.653 105.188L617.653 130.941L581.96 130.941L581.96 105.188L558.375 105.188L558.375 169.887L581.96 169.887L581.96 146.935L617.653 146.935L617.653 169.887L641.237 169.887L641.237 105.188Z" fill="#25FD1E"/>
<path d="M549.375 105.188L525.971 105.188L525.971 169.887L549.375 169.887L549.375 105.188Z" fill="#25FD1E"/>
<path d="M516.901 105.188L454.009 105.188L454.009 122.447L493.317 122.447L493.317 169.887L516.901 169.887L516.901 105.188Z" fill="#25FD1E"/>
<path d="M448.071 105.188L385.179 105.188L385.179 122.447L424.486 122.447L424.486 169.887L448.071 169.887L448.071 105.188Z" fill="#25FD1E"/>
<path d="M312.513 102.929C284.049 102.929 265.073 116.754 265.073 137.537C265.073 158.321 284.049 172.146 312.513 172.146C340.887 172.146 359.863 158.321 359.863 137.537C359.863 116.754 340.887 102.929 312.513 102.929ZM312.513 119.555C326.7 119.555 336.278 126.784 336.278 137.537C336.278 148.29 326.7 155.519 312.513 155.519C298.326 155.519 288.657 148.29 288.657 137.537C288.657 126.784 298.326 119.555 312.513 119.555Z" fill="#25FD1E"/>
<path d="M216.977 103.561C190.772 103.561 175.41 114.766 175.41 135.007L175.41 169.887L198.904 169.887L198.904 136.272C198.904 125.79 205.772 120.64 216.887 120.64C228.001 120.64 234.959 125.79 234.959 136.272L234.959 169.887L258.543 169.887L258.543 135.007C258.543 114.766 243.092 103.561 216.977 103.561Z" fill="#25FD1E"/>
<path d="M145.772 105.188L122.187 105.188L122.187 153.26L96.9761 153.26L96.9761 169.887L170.983 169.887L170.983 153.26L145.772 153.26L145.772 105.188Z" fill="#25FD1E"/>
<path fill-rule="evenodd" clip-rule="evenodd" d="M647.158 129.134L668.845 133.019C670.743 125.158 679.237 120.188 690.894 120.188C705.713 120.188 715.111 126.965 715.111 137.537C715.111 148.11 706.707 154.887 693.604 154.887C684.297 154.887 676.887 150.64 674.719 143.863L653.303 148.381C653.471 148.93 653.656 149.471 653.858 150.004C658.878 163.246 674.345 171.513 694.237 171.513C721.436 171.513 738.695 158.321 738.695 137.537C738.695 116.121 720.352 103.561 691.526 103.561C668.61 103.561 651.828 112.803 647.579 127.479C647.421 128.023 647.281 128.575 647.158 129.134ZM649.266 127.781C653.299 114.273 669.012 105.264 691.526 105.264C705.721 105.264 717.127 108.361 724.934 113.906C732.677 119.406 736.992 127.384 736.992 137.537C736.992 147.405 732.92 155.396 725.632 160.966C718.297 166.572 707.583 169.811 694.237 169.811C674.839 169.811 660.325 161.827 655.546 149.648L673.644 145.829C676.644 152.677 684.494 156.589 693.604 156.589C700.432 156.589 706.221 154.824 710.34 151.502C714.496 148.15 716.813 143.317 716.813 137.537C716.813 131.68 714.181 126.837 709.552 123.515C704.976 120.23 698.538 118.485 690.894 118.485C679.593 118.485 670.487 123.05 667.648 131.075L649.266 127.781ZM619.356 132.643L580.257 132.643L580.257 106.89L560.078 106.89L560.078 168.184L580.257 168.184L580.257 145.232L619.356 145.232L619.356 168.184L639.535 168.184L639.535 106.89L619.356 106.89L619.356 132.643ZM617.653 105.188L641.237 105.188L641.237 169.887L617.653 169.887L617.653 146.935L581.96 146.935L581.96 169.887L558.375 169.887L558.375 105.188L581.96 105.188L581.96 130.941L617.653 130.941L617.653 105.188ZM525.971 105.188L549.375 105.188L549.375 169.887L525.971 169.887L525.971 105.188ZM527.674 168.184L547.673 168.184L547.673 106.89L527.674 106.89L527.674 168.184ZM495.02 120.744L495.02 168.184L515.199 168.184L515.199 106.89L455.712 106.89L455.712 120.744L495.02 120.744ZM454.009 122.447L454.009 105.188L516.901 105.188L516.901 169.887L493.317 169.887L493.317 122.447L454.009 122.447ZM426.189 120.744L426.189 168.184L446.368 168.184L446.368 106.89L386.881 106.89L386.881 120.744L426.189 120.744ZM385.179 122.447L385.179 105.188L448.071 105.188L448.071 169.887L424.486 169.887L424.486 122.447L385.179 122.447ZM279.122 113.815C271.229 119.571 266.775 127.727 266.775 137.537C266.775 147.348 271.229 155.503 279.122 161.26C287.057 167.047 298.536 170.443 312.513 170.443C326.444 170.443 337.899 167.047 345.824 161.26C353.706 155.504 358.16 147.348 358.16 137.537C358.16 127.726 353.706 119.571 345.824 113.814C337.899 108.028 326.444 104.631 312.513 104.631C298.536 104.631 287.057 108.028 279.122 113.815ZM330.742 123.156C335.314 126.612 337.981 131.6 337.981 137.537C337.981 143.475 335.314 148.463 330.742 151.919C326.208 155.347 319.877 157.222 312.513 157.222C305.149 157.222 298.797 155.347 294.242 151.922C289.65 148.468 286.955 143.481 286.955 137.537C286.955 131.594 289.65 126.606 294.242 123.153C298.797 119.727 305.149 117.853 312.513 117.853C319.877 117.853 326.208 119.727 330.742 123.156ZM187.388 113.056C180.742 118.035 177.113 125.369 177.113 135.007L177.113 168.184L197.202 168.184L197.202 136.272C197.202 130.635 199.066 126.204 202.635 123.219C206.155 120.276 211.096 118.937 216.887 118.937C222.677 118.937 227.638 120.276 231.178 123.215C234.77 126.197 236.662 130.628 236.662 136.272L236.662 168.184L256.841 168.184L256.841 135.007C256.841 125.372 253.192 118.038 246.533 113.057C239.805 108.025 229.824 105.264 216.977 105.264C204.084 105.264 194.103 108.025 187.388 113.056ZM258.543 135.007C258.543 114.766 243.092 103.561 216.977 103.561C190.772 103.561 175.41 114.766 175.41 135.007L175.41 169.887L198.904 169.887L198.904 136.272C198.904 125.79 205.772 120.64 216.887 120.64C228.001 120.64 234.959 125.79 234.959 136.272L234.959 169.887L258.543 169.887L258.543 135.007ZM123.89 154.963L98.6788 154.963L98.6788 168.184L169.28 168.184L169.28 154.963L144.069 154.963L144.069 106.89L123.89 106.89L123.89 154.963ZM122.187 105.188L145.772 105.188L145.772 153.26L170.983 153.26L170.983 169.887L96.9761 169.887L96.9761 153.26L122.187 153.26L122.187 105.188ZM265.073 137.537C265.073 116.754 284.049 102.929 312.513 102.929C340.887 102.929 359.863 116.754 359.863 137.537C359.863 158.321 340.887 172.146 312.513 172.146C284.049 172.146 265.073 158.321 265.073 137.537ZM336.278 137.537C336.278 126.784 326.7 119.555 312.513 119.555C298.326 119.555 288.657 126.784 288.657 137.537C288.657 148.29 298.326 155.519 312.513 155.519C326.7 155.519 336.278 148.29 336.278 137.537Z" fill="#0123FF"/>
<path d="M691.526 156.37C667.761 156.37 650.592 166.31 647.158 181.942L668.845 185.828C670.743 177.967 679.237 172.997 690.893 172.997C705.713 172.997 715.11 179.774 715.11 190.346C715.11 200.919 706.707 207.696 693.604 207.696C684.297 207.696 676.887 203.449 674.719 196.672L653.303 201.19C657.64 215.376 673.544 224.322 694.237 224.322C721.436 224.322 738.695 211.129 738.695 190.346C738.695 168.93 720.351 156.37 691.526 156.37Z" fill="#0123FF"/>
<path d="M641.237 157.997L617.653 157.997L617.653 183.75L581.96 183.75L581.96 157.997L558.375 157.997L558.375 222.696L581.96 222.696L581.96 199.744L617.653 199.744L617.653 222.696L641.237 222.696L641.237 157.997Z" fill="#0123FF"/>
<path d="M549.375 157.997L525.971 157.997L525.971 222.696L549.375 222.696L549.375 157.997Z" fill="#0123FF"/>
<path d="M516.901 157.997L454.009 157.997L454.009 175.256L493.317 175.256L493.317 222.696L516.901 222.696L516.901 157.997Z" fill="#0123FF"/>
<path d="M448.071 157.997L385.179 157.997L385.179 175.256L424.486 175.256L424.486 222.696L448.071 222.696L448.071 157.997Z" fill="#0123FF"/>
<path d="M312.513 155.738C284.049 155.738 265.073 169.563 265.073 190.346C265.073 211.129 284.049 224.955 312.513 224.955C340.887 224.955 359.863 211.129 359.863 190.346C359.863 169.563 340.886 155.738 312.513 155.738ZM312.513 172.364C326.7 172.364 336.278 179.593 336.278 190.346C336.278 201.099 326.7 208.328 312.513 208.328C298.326 208.328 288.657 201.099 288.657 190.346C288.657 179.593 298.326 172.364 312.513 172.364Z" fill="#0123FF"/>
<path d="M216.977 156.37C190.772 156.37 175.41 167.575 175.41 187.816L175.41 222.696L198.904 222.696L198.904 189.081C198.904 178.599 205.772 173.448 216.886 173.448C228.001 173.448 234.959 178.599 234.959 189.081L234.959 222.696L258.543 222.696L258.543 187.816C258.543 167.575 243.091 156.37 216.977 156.37Z" fill="#0123FF"/>
<path d="M145.771 157.997L122.187 157.997L122.187 206.069L96.976 206.069L96.976 222.696L170.983 222.696L170.983 206.069L145.771 206.069L145.771 157.997Z" fill="#0123FF"/>
</g>
</g>
<path fill-rule="evenodd" clip-rule="evenodd" d="M455.458 245.181C428.707 245.181 408.892 237.147 395.755 224.009C382.617 210.872 374.582 191.056 374.582 164.305C374.582 191.056 366.548 210.872 353.41 224.009C340.273 237.147 320.458 245.181 293.707 245.181C320.458 245.181 340.273 253.216 353.41 266.353C366.548 279.491 374.582 299.306 374.582 326.057C374.582 299.306 382.617 279.491 395.755 266.353C408.892 253.216 428.707 245.181 455.458 245.181Z" fill="#F723FB"/>
<rect x="96.1996" y="242.627" width="181.332" height="4.25662" rx="2.12831" fill="#0123FF"/>
<rect x="466.525" y="242.627" width="274.978" height="4.25662" rx="2.12831" fill="#0123FF"/>
<defs>
<clipPath id="clip0_39_28">
<rect width="836" height="490.363" fill="white"/>
</clipPath>
<clipPath id="clip1_39_28">
<rect width="643.75" height="390.134" fill="white" transform="translate(96.9761 49.5138)"/>
</clipPath>
<clipPath id="clip2_39_28">
<rect width="641.719" height="175.441" fill="white" transform="translate(99.0076 264.207)"/>
</clipPath>
<clipPath id="clip3_39_28">
<rect width="641.719" height="175.441" fill="white" transform="translate(738.695 224.955) rotate(180)"/>
</clipPath>
</defs>
</svg>
